<?xml version="1.0" standalone="no"?>
<!DOCTYPE svg PUBLIC "-//W3C//DTD SVG 1.1//EN" "http://www.w3.org/Graphics/SVG/1.1/DTD/svg11.dtd" >
<svg xmlns="http://www.w3.org/2000/svg" xmlns:xlink="http://www.w3.org/1999/xlink" version="1.1">
<metadata>
Created by FontForge 20161003 at Thu Feb  2 00:59:58 2017
 By www-data
Copyright (c) 1990 Neufville SL, Copyright (c) 1990-2000 ParaType, Inc. All Rights Reserved. Futura is a registered trade mark of Neufville SL.
</metadata>
<defs>
<font id="FuturaFuturisMedium" horiz-adv-x="590" >
  <font-face 
    font-family="FuturaFuturisMedium"
    font-weight="400"
    font-stretch="normal"
    units-per-em="1000"
    panose-1="0 0 0 0 0 0 0 0 0 0"
    ascent="800"
    descent="-200"
    x-height="442"
    cap-height="700"
    bbox="-412 -262 1223 950"
    underline-thickness="50"
    underline-position="-150"
    unicode-range="U+000D-2122"
  />
<missing-glyph horiz-adv-x="233" 
 />
    <glyph glyph-name=".notdef" horiz-adv-x="233" 
 />
    <glyph glyph-name=".null" horiz-adv-x="0" 
 />
    <glyph glyph-name=".null" horiz-adv-x="0" 
 />
    <glyph glyph-name="nonmarkingreturn" unicode="&#xd;" horiz-adv-x="250" 
 />
    <glyph glyph-name="space" unicode=" " horiz-adv-x="233" 
 />
    <glyph glyph-name="exclam" unicode="!" horiz-adv-x="260" 
d="M79 156v544h102v-544h-102zM64 52q0 27 19.5 46.5t46.5 19.5t46.5 -19.5t19.5 -46.5t-19.5 -46.5t-46.5 -19.5t-46.5 19.5t-19.5 46.5z" />
    <glyph glyph-name="quotedbl" unicode="&#x22;" horiz-adv-x="380" 
d="M143 420h-76l-19 280h114zM313 420h-76l-19 280h114z" />
    <glyph glyph-name="numbersign" unicode="#" horiz-adv-x="628" 
d="M587 298l-15 -92h-113l-33 -206h-102l33 206h-122l-32 -206h-102l32 206h-113l15 92h113l18 118h-113l15 92h113l31 192h102l-31 -192h122l30 192h102l-30 -192h113l-15 -92h-113l-18 -118h113zM390 416h-122l-18 -118h122z" />
    <glyph glyph-name="dollar" unicode="$" 
d="M411 545q-11 26 -32 44q-17 14 -34.5 19.5t-40.5 5.5q-41 0 -69.5 -21t-28.5 -63q0 -9 2.5 -20t10.5 -22t22.5 -22t39.5 -21l70 -28q53 -21 85.5 -46.5t50 -52.5t23.5 -54.5t6 -52.5q0 -43 -13.5 -80.5t-37 -66t-55.5 -47.5t-70 -26v-96h-78v92q-37 4 -71.5 19.5
t-65.5 50.5q-18 20 -36 54t-23 82l106 23q2 -38 14.5 -61t15.5 -28q18 -23 41 -32.5t50 -9.5q29 0 50.5 10.5t36 27.5t21.5 38t7 42q0 26 -9.5 45.5t-24 33.5t-32 23.5t-34.5 16.5l-67 29q-27 12 -52.5 27t-46 36t-32.5 49t-12 65q0 35 12.5 66t34.5 55t52 40t65 20v90h78
v-89q34 -5 57 -15t46 -30q15 -14 29 -31.5t25 -38.5z" />
    <glyph glyph-name="percent" unicode="%" horiz-adv-x="846" 
d="M598 712l50 -31l-400 -693l-50 31zM202 378q-27 0 -57 10.5t-55 31t-41 51.5t-16 71q0 41 16 71.5t41 51t55 31t57 10.5q35 0 65.5 -13t53.5 -35.5t36.5 -52.5t13.5 -63t-13.5 -63t-36.5 -52.5t-53.5 -35.5t-65.5 -13zM202 632q-21 0 -37.5 -8.5t-27.5 -22t-16.5 -29.5
t-5.5 -30q0 -15 5.5 -30.5t16.5 -29t27.5 -22t37.5 -8.5t37 8.5t27 21.5t17 29t6 31t-5.5 30.5t-17 29t-27.5 22t-37 8.5zM644 -6q-27 0 -57 10.5t-55 31t-41 51.5t-16 71q0 41 16 71.5t41 51t55 31t57 10.5q35 0 65.5 -13t53.5 -35.5t36.5 -52.5t13.5 -63t-13.5 -63
t-36.5 -52.5t-53.5 -35.5t-65.5 -13zM644 248q-21 0 -37.5 -8.5t-27.5 -22t-16.5 -29.5t-5.5 -30q0 -15 5.5 -30.5t16.5 -29t27.5 -22t37.5 -8.5t37 8.5t27 21.5t17 29t6 31t-5.5 30.5t-17 29t-27.5 22t-37 8.5z" />
    <glyph glyph-name="ampersand" unicode="&#x26;" horiz-adv-x="676" 
d="M629 257l-82 -95l129 -162h-130l-70 86q-13 -14 -27 -26t-32 -25q-33 -23 -67 -36t-86 -13q-49 0 -88 15t-66 42t-41.5 64t-14.5 80q0 39 10 67.5t25 49.5t33 36t33 27q17 12 29 20.5t27 18.5q-26 27 -48 65t-22 80q0 30 10 59.5t30.5 52.5t52 37t73.5 14t73.5 -13.5
t52.5 -35t31.5 -49t10.5 -55.5q0 -38 -11 -59t-19 -32q-14 -17 -39.5 -40.5t-47.5 -40.5l123 -151l80 90zM274 330q-17 -9 -40 -25.5t-37 -32.5q-17 -19 -27 -43t-10 -46q0 -17 6 -36t19.5 -34.5t34 -26t48.5 -10.5q26 0 44 8t35 20t34 27.5t31 30.5zM335 492q26 19 34 38.5
t8 30.5q0 22 -16 42.5t-54 20.5q-25 0 -38.5 -8.5t-20 -19t-8 -20.5t-1.5 -13q0 -21 9.5 -37t15.5 -24l32 -38z" />
    <glyph glyph-name="quotesingle" unicode="'" horiz-adv-x="210" 
d="M143 420h-76l-19 280h114z" />
    <glyph glyph-name="parenleft" unicode="(" horiz-adv-x="334" 
d="M179 -224q-23 48 -38 91.5t-27 94.5q-11 46 -17.5 91.5t-10.5 85.5t-5 71.5t-1 49.5q0 26 2 61t6 74.5t10.5 81t15.5 81.5q12 50 27 94t38 91l95 -36q-16 -38 -31.5 -82t-25.5 -85q-8 -33 -14 -71.5t-9.5 -77t-5.5 -73t-2 -58.5t2 -58.5t5.5 -73t9.5 -77.5t14 -72
q1 -3 4.5 -17t10.5 -36t17.5 -51t24.5 -62z" />
    <glyph glyph-name="parenright" unicode=")" horiz-adv-x="334" 
d="M155 743q23 -47 38 -91t27 -94q9 -40 15.5 -81.5t10.5 -81t6 -74.5t2 -61q0 -18 -1 -49.5t-5 -71.5t-10.5 -85.5t-17.5 -91.5q-12 -51 -27 -94.5t-38 -91.5l-95 37q14 33 24.5 62t17.5 51t10.5 36t4.5 17q8 33 14 72t10 77.5t5.5 73t1.5 58.5t-1.5 58.5t-5.5 73t-10 77
t-14 71.5q-10 41 -25.5 85t-31.5 82z" />
    <glyph glyph-name="asterisk" unicode="*" horiz-adv-x="586" 
d="M254 613l-7 122h92l-7 -122l114 44l29 -86l-119 -31l78 -96l-74 -52l-67 103l-67 -103l-74 52l78 96l-119 31l29 86z" />
    <glyph glyph-name="plus" unicode="+" horiz-adv-x="522" 
d="M33 400h179v178h98v-178h179v-94h-179v-178h-98v178h-179v94z" />
    <glyph glyph-name="comma" unicode="," horiz-adv-x="260" 
d="M102 130l94 -34l-130 -260l-70 30z" />
    <glyph glyph-name="hyphen" unicode="-" horiz-adv-x="332" 
d="M40 276h252v-106h-252v106z" />
    <glyph glyph-name="period" unicode="." horiz-adv-x="260" 
d="M64 52q0 27 19.5 46.5t46.5 19.5t46.5 -19.5t19.5 -46.5t-19.5 -46.5t-46.5 -19.5t-46.5 19.5t-19.5 46.5z" />
    <glyph glyph-name="slash" unicode="/" horiz-adv-x="562" 
d="M400 744l84 -38l-400 -928l-84 38z" />
    <glyph glyph-name="zero" unicode="0" 
d="M295 -14q-48 0 -86 19t-72 57q-28 32 -46 68t-28 72.5t-13.5 74t-3.5 72.5t3.5 72.5t13.5 75t28 73.5t46 68q66 76 158 76t158 -76q29 -32 46.5 -68t27.5 -73.5t13.5 -75t3.5 -72.5t-3.5 -72.5t-13.5 -74t-27.5 -72.5t-46.5 -68q-34 -38 -72 -57t-86 -19zM295 618
q-32 0 -54.5 -16t-39.5 -42q-17 -25 -26.5 -54.5t-14.5 -58t-6.5 -54t-1.5 -42.5q0 -18 1.5 -43.5t6.5 -54t14.5 -58t26.5 -55.5t39.5 -42t54.5 -16t54.5 16t39.5 42t26.5 55.5t14.5 58t6.5 54t1.5 43.5q0 17 -1.5 42.5t-6.5 54t-14.5 58t-26.5 54.5q-17 26 -39.5 42
t-54.5 16z" />
    <glyph glyph-name="one" unicode="1" 
d="M260 602h-120l58 98h170v-700h-108v602z" />
    <glyph glyph-name="two" unicode="2" 
d="M504 0h-470l244 294q22 26 44 53.5t40 55.5q11 16 22.5 40t11.5 59q0 23 -7.5 43.5t-22 37t-36 26t-49.5 9.5q-24 0 -46 -8.5t-38.5 -25t-27 -40.5t-11.5 -54h-104q2 45 17.5 84t41.5 69q30 35 70.5 53t96.5 18q55 0 96.5 -17.5t69.5 -46.5t42 -68t14 -81q0 -41 -13 -76
t-37 -71q-19 -29 -43.5 -58.5t-56.5 -67.5l-112 -132h264v-96z" />
    <glyph glyph-name="three" unicode="3" 
d="M69 523q4 44 15 70t20 40q16 24 37 39.5t44 25t46.5 13t44.5 3.5q49 0 87.5 -14.5t65.5 -40.5t41 -62t14 -79q0 -31 -7.5 -55t-19 -42t-25 -31t-25.5 -21q49 -25 69 -68t20 -92q0 -33 -10 -71.5t-35.5 -72.5t-70 -56.5t-112.5 -22.5q-47 0 -81.5 11.5t-59 30t-39.5 40.5
t-23 43q-7 18 -11 38.5t-6 39.5h104q4 -45 35 -76t83 -31q54 0 87 34.5t33 93.5q0 48 -30.5 81t-89.5 33h-21v92h21q14 0 33 2.5t36 12t29 28.5t12 52q0 51 -28.5 79t-76.5 28q-43 0 -71 -24.5t-31 -70.5h-104z" />
    <glyph glyph-name="four" unicode="4" 
d="M468 196h74v-96h-74v-100h-102v100h-346l448 650v-554zM366 196v236l-160 -236h160z" />
    <glyph glyph-name="five" unicode="5" 
d="M499 604h-218l-33 -119q8 1 16 1.5t16 0.5q12 0 29.5 -1.5t37.5 -7t41.5 -16t42.5 -28.5q11 -9 24.5 -25t25.5 -39t20.5 -54t8.5 -72q0 -46 -15 -92.5t-46.5 -83t-81.5 -59.5t-119 -23q-16 0 -42.5 3t-57 16t-62 39.5t-58.5 74.5l80 67q6 -14 17 -32t29 -34t43 -27
t58 -11q38 0 66 12.5t46.5 34t27.5 50t9 59.5q0 33 -9.5 61t-28 48.5t-45 32t-59.5 11.5t-67.5 -13t-59.5 -48h-36l110 370h290v-96z" />
    <glyph glyph-name="six" unicode="6" 
d="M450 666l-167 -225q18 3 35 3q38 0 75.5 -13t68 -40t49.5 -69t19 -101q0 -49 -16 -92t-46 -74.5t-73 -50t-98 -18.5q-49 0 -92.5 16t-75.5 46t-50.5 72t-18.5 94q0 50 18.5 91t50.5 86l244 333zM294 348q-57 0 -92.5 -36.5t-35.5 -96.5q0 -58 36 -95.5t93 -37.5t93 37.5
t36 95.5q0 59 -35.5 96t-94.5 37z" />
    <glyph glyph-name="seven" unicode="7" 
d="M398 604h-344v96h518l-438 -724l-84 52z" />
    <glyph glyph-name="eight" unicode="8" 
d="M168 364q-77 54 -77 149q0 47 16.5 84t44 63t64.5 40t79 14t79 -14t64.5 -40t44 -63t16.5 -84q0 -95 -77 -149q45 -23 69.5 -65.5t24.5 -99.5q0 -51 -18 -90.5t-48.5 -67t-70.5 -41.5t-84 -14t-84 14t-70.5 41.5t-48.5 67t-18 90.5q0 57 24.5 99.5t69.5 65.5zM295 618
q-47 0 -76.5 -29t-29.5 -77q0 -27 10 -47t25.5 -33t34 -19t36.5 -6t36.5 6t34 19t25.5 33t10 47q0 48 -29.5 77t-76.5 29zM295 317q-21 0 -41.5 -7.5t-37 -22t-26.5 -36t-10 -50.5q0 -53 32 -86t83 -33t83 33t32 86q0 29 -10 50.5t-26.5 36t-37 22t-41.5 7.5z" />
    <glyph glyph-name="nine" unicode="9" 
d="M140 34l167 225q-15 -3 -31 -3q-38 0 -76.5 14t-69.5 42t-50.5 70t-19.5 98q0 48 16 91t46.5 74.5t74.5 50t99 18.5q58 0 102 -19.5t73 -52t44 -73.5t15 -83q0 -50 -18.5 -91t-50.5 -86l-244 -333zM297 352q56 0 91.5 36.5t35.5 96.5q0 58 -36 95.5t-93 37.5t-93 -37.5
t-36 -95.5q0 -59 35.5 -96t95.5 -37z" />
    <glyph glyph-name="colon" unicode=":" horiz-adv-x="260" 
d="M64 388q0 27 19.5 46.5t46.5 19.5t46.5 -19.5t19.5 -46.5t-19.5 -46.5t-46.5 -19.5t-46.5 19.5t-19.5 46.5zM64 52q0 27 19.5 46.5t46.5 19.5t46.5 -19.5t19.5 -46.5t-19.5 -46.5t-46.5 -19.5t-46.5 19.5t-19.5 46.5z" />
    <glyph glyph-name="semicolon" unicode=";" horiz-adv-x="260" 
d="M64 388q0 27 19.5 46.5t46.5 19.5t46.5 -19.5t19.5 -46.5t-19.5 -46.5t-46.5 -19.5t-46.5 19.5t-19.5 46.5zM102 130l94 -34l-130 -260l-70 30z" />
    <glyph glyph-name="less" unicode="&#x3c;" horiz-adv-x="522" 
d="M489 614v-102l-346 -163l346 -163v-102l-456 222v86z" />
    <glyph glyph-name="equal" unicode="=" horiz-adv-x="522" 
d="M33 488h456v-88h-456v88zM33 318h456v-88h-456v88z" />
    <glyph glyph-name="greater" unicode="&#x3e;" horiz-adv-x="522" 
d="M33 84v102l346 163l-346 163v102l456 -222v-86z" />
    <glyph glyph-name="question" unicode="?" horiz-adv-x="450" 
d="M56 513q-2 19 -2 26v10q0 31 10.5 60.5t31.5 53t53 37.5t76 14q37 0 68 -12t54 -34.5t36 -55.5t13 -75q0 -26 -5.5 -45t-14.5 -33t-20 -24t-22 -18t-21 -14t-21.5 -11t-26.5 -11t-36 -14q-9 -3 -19 -7.5t-19 -11.5t-14.5 -17t-5.5 -25q0 -22 14.5 -37.5t37.5 -15.5
q31 0 45 25q11 20 9 46h104q-2 -32 -8 -53.5t-20 -42.5t-31.5 -34.5t-35 -20.5t-34 -9.5t-30.5 -2.5q-29 0 -57 10t-49.5 29t-35 47t-13.5 65t12 62t30.5 41.5t40.5 26.5t41 17q26 10 45 16.5t32 17.5q16 13 20 27.5t4 28.5q0 34 -17.5 53.5t-49.5 19.5q-29 0 -48 -17.5
t-19 -57.5q0 -8 1 -19t1 -15h-104zM159 52q0 27 19.5 46.5t46.5 19.5t46.5 -19.5t19.5 -46.5t-19.5 -46.5t-46.5 -19.5t-46.5 19.5t-19.5 46.5z" />
    <glyph glyph-name="at" unicode="@" horiz-adv-x="764" 
d="M505 515h72l-41 -211q-2 -12 -4 -23t-2 -24q0 -25 11.5 -33.5t21.5 -8.5q17 0 36 14.5t28 27.5q8 11 14 27.5t11 36t7.5 40t2.5 38.5q0 43 -15.5 87.5t-47 80.5t-80.5 58.5t-117 22.5q-64 0 -118.5 -23.5t-95 -64.5t-63.5 -96.5t-23 -119.5q0 -44 12 -86.5t35 -79
t56.5 -64.5t75.5 -44q29 -11 63.5 -16t63.5 -5q44 0 98 10t108 33l18 -64q-62 -26 -123.5 -33.5t-102.5 -7.5q-85 0 -148 24t-106 61q-19 16 -39.5 40.5t-38 58t-29 77t-11.5 97.5q0 80 27.5 146.5t76 115.5t115.5 76t146 27q69 0 129.5 -21t105.5 -60.5t70.5 -97
t25.5 -131.5q0 -45 -11 -93.5t-39 -85.5q-21 -27 -53.5 -46.5t-67.5 -19.5q-3 0 -14 1t-24 7.5t-24.5 19.5t-16.5 37q-22 -31 -55.5 -51t-75.5 -20q-29 0 -56 10.5t-47.5 31.5t-32.5 52.5t-12 73.5q0 52 17 91.5t43.5 66t59 40t64.5 13.5q8 0 22.5 -2t31 -8.5t31.5 -20
t24 -36.5zM360 223q22 0 42.5 10t36 29t25 45t9.5 57q0 6 -1.5 20.5t-9.5 30t-23.5 27.5t-44.5 12q-21 0 -41 -9t-35.5 -26t-25 -42.5t-9.5 -58.5q0 -48 23 -71.5t54 -23.5z" />
    <glyph glyph-name="A" unicode="A" horiz-adv-x="688" 
d="M494 170h-297l-77 -170h-116l348 740l332 -740h-116zM452 270l-104 236l-108 -236h212z" />
    <glyph glyph-name="B" unicode="B" horiz-adv-x="546" 
d="M186 700q42 0 86.5 -4t86.5 -33q32 -22 55.5 -60t23.5 -98q0 -29 -11 -63t-51 -65q33 -10 56 -28.5t38 -41.5t21.5 -49t6.5 -50q0 -15 -3 -35.5t-10.5 -42t-21.5 -42.5t-35 -39q-23 -19 -48 -29t-49.5 -14.5t-47.5 -5t-42 -0.5h-161v700h106zM188 399h32q9 0 28 1.5
t38 11.5t33.5 30.5t14.5 59.5q0 36 -14 56t-32 29t-36.5 11t-27.5 2h-36v-201zM188 100h64q43 0 70 10t42 26t20.5 34.5t5.5 35.5q0 18 -6 36.5t-21 34t-41.5 25t-67.5 9.5h-66v-211z" />
    <glyph glyph-name="C" unicode="C" horiz-adv-x="646" 
d="M600 536q-28 27 -55.5 42.5t-52.5 23.5t-46 10t-35 2q-57 0 -103.5 -20t-79 -55.5t-50.5 -84.5t-18 -107q0 -56 18.5 -103.5t51.5 -82.5t79.5 -55t101.5 -20q12 0 32 2t45 10.5t53.5 24.5t58.5 44v-128q-8 -5 -24.5 -14t-40.5 -17.5t-56 -15t-71 -6.5q-22 0 -51 3
t-61.5 13.5t-67 29.5t-68.5 51q-51 49 -81.5 113.5t-30.5 150.5q0 68 24.5 141t87.5 133q55 53 118 73t135 20q68 0 111.5 -15t75.5 -37v-126z" />
    <glyph glyph-name="D" unicode="D" horiz-adv-x="670" 
d="M227 700q38 0 72 -2.5t66 -9.5t62 -20.5t60 -35.5q43 -32 69.5 -70t41 -76t19.5 -73.5t5 -63.5q0 -88 -36 -160.5t-105 -121.5q-61 -43 -121.5 -55t-134.5 -12h-145v700h147zM188 100h45q21 0 44 1t47 6t48 15t47 28q44 33 67.5 85t23.5 114q0 60 -22.5 114.5t-67.5 87.5
q-23 17 -47.5 27t-49 15t-47.5 6t-43 1h-45v-500z" />
    <glyph glyph-name="E" unicode="E" horiz-adv-x="518" 
d="M466 600h-278v-168h270v-100h-270v-232h278v-100h-386v700h386v-100z" />
    <glyph glyph-name="F" unicode="F" horiz-adv-x="466" 
d="M430 600h-242v-168h234v-100h-234v-332h-108v700h350v-100z" />
    <glyph glyph-name="G" unicode="G" horiz-adv-x="780" 
d="M444 364h288v-22q0 -51 -10.5 -108t-52.5 -116q-14 -19 -36 -42.5t-54 -43t-75 -33t-98 -13.5q-85 0 -146 28.5t-106 73.5q-58 58 -82 124.5t-24 136.5t24 137t76 121q31 33 65 53.5t68.5 32.5t68 16.5t62.5 4.5q39 0 72 -6.5t59.5 -16.5t47 -22t34.5 -22q23 -17 42 -35
t35 -41l-76 -72q-8 12 -24.5 31.5t-43 38t-62.5 32t-84 13.5q-55 0 -101.5 -20t-80 -55.5t-52 -84t-18.5 -105.5q0 -58 20 -106.5t53.5 -83t79 -54t96.5 -19.5q42 0 77.5 13.5t62.5 37.5t45 56.5t24 70.5h-174v100z" />
    <glyph glyph-name="H" unicode="H" horiz-adv-x="674" 
d="M188 426h298v274h108v-700h-108v326h-298v-326h-108v700h108v-274z" />
    <glyph glyph-name="I" unicode="I" horiz-adv-x="268" 
d="M188 700v-700h-108v700h108z" />
    <glyph glyph-name="J" unicode="J" horiz-adv-x="376" 
d="M296 700v-453q0 -43 -4 -83t-22 -77q-25 -51 -68.5 -76t-95.5 -25q-51 0 -82 14t-42 22l52 90q17 -14 36.5 -20t36.5 -6q18 0 30.5 5.5t21 13.5t13 16t6.5 12t3.5 10.5t3 19t2.5 32.5t1 51v454h108z" />
    <glyph glyph-name="K" unicode="K" horiz-adv-x="610" 
d="M188 421l270 279h140l-316 -317l318 -383h-142l-270 336v-336h-108v700h108v-279z" />
    <glyph glyph-name="L" unicode="L" horiz-adv-x="408" 
d="M188 700v-600h204v-100h-312v700h108z" />
    <glyph glyph-name="M" unicode="M" horiz-adv-x="888" 
d="M60 0l147 752l243 -542l246 542l132 -752h-110l-70 422l-204 -454l-201 455l-73 -423h-110z" />
    <glyph glyph-name="N" unicode="N" horiz-adv-x="774" 
d="M80 0v746l506 -530v484h108v-742l-506 530v-488h-108z" />
    <glyph glyph-name="O" unicode="O" horiz-adv-x="824" 
d="M412 714q78 0 145 -28t115.5 -77t76 -116t27.5 -144q0 -76 -27.5 -142.5t-76 -115.5t-115 -77t-145.5 -28t-145.5 28t-115 77t-76 115.5t-27.5 142.5q0 77 27.5 144t76 116t115.5 77t145 28zM412 86q56 0 102 19.5t79.5 54.5t52 83t18.5 106t-18.5 106.5t-52 84t-79.5 55
t-102 19.5q-55 0 -101.5 -19.5t-80 -55t-52 -84t-18.5 -106.5t18.5 -106t52 -83t80 -54.5t101.5 -19.5z" />
    <glyph glyph-name="P" unicode="P" horiz-adv-x="498" 
d="M234 700q35 0 74 -6t79 -32q26 -17 43 -38.5t27 -44t13.5 -45t3.5 -42.5q0 -55 -21 -92.5t-47 -60.5q-42 -35 -87.5 -45t-83.5 -10h-47v-284h-108v700h154zM188 384h47q18 0 40.5 3.5t42.5 14.5t34 32.5t14 58.5q0 38 -15.5 59.5t-36.5 32t-43.5 13t-36.5 2.5h-46v-216z
" />
    <glyph glyph-name="Q" unicode="Q" horiz-adv-x="826" 
d="M609 39q-40 -26 -84 -39.5t-107 -13.5q-97 0 -167 33.5t-115 86t-66.5 117t-21.5 126.5q0 77 27.5 144t76.5 116t115.5 77t145.5 28q78 0 145 -28t115.5 -77t76 -116t27.5 -144q0 -48 -9.5 -87t-24 -69.5t-31.5 -54t-32 -39.5l114 -113h-134zM606 171q24 29 41.5 70.5
t17.5 107.5q0 58 -18.5 106.5t-52 84t-80 55t-101.5 19.5t-101.5 -19.5t-80.5 -55t-52.5 -84t-18.5 -106.5t18.5 -106.5t52.5 -83t80.5 -54t101.5 -19.5q40 0 67.5 8t50.5 21l-164 162h134z" />
    <glyph glyph-name="R" unicode="R" horiz-adv-x="556" 
d="M205 700q43 0 92 -6t93 -35q25 -17 41 -38.5t25.5 -44t13 -44t3.5 -38.5q0 -75 -43.5 -127t-112.5 -68l219 -299h-130l-200 287h-18v-287h-108v700h125zM188 379h33q11 0 35 2t48 13t42.5 34t18.5 65q0 38 -15 59t-36.5 32t-46 13.5t-43.5 2.5h-36v-221z" />
    <glyph glyph-name="S" unicode="S" horiz-adv-x="539" 
d="M385 545q-11 26 -32 44q-17 14 -34 19.5t-39 5.5q-42 0 -71 -21.5t-29 -61.5q0 -18 7 -32t18 -24.5t24.5 -17.5t25.5 -12l70 -28q26 -10 55 -26t54 -40t41 -58.5t16 -82.5q0 -49 -17 -90.5t-47 -71t-71.5 -46t-91.5 -16.5q-103 0 -165 71q-18 20 -36 54t-23 82l106 23
q1 -26 9 -49t21 -40q19 -25 41 -33t49 -8q30 0 52.5 10t36.5 26.5t21 37.5t7 43q0 26 -9.5 45.5t-24.5 33.5t-32.5 23.5t-34.5 16.5l-67 29q-27 12 -52.5 27t-45.5 36t-32.5 49t-12.5 65q0 42 16.5 76.5t45 59t65.5 37.5t78 13q55 0 87.5 -15.5t52.5 -32.5q12 -11 26.5 -28
t27.5 -43z" />
    <glyph glyph-name="T" unicode="T" horiz-adv-x="448" 
d="M278 600v-600h-108v600h-160v100h428v-100h-160z" />
    <glyph glyph-name="U" unicode="U" horiz-adv-x="678" 
d="M188 700v-422q0 -29 3 -61t18 -60q16 -29 48.5 -50t81.5 -21q41 0 75.5 17t54.5 54q15 29 18 60t3 61v422h108v-450q0 -42 -12.5 -89.5t-52.5 -92.5q-28 -31 -75 -56.5t-119 -25.5t-119 25.5t-75 56.5q-40 45 -52.5 92.5t-12.5 89.5v450h108z" />
    <glyph glyph-name="V" unicode="V" horiz-adv-x="630" 
d="M120 700l195 -488l195 488h116l-311 -744l-311 744h116z" />
    <glyph glyph-name="W" unicode="W" horiz-adv-x="986" 
d="M120 700l184 -468l189 502l183 -502l190 468h116l-313 -744l-182 495l-185 -495l-298 744h116z" />
    <glyph glyph-name="X" unicode="X" horiz-adv-x="572" 
d="M230 365l-193 335h120l136 -237l140 237h120l-202 -335l211 -365h-120l-153 268l-159 -268h-120z" />
    <glyph glyph-name="Y" unicode="Y" horiz-adv-x="566" 
d="M229 302l-229 398h120l163 -282l163 282h120l-229 -398v-302h-108v302z" />
    <glyph glyph-name="Z" unicode="Z" horiz-adv-x="578" 
d="M204 100h336v-100h-510l344 600h-288v100h462z" />
    <glyph glyph-name="bracketleft" unicode="[" horiz-adv-x="326" 
d="M190 643v-761h90v-92h-192v945h192v-92h-90z" />
    <glyph glyph-name="backslash" unicode="\" horiz-adv-x="562" 
d="M478 -222l-400 928l84 38l400 -928z" />
    <glyph glyph-name="bracketright" unicode="]" horiz-adv-x="326" 
d="M136 -118v761h-90v92h192v-945h-192v92h90z" />
    <glyph glyph-name="asciicircum" unicode="^" horiz-adv-x="524" 
d="M126 370h-110l180 330h132l180 -330h-110l-136 252z" />
    <glyph glyph-name="underscore" unicode="_" horiz-adv-x="420" 
d="M0 -58h420v-92h-420v92z" />
    <glyph glyph-name="grave" unicode="`" horiz-adv-x="512" 
d="M86 660l94 48l126 -164l-56 -36z" />
    <glyph glyph-name="a" unicode="a" horiz-adv-x="552" 
d="M490 442v-442h-102v46q-7 -8 -18 -18.5t-27.5 -19.5t-38 -15.5t-50.5 -6.5q-51 0 -90.5 20t-67 53t-42 75t-14.5 87t14 87t41.5 74.5t67.5 52t92 19.5q12 0 28.5 -2t34.5 -8.5t36 -19.5t34 -34v52h102zM270 362q-28 0 -51 -11t-39 -30.5t-25 -45.5t-9 -56
q0 -28 8.5 -53.5t24 -45t38.5 -31t53 -11.5q59 0 91.5 40.5t32.5 101.5q0 36 -10.5 62.5t-27.5 44t-39.5 26.5t-46.5 9z" />
    <glyph glyph-name="b" unicode="b" horiz-adv-x="552" 
d="M164 390q16 21 34 34t36 19.5t34.5 8.5t28.5 2q52 0 92 -19.5t67.5 -52t41.5 -74.5t14 -87q0 -55 -18 -98.5t-48 -74t-68.5 -46.5t-80.5 -16q-28 0 -49.5 6.5t-38 15.5t-27.5 19.5t-18 18.5v-46h-102v735h102v-345zM283 362q-24 0 -46.5 -8.5t-40 -26.5t-28 -45
t-10.5 -64q0 -29 8.5 -54.5t24 -44.5t39 -30t53.5 -11q29 0 52 11.5t39 30.5t24 45t8 54q0 30 -9 56t-25 45.5t-38.5 30.5t-50.5 11z" />
    <glyph glyph-name="c" unicode="c" horiz-adv-x="438" 
d="M406 288q-21 35 -55.5 54.5t-72.5 19.5q-24 0 -48 -9t-42.5 -27t-30 -44.5t-11.5 -61.5q0 -29 9 -54.5t25.5 -45t41 -31t55.5 -11.5q29 0 51.5 9t38 21.5t25.5 25t14 19.5v-134q-34 -20 -65 -26.5t-57 -6.5q-57 0 -101.5 16.5t-79.5 51.5t-49 76t-14 88q0 63 21.5 106
t50.5 70q35 33 75.5 46.5t90.5 13.5q47 0 77 -9.5t51 -22.5v-134z" />
    <glyph glyph-name="d" unicode="d" horiz-adv-x="552" 
d="M388 735h102v-735h-102v46q-6 -7 -17 -17.5t-27.5 -20t-39.5 -16t-53 -6.5q-49 0 -88 19.5t-66.5 52.5t-42 75.5t-14.5 88.5q0 44 14 85.5t41.5 74t67.5 52.5t92 20q12 0 28.5 -2t34.5 -8.5t36 -19.5t34 -34v345zM269 362q-28 0 -50.5 -11t-38.5 -30.5t-25 -46t-9 -56.5
q0 -28 8.5 -53.5t24 -44.5t38.5 -30.5t52 -11.5q30 0 53.5 11t39 30t24 44.5t8.5 54.5q0 37 -10.5 64t-28 45t-40 26.5t-46.5 8.5z" />
    <glyph glyph-name="e" unicode="e" horiz-adv-x="506" 
d="M466 115q-11 -20 -25.5 -39.5t-32.5 -35.5q-20 -18 -42.5 -28.5t-43.5 -16.5t-39 -7.5t-29 -1.5q-38 0 -76.5 13.5t-69 42t-49.5 72.5t-19 104q0 53 15 96.5t43 74.5t67 48t88 17q60 0 102 -23t66 -58q20 -30 30.5 -73t10.5 -88v-16h-316q1 -30 12 -52.5t28 -37t38 -21.5
t41 -7q21 0 38.5 6.5t31.5 17.5q3 2 18 17t27 44zM357 280q-9 38 -36.5 60t-65.5 22q-37 0 -65 -22.5t-38 -59.5h205z" />
    <glyph glyph-name="f" unicode="f" horiz-adv-x="284" 
d="M178 350v-350h-102v350h-56v92h56v140q0 15 1 32.5t5.5 35t14 34.5t25.5 31q17 15 41 24t53 9q20 0 37 -4t37 -12v-104q-17 9 -34.5 14.5t-31.5 5.5t-22.5 -4.5t-13.5 -11.5q-3 -5 -6.5 -15.5t-3.5 -34.5v-140h112v-92h-112z" />
    <glyph glyph-name="g" unicode="g" horiz-adv-x="552" 
d="M388 442h102v-423q0 -17 -0.5 -37t-4.5 -41t-12.5 -42t-24.5 -42q-23 -29 -49 -45.5t-51 -24.5t-45.5 -9.5t-32.5 -1.5q-38 0 -73 10t-63.5 30t-49 50.5t-30.5 72.5h102q11 -29 37.5 -50t77.5 -21q41 0 64 14t35 34t15 40.5t3 34.5v58q-7 -8 -18 -19t-27.5 -21t-38 -16.5
t-50.5 -6.5q-51 0 -90.5 19.5t-67 52.5t-42 75.5t-14.5 87.5q0 44 14 86t41 74.5t67.5 52.5t93.5 20q13 0 29 -2t33.5 -8.5t35.5 -18t34 -31.5v48zM269 362q-28 0 -51 -11t-39 -30.5t-24.5 -45t-8.5 -54.5q0 -30 8.5 -56t24 -45.5t38.5 -30.5t52 -11q30 0 53.5 11t39 30
t24 44.5t8.5 54.5q0 37 -10.5 64t-28 45t-40 26.5t-46.5 8.5z" />
    <glyph glyph-name="h" unicode="h" horiz-adv-x="504" 
d="M62 735h102v-331q29 32 61 41t58 9q30 0 53 -7t38.5 -16.5t25.5 -19.5t14 -17q21 -31 24.5 -64.5t3.5 -58.5v-271h-102v261q0 23 -2 41t-18 36q-11 14 -25.5 19t-33.5 5q-29 0 -48 -12t-28 -26q-14 -21 -17.5 -51.5t-3.5 -59.5v-213h-102v735z" />
    <glyph glyph-name="i" unicode="i" horiz-adv-x="226" 
d="M164 442v-442h-102v442h102zM47 624q0 27 19.5 46.5t46.5 19.5t46.5 -19.5t19.5 -46.5t-19.5 -46.5t-46.5 -19.5t-46.5 19.5t-19.5 46.5z" />
    <glyph glyph-name="j" unicode="j" horiz-adv-x="226" 
d="M164 442v-652h-102v652h102zM47 624q0 27 19.5 46.5t46.5 19.5t46.5 -19.5t19.5 -46.5t-19.5 -46.5t-46.5 -19.5t-46.5 19.5t-19.5 46.5z" />
    <glyph glyph-name="k" unicode="k" horiz-adv-x="460" 
d="M164 735v-445l146 152h134l-189 -184l203 -258h-130l-164 212v-212h-102v735h102z" />
    <glyph glyph-name="l" unicode="l" horiz-adv-x="226" 
d="M164 735v-735h-102v735h102z" />
    <glyph glyph-name="m" unicode="m" horiz-adv-x="730" 
d="M62 442h102v-41q23 29 50.5 41t59.5 12q8 0 22 -1.5t30.5 -8t33 -20t28.5 -36.5q14 21 30.5 33.5t34 20t35 10t31.5 2.5q49 0 79 -20.5t47 -49.5q8 -14 15.5 -38.5t7.5 -72.5v-273h-102v243q0 38 -3.5 55t-5.5 24q-8 19 -22 29.5t-37 10.5q-26 0 -41 -12t-21 -22
q-5 -7 -12.5 -29t-7.5 -71v-228h-102v243q0 17 -2.5 41t-7.5 38q-8 22 -23 31t-36 9q-23 0 -38 -10t-24 -24q-13 -20 -16 -46.5t-3 -53.5v-228h-102v442z" />
    <glyph glyph-name="n" unicode="n" horiz-adv-x="504" 
d="M62 442h102v-41q15 17 43 35t78 18q48 0 80.5 -18t49.5 -42q19 -28 23 -62.5t4 -60.5v-271h-102v246q0 16 -1 36t-8.5 38t-24 30t-48.5 12q-33 0 -52 -13.5t-28 -35.5t-11.5 -48.5t-2.5 -52.5v-212h-102v442z" />
    <glyph glyph-name="o" unicode="o" horiz-adv-x="552" 
d="M276 454q50 0 93.5 -17.5t75 -48.5t49.5 -74t18 -94t-18 -93.5t-49.5 -74t-75 -49t-93.5 -17.5t-93.5 17.5t-75 49t-49.5 74t-18 93.5t18 94t49.5 74t75 48.5t93.5 17.5zM276 78q24 0 47 8t41.5 25t30 43.5t11.5 64.5q0 39 -11.5 66t-30 44t-42 25t-46.5 8t-46.5 -8
t-42 -25t-30 -44t-11.5 -66q0 -38 11.5 -64.5t30 -43.5t41.5 -25t47 -8z" />
    <glyph glyph-name="p" unicode="p" horiz-adv-x="552" 
d="M164 394q16 19 34 30.5t36 18t34.5 9t29.5 2.5q43 0 82 -16.5t68 -46.5t46.5 -73t17.5 -96q0 -54 -18.5 -98t-49 -74.5t-68.5 -47t-77 -16.5q-9 0 -24.5 2t-34.5 9t-39 20t-37 34v-261h-102v652h102v-48zM283 362q-24 0 -46.5 -9t-40 -27t-28 -45t-10.5 -62
q0 -28 8 -53.5t24 -45t39 -31t54 -11.5q29 0 52 11t38.5 30.5t24 45.5t8.5 56q0 35 -10.5 61t-27.5 44t-39.5 27t-45.5 9z" />
    <glyph glyph-name="q" unicode="q" horiz-adv-x="552" 
d="M388 442h102v-652h-102v259q-29 -37 -65.5 -50t-70.5 -13q-50 0 -89.5 19.5t-66.5 52.5t-41.5 75.5t-14.5 87.5q0 44 14 86t41.5 74.5t67.5 52.5t92 20q27 0 48.5 -6t38 -15t28 -19.5t18.5 -19.5v48zM269 362q-28 0 -51 -11t-39 -30t-24.5 -45t-8.5 -56t8.5 -56t24 -45
t38.5 -30t52 -11q25 0 47.5 8.5t40 26t27.5 44t10 61.5q0 37 -10.5 64t-28 45t-40 26.5t-46.5 8.5z" />
    <glyph glyph-name="r" unicode="r" horiz-adv-x="346" 
d="M62 442h102v-40q16 20 41.5 36t63.5 16q19 0 41 -6t42 -20l-46 -93q-14 12 -29.5 16.5t-28.5 4.5q-27 0 -42.5 -11.5t-23.5 -23.5q-13 -20 -15.5 -45t-2.5 -46v-230h-102v442z" />
    <glyph glyph-name="s" unicode="s" horiz-adv-x="374" 
d="M235 322q-5 16 -17.5 28t-31.5 12q-1 0 -6.5 -0.5t-11.5 -3t-11 -8.5t-5 -17q0 -19 15 -29t44 -24q17 -8 41 -19.5t43 -25.5q34 -25 43.5 -50.5t9.5 -48.5q0 -38 -15 -66t-38 -47t-52 -28t-56 -9q-47 0 -90 26.5t-63 83.5l86 39q2 -7 7 -17t13.5 -19t21.5 -15t31 -6
q24 0 36.5 13t12.5 35q0 19 -10 31t-36 25q-23 11 -46 21t-42 22q-26 17 -39 38t-13 59q0 26 8.5 50t25.5 42t43 29t61 11q9 0 25 -2t34 -10.5t36 -26t31 -48.5z" />
    <glyph glyph-name="t" unicode="t" horiz-adv-x="252" 
d="M170 350v-350h-102v350h-44v92h44v158h102v-158h78v-92h-78z" />
    <glyph glyph-name="u" unicode="u" horiz-adv-x="502" 
d="M164 442v-254q0 -20 2.5 -41t16.5 -39q11 -14 27.5 -22t40.5 -8t40.5 8t27.5 22q14 18 16.5 39t2.5 41v254h102v-256q0 -39 -7 -75t-40 -70q-17 -18 -37.5 -29t-40 -16.5t-37 -7.5t-29.5 -2q-10 0 -26.5 2t-36 7.5t-39.5 16.5t-38 29q-33 34 -40 70t-7 75v256h102z" />
    <glyph glyph-name="v" unicode="v" horiz-adv-x="470" 
d="M122 442l113 -252l113 252h116l-229 -472l-229 472h116z" />
    <glyph glyph-name="w" unicode="w" horiz-adv-x="720" 
d="M236 -30l-230 472h116l114 -252l124 290l124 -290l114 252h116l-230 -472l-124 282z" />
    <glyph glyph-name="x" unicode="x" horiz-adv-x="520" 
d="M132 0h-126l195 239l-157 203h122l97 -129l99 129h126l-163 -203l189 -239h-124l-127 165z" />
    <glyph glyph-name="y" unicode="y" horiz-adv-x="506" 
d="M203 82l-197 360h124l130 -249l124 249h116l-335 -652h-116z" />
    <glyph glyph-name="z" unicode="z" horiz-adv-x="502" 
d="M210 94h262v-94h-464l286 347h-226v95h426z" />
    <glyph glyph-name="braceleft" unicode="{" horiz-adv-x="512" 
d="M295 387q0 -17 -2 -39.5t-10 -38.5q-6 -12 -14.5 -21t-16.5 -15t-14.5 -9.5t-7.5 -3.5q1 0 7.5 -3.5t14.5 -9.5t16.5 -15t14.5 -21q8 -16 10 -38.5t2 -39.5v-155q0 -11 2.5 -32.5t15.5 -34.5t35 -15t40 -2h8v-88h-49q-26 0 -55.5 4t-52.5 21q-30 22 -38 53.5t-8 66.5v180
q0 11 -2 24.5t-8 26t-17.5 22.5t-31.5 14v84q20 4 31.5 14t17.5 22.5t8 26t2 24.5v180q0 35 8 66.5t38 53.5q23 17 52.5 21t55.5 4h49v-88h-8q-18 0 -40 -2t-35 -15t-15.5 -34.5t-2.5 -32.5v-155z" />
    <glyph glyph-name="bar" unicode="|" horiz-adv-x="504" 
d="M202 787h100v-1049h-100v1049z" />
    <glyph glyph-name="braceright" unicode="}" horiz-adv-x="512" 
d="M235 133q0 17 2 39.5t10 38.5q6 12 14.5 21t16.5 15t14.5 9.5t7.5 3.5q-1 0 -7.5 3.5t-14.5 9.5t-16.5 15t-14.5 21q-8 16 -10 38.5t-2 39.5v155q0 11 -2.5 32.5t-15.5 34.5t-35 15t-40 2h-8v88h49q26 0 55.5 -4t52.5 -21q30 -22 38 -53.5t8 -66.5v-180q0 -11 2 -24.5
t8 -26t17.5 -22.5t31.5 -14v-84q-20 -4 -31.5 -14t-17.5 -22.5t-8 -26t-2 -24.5v-180q0 -35 -8 -66.5t-38 -53.5q-23 -17 -52.5 -21t-55.5 -4h-49v88h8q18 0 40 2t35 15t15.5 34.5t2.5 32.5v155z" />
    <glyph glyph-name="asciitilde" unicode="~" horiz-adv-x="692" 
d="M600 403q-18 -45 -38 -67.5t-31 -30.5q-14 -11 -34.5 -20t-52.5 -9t-61 11t-57 22q-45 18 -63.5 23t-27.5 5q-13 0 -27.5 -5.5t-26.5 -17.5q-8 -8 -16.5 -21t-13.5 -27l-59 38q16 36 29.5 56t23.5 31q17 18 40 31t56 13q18 0 45.5 -6.5t69.5 -25.5q23 -11 47 -20t51 -9
q18 0 29.5 4.5t22.5 13.5q9 8 18 20t16 25z" />
    <glyph glyph-name="currency" unicode="&#xa4;" horiz-adv-x="698" 
d="M199 589q43 33 82.5 41.5t67.5 8.5t67.5 -8.5t82.5 -41.5l104 104l57 -57l-104 -104q29 -38 38 -76.5t9 -70.5t-9 -70t-38 -76l104 -104l-57 -57l-104 104q-42 -34 -82.5 -42.5t-67.5 -8.5t-67.5 8.5t-82.5 42.5l-104 -104l-57 57l104 104q-29 38 -38 76t-9 70t9 70.5
t38 76.5l-104 104l57 57zM349 221q34 0 63 12t50.5 34t34 52t12.5 66t-12.5 66t-34 52t-50.5 34t-63 12t-63 -12t-50.5 -34t-34 -52t-12.5 -66t12.5 -66t34 -52t50.5 -34t63 -12z" />
    <glyph glyph-name="brokenbar" unicode="&#xa6;" horiz-adv-x="504" 
d="M202 787h100v-378h-100v378zM202 115h100v-377h-100v377z" />
    <glyph glyph-name="section" unicode="&#xa7;" horiz-adv-x="588" 
d="M404 534q2 11 -0.5 32t-16.5 44t-33.5 32.5t-43.5 9.5q-25 0 -44 -9t-31.5 -23t-18.5 -31t-6 -34q0 -19 6.5 -32.5t17.5 -23.5t24.5 -16.5t26.5 -11.5q24 -9 45 -16t40.5 -14.5t37.5 -17t36 -23.5q20 -16 32 -34t18 -35t8 -33t2 -29q0 -62 -29.5 -102t-69.5 -60
q27 -13 42.5 -31t23.5 -37t10.5 -37t2.5 -32q0 -45 -15.5 -80.5t-42 -60t-62.5 -37.5t-78 -13q-63 0 -110 27t-72 80q-8 18 -14.5 41.5t-5.5 55.5h100q-2 -35 17 -64q13 -20 33.5 -32t51.5 -12q26 0 44 8t29.5 21.5t17 30t5.5 34.5q0 38 -32 65q-19 17 -43.5 26t-50.5 17
q-5 2 -18 6.5t-28.5 11.5t-32 16t-29.5 19q-21 17 -39.5 51.5t-18.5 85.5q0 54 25.5 96t75.5 62q-13 7 -27.5 18.5t-27 28t-20.5 39t-8 51.5q0 42 15 76t41.5 58.5t63.5 38t81 13.5q18 0 39 -2.5t43 -11t43 -24.5t38 -43q17 -28 25.5 -63.5t6.5 -69.5h-100zM297 371
q-17 0 -35 -6t-32.5 -19t-24 -32.5t-9.5 -45.5q0 -45 28.5 -74t72.5 -29q45 0 73 29t28 74q0 26 -9.5 45.5t-24 32t-32.5 19t-35 6.5z" />
    <glyph glyph-name="copyright" unicode="&#xa9;" horiz-adv-x="792" 
d="M396 714q78 0 144.5 -28t115 -76.5t76 -115.5t27.5 -145t-27.5 -144t-76 -115t-115 -76.5t-144.5 -27.5t-144.5 27.5t-115 76.5t-76 115t-27.5 144t27.5 145t76 115.5t115 76.5t144.5 28zM396 660q-67 0 -122.5 -24t-95.5 -65.5t-62.5 -98.5t-22.5 -123t22.5 -122.5
t62.5 -98t95.5 -65t122.5 -23.5t122.5 23.5t95.5 65t62.5 98t22.5 122.5t-22.5 123t-62.5 98.5t-95.5 65.5t-122.5 24zM536 444q-28 26 -60 39t-64 13q-31 0 -58 -11t-46.5 -30.5t-30.5 -47t-11 -59.5q0 -65 41 -104.5t106 -39.5q26 0 57 10.5t66 42.5v-92
q-38 -21 -69.5 -27t-54.5 -6q-48 0 -89.5 16.5t-72 45t-47.5 68.5t-17 86q0 48 17 88.5t48 70t73 45.5t92 16q23 0 52 -5t68 -28v-91z" />
    <glyph glyph-name="guillemotleft" unicode="&#xab;" horiz-adv-x="530" 
d="M280 50l-68 -48l-172 226l172 226l68 -48l-136 -178zM476 50l-68 -48l-172 226l172 226l68 -48l-136 -178z" />
    <glyph glyph-name="logicalnot" unicode="&#xac;" horiz-adv-x="522" 
d="M387 0v188h-354v92h456v-280h-102z" />
    <glyph glyph-name="registered" unicode="&#xae;" horiz-adv-x="792" 
d="M396 714q78 0 144.5 -28t115 -76.5t76 -115.5t27.5 -145t-27.5 -144t-76 -115t-115 -76.5t-144.5 -27.5t-144.5 27.5t-115 76.5t-76 115t-27.5 144t27.5 145t76 115.5t115 76.5t144.5 28zM396 660q-67 0 -122.5 -24t-95.5 -65.5t-62.5 -98.5t-22.5 -123t22.5 -122.5
t62.5 -98t95.5 -65t122.5 -23.5t122.5 23.5t95.5 65t62.5 98t22.5 122.5t-22.5 123t-62.5 98.5t-95.5 65.5t-122.5 24zM365 561q17 0 42.5 -3t49.5 -16t41 -38t17 -70q0 -48 -25.5 -78t-66.5 -38l140 -177h-90l-124 166h-20v-166h-72v420h108zM329 373h27q11 0 26 1.5
t28.5 7.5t23 18t9.5 34q0 23 -9.5 35.5t-23 18t-28 6.5t-24.5 1h-29v-122z" />
    <glyph glyph-name="degree" unicode="&#xb0;" horiz-adv-x="512" 
d="M104 548q0 32 12 59.5t32.5 48t48 32.5t59.5 12t59.5 -12t48 -32.5t32.5 -48t12 -59.5t-12 -59.5t-32.5 -48t-48 -32.5t-59.5 -12t-59.5 12t-48 32.5t-32.5 48t-12 59.5zM168 548q0 -41 25 -66.5t63 -25.5t63 25.5t25 66.5t-25 66.5t-63 25.5t-63 -25.5t-25 -66.5z" />
    <glyph glyph-name="plusminus" unicode="&#xb1;" horiz-adv-x="522" 
d="M33 461h179v171h98v-171h179v-94h-179v-171h-98v171h-179v94zM33 156h456v-94h-456v94z" />
    <glyph glyph-name="mu" unicode="&#xb5;" horiz-adv-x="544" 
d="M62 -180v622h102v-215q0 -22 2.5 -46t16.5 -50q17 -32 41 -42.5t47 -10.5q20 0 35 6t25 14.5t16.5 18t10.5 15.5q14 23 18 45t4 56v209h102v-442h-102v77q-7 -25 -20.5 -42.5t-29.5 -28t-32.5 -15.5t-29.5 -5q-27 0 -57.5 18t-46.5 56v-240h-102z" />
    <glyph glyph-name="paragraph" unicode="&#xb6;" horiz-adv-x="642" 
d="M227 -102v435h-14q-43 0 -77.5 13t-59.5 37t-38.5 57t-13.5 73q0 60 28.5 105.5t85.5 65.5q15 5 43 10.5t77 5.5h312v-80h-69v-722h-86v722h-102v-722h-86z" />
    <glyph glyph-name="periodcentered" unicode="&#xb7;" horiz-adv-x="233" 
d="M34 357q0 34 24 58t58 24t58 -24t24 -58q0 -14 -5 -28.5t-15.5 -26.5t-25.5 -19.5t-36 -7.5t-36 7.5t-25.5 19.5t-15.5 26.5t-5 28.5z" />
    <glyph glyph-name="guillemotright" unicode="&#xbb;" horiz-adv-x="530" 
d="M250 406l68 48l172 -226l-172 -226l-68 48l136 178zM54 406l68 48l172 -226l-172 -226l-68 48l136 178z" />
    <glyph glyph-name="afii10023" unicode="&#x401;" horiz-adv-x="518" 
d="M466 600h-278v-168h270v-100h-270v-232h278v-100h-386v700h386v-100zM104 834q0 27 19.5 46.5t46.5 19.5t46.5 -19.5t19.5 -46.5t-19.5 -46.5t-46.5 -19.5t-46.5 19.5t-19.5 46.5zM312 834q0 27 19.5 46.5t46.5 19.5t46.5 -19.5t19.5 -46.5t-19.5 -46.5t-46.5 -19.5
t-46.5 19.5t-19.5 46.5z" />
    <glyph glyph-name="afii10051" unicode="&#x402;" horiz-adv-x="730" 
d="M278 600v-187q36 5 68 6.5t67 1.5q34 0 78.5 -4.5t88.5 -28.5q32 -17 51.5 -40.5t31 -49t15.5 -51t4 -48.5q0 -49 -15.5 -88.5t-43.5 -67t-66 -42.5t-83 -15q-48 0 -82.5 11t-51.5 19l25 100q22 -12 52 -21t58 -9q44 0 71.5 29.5t27.5 80.5q0 26 -6 44t-15.5 30.5
t-20.5 20.5t-20 12q-27 13 -52.5 15.5t-51.5 2.5q-36 0 -67 -2t-63 -6v-313h-108v600h-160v100h500v-100h-232z" />
    <glyph glyph-name="afii10052" unicode="&#x403;" horiz-adv-x="444" 
d="M430 600h-242v-600h-108v700h350v-100zM186 802l146 148l90 -62l-186 -126z" />
    <glyph glyph-name="afii10053" unicode="&#x404;" horiz-adv-x="646" 
d="M600 536q-28 27 -56 42.5t-52.5 23.5t-45.5 10t-36 2q-37 0 -67 -7t-52.5 -17.5t-38.5 -24t-27 -25.5q-23 -26 -38.5 -61t-21.5 -70h341v-100h-344q1 -12 3.5 -28.5t9.5 -36t19 -40t31 -41.5q22 -24 46 -39t48.5 -23.5t48 -11.5t43.5 -3q50 0 98.5 19.5t90.5 59.5v-126
q-8 -5 -24.5 -14t-40.5 -17.5t-56 -15t-71 -6.5q-22 0 -51 3t-61.5 13.5t-67 29.5t-68.5 51q-60 57 -86 124.5t-26 141.5q0 82 29 152t83 121q55 51 118 71.5t135 20.5q68 0 111.5 -15t75.5 -37v-126z" />
    <glyph glyph-name="afii10054" unicode="&#x405;" horiz-adv-x="539" 
d="M385 545q-11 26 -32 44q-17 14 -34 19.5t-39 5.5q-42 0 -71 -21.5t-29 -61.5q0 -18 7 -32t18 -24.5t24.5 -17.5t25.5 -12l70 -28q26 -10 55 -26t54 -40t41 -58.5t16 -82.5q0 -49 -17 -90.5t-47 -71t-71.5 -46t-91.5 -16.5q-103 0 -165 71q-18 20 -36 54t-23 82l106 23
q1 -26 9 -49t21 -40q19 -25 41 -33t49 -8q30 0 52.5 10t36.5 26.5t21 37.5t7 43q0 26 -9.5 45.5t-24.5 33.5t-32.5 23.5t-34.5 16.5l-67 29q-27 12 -52.5 27t-45.5 36t-32.5 49t-12.5 65q0 42 16.5 76.5t45 59t65.5 37.5t78 13q55 0 87.5 -15.5t52.5 -32.5q12 -11 26.5 -28
t27.5 -43z" />
    <glyph glyph-name="afii10055" unicode="&#x406;" horiz-adv-x="268" 
d="M188 700v-700h-108v700h108z" />
    <glyph glyph-name="afii10056" unicode="&#x407;" horiz-adv-x="268" 
d="M188 700v-700h-108v700h108zM-3 834q0 24 17 41t41 17t41 -17t17 -41t-17 -41t-41 -17t-41 17t-17 41zM155 834q0 24 17 41t41 17t41 -17t17 -41t-17 -41t-41 -17t-41 17t-17 41z" />
    <glyph glyph-name="afii10057" unicode="&#x408;" horiz-adv-x="376" 
d="M296 700v-453q0 -43 -4 -83t-22 -77q-25 -51 -68.5 -76t-95.5 -25q-51 0 -82 14t-42 22l52 90q17 -14 36.5 -20t36.5 -6q18 0 30.5 5.5t21 13.5t13 16t6.5 12t3.5 10.5t3 19t2.5 32.5t1 51v454h108z" />
    <glyph glyph-name="afii10058" unicode="&#x409;" horiz-adv-x="942" 
d="M490 600h-231v-349q0 -30 -2 -60t-9 -57.5t-21 -52t-39 -45.5q-19 -16 -49 -29t-74 -13q-28 0 -51 6v100q6 -2 15.5 -4t19.5 -2q18 0 37 6.5t30 16.5q13 12 20 31.5t10.5 42.5t4 47t0.5 45v417h447v-282h78q67 0 109.5 -17.5t66.5 -38.5q29 -26 47.5 -66t18.5 -87
q0 -19 -4 -42t-14 -46t-26.5 -44.5t-42.5 -38.5q-39 -26 -79 -32t-74 -6h-188v600zM598 100h74q10 0 33 1.5t46 11.5t41 32t18 62q0 12 -3.5 31t-17.5 36.5t-41 30.5t-74 13h-76v-218z" />
    <glyph glyph-name="afii10059" unicode="&#x40a;" horiz-adv-x="938" 
d="M486 318h-298v-318h-108v700h108v-282h298v282h108v-282h78q67 0 109.5 -17.5t66.5 -38.5q29 -26 47.5 -66t18.5 -87q0 -19 -4 -42t-14 -46t-26.5 -44.5t-42.5 -38.5q-39 -26 -79 -32t-74 -6h-188v318zM594 100h74q10 0 33 1.5t46 11.5t41 32t18 62q0 12 -3.5 31
t-17.5 36.5t-41 30.5t-74 13h-76v-218z" />
    <glyph glyph-name="afii10060" unicode="&#x40b;" horiz-adv-x="721" 
d="M279 600v-187q35 4 67.5 5.5t67.5 1.5q44 0 92.5 -7t85.5 -36q25 -19 39 -43t20.5 -48t8 -44.5t1.5 -34.5v-207h-108v191q0 12 -0.5 26t-4 28.5t-11 28t-21.5 24.5q-18 14 -46.5 18t-65.5 4q-35 0 -66 -2t-59 -5v-313h-108v600h-161v100h501v-100h-232z" />
    <glyph glyph-name="afii10061" unicode="&#x40c;" horiz-adv-x="610" 
d="M188 421l270 279h140l-316 -317l318 -383h-142l-270 336v-336h-108v700h108v-279zM229 802l146 148l90 -62l-186 -126z" />
    <glyph glyph-name="afii10062" unicode="&#x40e;" horiz-adv-x="598" 
d="M136 700l183 -363l161 363h112l-316 -700h-112l94 209l-252 491h130zM219 910q8 -29 33 -43.5t56 -14.5t56 14.5t33 43.5l84 -37q-20 -48 -63.5 -77.5t-109.5 -29.5t-109.5 29.5t-63.5 77.5z" />
    <glyph glyph-name="afii10145" unicode="&#x40f;" horiz-adv-x="664" 
d="M80 700h108v-600h288v600h108v-700h-202v-190h-100v190h-202v700z" />
    <glyph glyph-name="afii10017" unicode="&#x410;" horiz-adv-x="688" 
d="M494 170h-297l-77 -170h-116l348 740l332 -740h-116zM452 270l-104 236l-108 -236h212z" />
    <glyph glyph-name="afii10018" unicode="&#x411;" horiz-adv-x="546" 
d="M80 700h351v-100h-243v-182h68q20 0 42 -2t45 -8t45.5 -17t43.5 -29q29 -26 47.5 -66t18.5 -88q0 -19 -4 -41.5t-14 -45.5t-26.5 -44.5t-42.5 -38.5q-39 -26 -79 -32t-74 -6h-178v700zM188 100h64q10 0 33 1.5t46 11.5t41 32t18 62q0 12 -3.5 31t-17.5 36.5t-41 30.5
t-74 13h-66v-218z" />
    <glyph glyph-name="afii10019" unicode="&#x412;" horiz-adv-x="546" 
d="M186 700q42 0 86.5 -4t86.5 -33q32 -22 55.5 -60t23.5 -98q0 -29 -11 -63t-51 -65q33 -10 56 -28.5t38 -41.5t21.5 -49t6.5 -50q0 -15 -3 -35.5t-10.5 -42t-21.5 -42.5t-35 -39q-23 -19 -48 -29t-49.5 -14.5t-47.5 -5t-42 -0.5h-161v700h106zM188 399h32q9 0 28 1.5
t38 11.5t33.5 30.5t14.5 59.5q0 36 -14 56t-32 29t-36.5 11t-27.5 2h-36v-201zM188 100h64q43 0 70 10t42 26t20.5 34.5t5.5 35.5q0 18 -6 36.5t-21 34t-41.5 25t-67.5 9.5h-66v-211z" />
    <glyph glyph-name="afii10020" unicode="&#x413;" horiz-adv-x="444" 
d="M430 600h-242v-600h-108v700h350v-100z" />
    <glyph glyph-name="afii10021" unicode="&#x414;" horiz-adv-x="680" 
d="M588 700v-600h78v-258h-100v158h-452v-158h-100v258q38 1 66 27t45 68q13 33 19 75.5t6 108.5v321h438zM258 378q0 -82 -8.5 -127t-16.5 -68q-19 -51 -55 -83h302v500h-222v-222z" />
    <glyph glyph-name="afii10022" unicode="&#x415;" horiz-adv-x="518" 
d="M466 600h-278v-168h270v-100h-270v-232h278v-100h-386v700h386v-100z" />
    <glyph glyph-name="afii10024" unicode="&#x416;" horiz-adv-x="888" 
d="M498 414l249 286h130l-288 -321l295 -379h-134l-252 330v-330h-108v330l-252 -330h-134l295 379l-288 321h130l249 -286v286h108v-286z" />
    <glyph glyph-name="afii10025" unicode="&#x417;" horiz-adv-x="594" 
d="M78 611q45 54 94.5 78.5t117.5 24.5q56 0 93 -15t61 -35q35 -29 46.5 -62t11.5 -69q0 -31 -8 -55t-20.5 -42t-28 -30.5t-29.5 -20.5q66 -18 98 -66.5t32 -111.5q0 -53 -20 -96.5t-71 -77.5q-35 -23 -78 -35t-87 -12q-99 0 -162.5 45.5t-101.5 123.5l94 49
q17 -41 41.5 -64.5t51 -35.5t50 -15t36.5 -3q20 0 45 5t45 18q32 20 40.5 45.5t8.5 45.5q0 41 -17 65t-42 36t-53.5 15.5t-52.5 3.5h-63v100h63q56 0 90.5 27.5t34.5 77.5q0 17 -5 32.5t-19 28.5q-19 18 -41 23t-42 5q-15 0 -32.5 -2t-36 -9.5t-37 -21.5t-36.5 -38z" />
    <glyph glyph-name="afii10026" unicode="&#x418;" horiz-adv-x="740" 
d="M552 472l-472 -502v730h108v-472l472 502v-730h-108v472z" />
    <glyph glyph-name="afii10027" unicode="&#x419;" horiz-adv-x="740" 
d="M552 472l-472 -502v730h108v-472l472 502v-730h-108v472zM281 910q8 -29 33 -43.5t56 -14.5t56 14.5t33 43.5l84 -37q-11 -28 -30 -48.5t-42 -33.5t-49 -19t-52 -6t-52 6t-49 19t-42 33.5t-30 48.5z" />
    <glyph glyph-name="afii10028" unicode="&#x41a;" horiz-adv-x="610" 
d="M188 421l270 279h140l-316 -317l318 -383h-142l-270 336v-336h-108v700h108v-279z" />
    <glyph glyph-name="afii10029" unicode="&#x41b;" horiz-adv-x="678" 
d="M598 700v-700h-108v600h-231v-349q0 -30 -2 -60t-9 -57.5t-21 -52t-39 -45.5q-19 -16 -49 -29t-74 -13q-28 0 -51 6v100q6 -2 15.5 -4t19.5 -2q18 0 37 6.5t30 16.5q13 12 20 31.5t10.5 42.5t4 47t0.5 45v417h447z" />
    <glyph glyph-name="afii10030" unicode="&#x41c;" horiz-adv-x="888" 
d="M60 0l147 752l243 -542l246 542l132 -752h-110l-70 422l-204 -454l-201 455l-73 -423h-110z" />
    <glyph glyph-name="afii10031" unicode="&#x41d;" horiz-adv-x="674" 
d="M188 426h298v274h108v-700h-108v326h-298v-326h-108v700h108v-274z" />
    <glyph glyph-name="afii10032" unicode="&#x41e;" horiz-adv-x="824" 
d="M412 714q78 0 145 -28t115.5 -77t76 -116t27.5 -144q0 -76 -27.5 -142.5t-76 -115.5t-115 -77t-145.5 -28t-145.5 28t-115 77t-76 115.5t-27.5 142.5q0 77 27.5 144t76 116t115.5 77t145 28zM412 86q56 0 102 19.5t79.5 54.5t52 83t18.5 106t-18.5 106.5t-52 84t-79.5 55
t-102 19.5q-55 0 -101.5 -19.5t-80 -55t-52 -84t-18.5 -106.5t18.5 -106t52 -83t80 -54.5t101.5 -19.5z" />
    <glyph glyph-name="afii10033" unicode="&#x41f;" horiz-adv-x="674" 
d="M594 700v-700h-108v600h-298v-600h-108v700h514z" />
    <glyph glyph-name="afii10034" unicode="&#x420;" horiz-adv-x="498" 
d="M234 700q35 0 74 -6t79 -32q26 -17 43 -38.5t27 -44t13.5 -45t3.5 -42.5q0 -55 -21 -92.5t-47 -60.5q-42 -35 -87.5 -45t-83.5 -10h-47v-284h-108v700h154zM188 384h47q18 0 40.5 3.5t42.5 14.5t34 32.5t14 58.5q0 38 -15.5 59.5t-36.5 32t-43.5 13t-36.5 2.5h-46v-216z
" />
    <glyph glyph-name="afii10035" unicode="&#x421;" horiz-adv-x="646" 
d="M600 536q-28 27 -55.5 42.5t-52.5 23.5t-46 10t-35 2q-57 0 -103.5 -20t-79 -55.5t-50.5 -84.5t-18 -107q0 -56 18.5 -103.5t51.5 -82.5t79.5 -55t101.5 -20q12 0 32 2t45 10.5t53.5 24.5t58.5 44v-128q-8 -5 -24.5 -14t-40.5 -17.5t-56 -15t-71 -6.5q-22 0 -51 3
t-61.5 13.5t-67 29.5t-68.5 51q-51 49 -81.5 113.5t-30.5 150.5q0 68 24.5 141t87.5 133q55 53 118 73t135 20q68 0 111.5 -15t75.5 -37v-126z" />
    <glyph glyph-name="afii10036" unicode="&#x422;" horiz-adv-x="448" 
d="M278 600v-600h-108v600h-160v100h428v-100h-160z" />
    <glyph glyph-name="afii10037" unicode="&#x423;" horiz-adv-x="598" 
d="M136 700l183 -363l161 363h112l-316 -700h-112l94 209l-252 491h130z" />
    <glyph glyph-name="afii10038" unicode="&#x424;" horiz-adv-x="862" 
d="M377 99h-18q-82 0 -141 21.5t-96.5 58.5t-55.5 86.5t-18 106.5q0 67 20 113.5t50.5 76.5t68 46.5t72 24.5t62 9.5t38.5 1.5h18v84h108v-84h18q11 0 38.5 -1.5t62 -9.5t72 -24.5t68 -46.5t50.5 -76.5t20 -113.5q0 -57 -18 -106.5t-55.5 -86.5t-96.5 -58.5t-141 -21.5h-18
v-99h-108v99zM377 544h-21q-52 0 -89.5 -13.5t-62 -37t-36.5 -54.5t-12 -67t12 -68t36.5 -55t62.5 -36.5t89 -13.5h21v345zM485 199h21q51 0 89 13.5t62.5 36.5t36.5 55t12 68t-12 67t-36.5 54.5t-62 37t-89.5 13.5h-21v-345z" />
    <glyph glyph-name="afii10039" unicode="&#x425;" horiz-adv-x="572" 
d="M230 365l-193 335h120l136 -237l140 237h120l-202 -335l211 -365h-120l-153 268l-159 -268h-120z" />
    <glyph glyph-name="afii10040" unicode="&#x426;" horiz-adv-x="688" 
d="M80 700h108v-600h288v600h108v-600h90v-258h-100v158h-494v700z" />
    <glyph glyph-name="afii10041" unicode="&#x427;" horiz-adv-x="630" 
d="M442 287q-45 -4 -74 -6t-61 -2q-74 0 -115 13.5t-63 30.5q-25 20 -38.5 44t-20.5 48t-8.5 45t-1.5 33v207h108v-191q0 -11 0.5 -25.5t4 -29t11 -28.5t21.5 -25q18 -14 46.5 -18t66.5 -4q41 0 70 2t54 6v313h108v-700h-108v287z" />
    <glyph glyph-name="afii10042" unicode="&#x428;" horiz-adv-x="976" 
d="M80 700h108v-600h246v600h108v-600h246v600h108v-700h-816v700z" />
    <glyph glyph-name="afii10043" unicode="&#x429;" horiz-adv-x="1000" 
d="M80 700h108v-600h246v600h108v-600h246v600h108v-600h90v-258h-100v158h-806v700z" />
    <glyph glyph-name="afii10044" unicode="&#x42a;" horiz-adv-x="620" 
d="M168 600h-158v100h266v-282h78q67 0 109.5 -17.5t66.5 -38.5q29 -26 47.5 -66t18.5 -87q0 -19 -4 -42t-14 -46t-26.5 -44.5t-42.5 -38.5q-39 -26 -79 -32t-75 -6h-187v600zM276 100h74q10 0 33 1.5t46 11.5t41 32t18 62q0 12 -3.5 31t-17.5 36.5t-41 30.5t-74 13h-76
v-218z" />
    <glyph glyph-name="afii10045" unicode="&#x42b;" horiz-adv-x="768" 
d="M80 700h108v-282h78q67 0 109.5 -17.5t66.5 -38.5q29 -26 47.5 -66t18.5 -87q0 -19 -4 -42t-14 -46t-26.5 -44.5t-42.5 -38.5q-39 -26 -79 -32t-74 -6h-188v700zM188 100h74q10 0 33 1.5t46 11.5t41 32t18 62q0 12 -3.5 31t-17.5 36.5t-41 30.5t-74 13h-76v-218zM688 700
v-700h-108v700h108z" />
    <glyph glyph-name="afii10046" unicode="&#x42c;" horiz-adv-x="532" 
d="M80 700h108v-282h78q67 0 109.5 -17.5t66.5 -38.5q29 -26 47.5 -66t18.5 -87q0 -19 -4 -42t-14 -46t-26.5 -44.5t-42.5 -38.5q-39 -26 -79 -32t-74 -6h-188v700zM188 100h74q10 0 33 1.5t46 11.5t41 32t18 62q0 12 -3.5 31t-17.5 36.5t-41 30.5t-74 13h-76v-218z" />
    <glyph glyph-name="afii10047" unicode="&#x42d;" horiz-adv-x="648" 
d="M48 662q14 9 31.5 18.5t41.5 17t56 12t74 4.5q29 0 60 -4t62.5 -14.5t62.5 -28t60 -45.5q45 -44 74.5 -110.5t29.5 -160.5q0 -88 -28 -154t-76 -114q-17 -17 -41 -34.5t-54.5 -31.5t-68.5 -22.5t-84 -8.5q-40 0 -72.5 6t-57.5 14t-42 17.5t-28 15.5v126q29 -25 56 -41
t51.5 -24t46 -11t38.5 -3q63 0 111 21t78 53q26 28 42.5 66t18.5 83h-348v100h345q-6 42 -23.5 77.5t-40.5 60.5q-37 38 -82.5 52.5t-93.5 14.5q-16 0 -37.5 -2.5t-47.5 -10.5t-55 -23.5t-59 -41.5v126z" />
    <glyph glyph-name="afii10048" unicode="&#x42e;" horiz-adv-x="1044" 
d="M296 422q6 37 17 67t24 53t26.5 40t22.5 27q15 16 37.5 34.5t54 34t72.5 26t92 10.5q77 0 142 -28t112 -77t73.5 -115.5t26.5 -144.5q0 -77 -26.5 -143.5t-73.5 -115t-112 -76.5t-142 -28q-60 0 -106.5 14t-80 33.5t-55 40.5t-32.5 35q-29 36 -51.5 90t-24.5 123h-104
v-322h-108v700h108v-278h108zM642 86q53 0 97.5 19.5t76.5 55t50 84t18 105.5q0 58 -18 106.5t-50 83.5t-76.5 54.5t-97.5 19.5t-97.5 -19.5t-76.5 -54.5t-50 -83.5t-18 -106.5q0 -57 18 -105.5t50 -84t76.5 -55t97.5 -19.5z" />
    <glyph glyph-name="afii10049" unicode="&#x42f;" horiz-adv-x="557" 
d="M228 292q-26 3 -55.5 15t-52.5 32q-37 32 -48.5 71.5t-11.5 77.5q0 47 14 82t40 64q23 25 48.5 38.5t50.5 19.5t48.5 7t42.5 1h173v-700h-108v280h-25l-192 -280h-132zM316 600q-36 0 -67.5 -6t-51.5 -26q-14 -14 -21.5 -37.5t-7.5 -42.5q0 -26 9.5 -48t26.5 -36
q10 -8 33 -16t73 -8h59v220h-53z" />
    <glyph glyph-name="afii10065" unicode="&#x430;" horiz-adv-x="552" 
d="M490 442v-442h-102v46q-7 -8 -18 -18.5t-27.5 -19.5t-38 -15.5t-50.5 -6.5q-51 0 -90.5 20t-67 53t-42 75t-14.5 87t14 87t41.5 74.5t67.5 52t92 19.5q12 0 28.5 -2t34.5 -8.5t36 -19.5t34 -34v52h102zM270 362q-28 0 -51 -11t-39 -30.5t-25 -45.5t-9 -56
q0 -28 8.5 -53.5t24 -45t38.5 -31t53 -11.5q59 0 91.5 40.5t32.5 101.5q0 36 -10.5 62.5t-27.5 44t-39.5 26.5t-46.5 9z" />
    <glyph glyph-name="afii10066" unicode="&#x431;" horiz-adv-x="552" 
d="M502 735q-11 -54 -47.5 -93t-91.5 -53l-71 -19q-30 -8 -59 -20t-54 -46q-18 -24 -26.5 -54.5t-9.5 -58.5h1q12 17 29.5 29t37.5 19.5t41.5 11t41.5 3.5q59 0 96.5 -20.5t58.5 -43.5q28 -29 45.5 -71.5t17.5 -95.5q0 -52 -18 -95.5t-50 -75t-75 -49t-93 -17.5t-91.5 16
t-70.5 43q-27 25 -41.5 55.5t-22 61t-9 59.5t-1.5 51q0 95 15 166.5t51 125.5q28 42 61.5 63.5t71.5 30.5l74 18q38 9 57 22.5t27 36.5h105zM276 78q24 0 47 8t41.5 25t30 43.5t11.5 64.5q0 39 -11.5 66t-30 44t-42 25t-46.5 8t-46.5 -8t-42 -25t-30 -44t-11.5 -66
q0 -38 11.5 -64.5t30 -43.5t41.5 -25t47 -8z" />
    <glyph glyph-name="afii10067" unicode="&#x432;" horiz-adv-x="458" 
d="M235 442q26 0 52 -4.5t49 -21.5q12 -10 26 -30t14 -55q0 -28 -12.5 -50.5t-39.5 -35.5q14 -3 30.5 -10.5t29.5 -19.5q15 -14 24.5 -34.5t9.5 -50.5q0 -40 -15.5 -63.5t-32.5 -37.5q-25 -19 -52 -24t-50 -5h-206v442h173zM217 270q10 0 21.5 2t19.5 7t14 13.5t6 22.5
q0 22 -18 34q-12 8 -23.5 8.5t-21.5 0.5h-51v-88h53zM241 84q12 0 27 2.5t27 10.5q9 7 15 17.5t6 21.5q0 10 -5 20.5t-15 17.5q-12 9 -27 10.5t-25 1.5h-80v-102h77z" />
    <glyph glyph-name="afii10068" unicode="&#x433;" horiz-adv-x="340" 
d="M62 442h270v-92h-168v-350h-102v442z" />
    <glyph glyph-name="afii10069" unicode="&#x434;" horiz-adv-x="510" 
d="M436 442v-350h66v-218h-94v126h-310v-126h-94v218q37 3 55.5 22t26.5 36q12 25 15 53.5t3 63.5v175h332zM334 350h-132v-122q0 -31 -5 -53.5t-12.5 -39t-17 -27t-17.5 -16.5h184v258z" />
    <glyph glyph-name="afii10070" unicode="&#x435;" horiz-adv-x="506" 
d="M466 115q-11 -20 -25.5 -39.5t-32.5 -35.5q-20 -18 -42.5 -28.5t-43.5 -16.5t-39 -7.5t-29 -1.5q-38 0 -76.5 13.5t-69 42t-49.5 72.5t-19 104q0 53 15 96.5t43 74.5t67 48t88 17q60 0 102 -23t66 -58q20 -30 30.5 -73t10.5 -88v-16h-316q1 -30 12 -52.5t28 -37t38 -21.5
t41 -7q21 0 38.5 6.5t31.5 17.5q3 2 18 17t27 44zM357 280q-9 38 -36.5 60t-65.5 22q-37 0 -65 -22.5t-38 -59.5h205z" />
    <glyph glyph-name="afii10072" unicode="&#x436;" horiz-adv-x="654" 
d="M378 442v-164l134 164h124l-172 -202l188 -240h-128l-146 196v-196h-102v196l-146 -196h-128l188 240l-172 202h124l134 -164v164h102z" />
    <glyph glyph-name="afii10073" unicode="&#x437;" horiz-adv-x="458" 
d="M65 386q26 28 57 44q26 14 52.5 19t54.5 5q29 0 58.5 -5.5t54.5 -25.5q14 -11 29 -32.5t15 -55.5q0 -30 -15.5 -54t-44.5 -36q14 -3 29 -10t28 -18q12 -11 23.5 -30t11.5 -49q0 -31 -15 -62.5t-47 -54.5q-23 -16 -54 -25.5t-73 -9.5q-29 0 -63.5 7t-66.5 30
q-18 13 -33 31t-26 37l82 42q8 -19 19 -29.5t16 -14.5q17 -13 34 -16t34 -3q15 0 31.5 2.5t30.5 12.5q9 6 17 18t8 32q0 30 -20 43q-12 8 -27.5 10t-31.5 2h-53v84h46q10 0 23 2t21 8q7 5 12.5 14t5.5 23q0 17 -7 25.5t-12 12.5q-6 4 -16.5 7.5t-28.5 3.5q-16 0 -30 -3
t-29 -11q-12 -6 -20 -13t-14 -15z" />
    <glyph glyph-name="afii10074" unicode="&#x438;" horiz-adv-x="530" 
d="M164 442v-251l304 291v-482h-102v257l-304 -291v476h102z" />
    <glyph glyph-name="afii10075" unicode="&#x439;" horiz-adv-x="530" 
d="M164 442v-251l304 291v-482h-102v257l-304 -291v476h102zM180 688q11 -41 34.5 -54.5t51.5 -13.5t51.5 13.5t34.5 54.5l84 -24q-8 -27 -24.5 -50t-39.5 -39.5t-50 -25.5t-56 -9t-56 9t-50 25.5t-39.5 39.5t-24.5 50z" />
    <glyph glyph-name="afii10076" unicode="&#x43a;" horiz-adv-x="460" 
d="M164 442v-162l149 162h134l-192 -193l203 -249h-130l-164 204v-204h-102v442h102z" />
    <glyph glyph-name="afii10077" unicode="&#x43b;" horiz-adv-x="490" 
d="M428 0h-102v350h-132v-178q0 -28 -7 -62.5t-34 -64.5q-17 -20 -46 -33.5t-73 -13.5q-7 0 -13 0.5t-13 1.5v92q5 -1 9.5 -1.5t9.5 -0.5q17 0 31 6t23 16q12 14 13.5 29t1.5 29v272h332v-442z" />
    <glyph glyph-name="afii10078" unicode="&#x43c;" horiz-adv-x="608" 
d="M121 482l183 -336l183 336l107 -482h-104l-45 222l-141 -256l-141 256l-45 -222h-104z" />
    <glyph glyph-name="afii10079" unicode="&#x43d;" horiz-adv-x="512" 
d="M62 442h102v-164h184v164h102v-442h-102v186h-184v-186h-102v442z" />
    <glyph glyph-name="afii10080" unicode="&#x43e;" horiz-adv-x="552" 
d="M276 454q50 0 93.5 -17.5t75 -48.5t49.5 -74t18 -94t-18 -93.5t-49.5 -74t-75 -49t-93.5 -17.5t-93.5 17.5t-75 49t-49.5 74t-18 93.5t18 94t49.5 74t75 48.5t93.5 17.5zM276 78q24 0 47 8t41.5 25t30 43.5t11.5 64.5q0 39 -11.5 66t-30 44t-42 25t-46.5 8t-46.5 -8
t-42 -25t-30 -44t-11.5 -66q0 -38 11.5 -64.5t30 -43.5t41.5 -25t47 -8z" />
    <glyph glyph-name="afii10081" unicode="&#x43f;" horiz-adv-x="508" 
d="M446 442v-442h-102v350h-180v-350h-102v442h384z" />
    <glyph glyph-name="afii10082" unicode="&#x440;" horiz-adv-x="552" 
d="M164 394q16 19 34 30.5t36 18t34.5 9t29.5 2.5q43 0 82 -16.5t68 -46.5t46.5 -73t17.5 -96q0 -54 -18.5 -98t-49 -74.5t-68.5 -47t-77 -16.5q-9 0 -24.5 2t-34.5 9t-39 20t-37 34v-261h-102v652h102v-48zM283 362q-24 0 -46.5 -9t-40 -27t-28 -45t-10.5 -62
q0 -28 8 -53.5t24 -45t39 -31t54 -11.5q29 0 52 11t38.5 30.5t24 45.5t8.5 56q0 35 -10.5 61t-27.5 44t-39.5 27t-45.5 9z" />
    <glyph glyph-name="afii10083" unicode="&#x441;" horiz-adv-x="438" 
d="M406 288q-21 35 -55.5 54.5t-72.5 19.5q-24 0 -48 -9t-42.5 -27t-30 -44.5t-11.5 -61.5q0 -29 9 -54.5t25.5 -45t41 -31t55.5 -11.5q29 0 51.5 9t38 21.5t25.5 25t14 19.5v-134q-34 -20 -65 -26.5t-57 -6.5q-57 0 -101.5 16.5t-79.5 51.5t-49 76t-14 88q0 63 21.5 106
t50.5 70q35 33 75.5 46.5t90.5 13.5q47 0 77 -9.5t51 -22.5v-134z" />
    <glyph glyph-name="afii10084" unicode="&#x442;" horiz-adv-x="378" 
d="M138 350h-130v92h362v-92h-130v-350h-102v350z" />
    <glyph glyph-name="afii10085" unicode="&#x443;" horiz-adv-x="506" 
d="M203 82l-197 360h124l130 -249l124 249h116l-335 -652h-116z" />
    <glyph glyph-name="afii10086" unicode="&#x444;" horiz-adv-x="698" 
d="M298 -7q-52 -1 -98 12t-84 45q-74 62 -74 171q0 45 15 89t58 81q23 20 48.5 31.5t50.5 17.5t47 7.5t37 1.5v251h102v-251q15 0 37 -1.5t47 -7.5t50.5 -17.5t48.5 -31.5q43 -37 58 -81t15 -89q0 -109 -74 -171q-38 -32 -84 -45t-98 -12v-203h-102v203zM298 357
q-20 0 -47.5 -4.5t-47.5 -18.5q-23 -14 -39 -43t-16 -70q0 -42 16 -69t36 -41q19 -13 45.5 -20t52.5 -6v272zM400 85q26 -1 52.5 6t45.5 20q20 14 36 41t16 69q0 41 -16 70t-39 43q-20 14 -47.5 18.5t-47.5 4.5v-272z" />
    <glyph glyph-name="afii10087" unicode="&#x445;" horiz-adv-x="520" 
d="M132 0h-126l195 239l-157 203h122l97 -129l99 129h126l-163 -203l189 -239h-124l-127 165z" />
    <glyph glyph-name="afii10088" unicode="&#x446;" horiz-adv-x="524" 
d="M62 442h102v-350h176v350h102v-350h74v-218h-94v126h-360v442z" />
    <glyph glyph-name="afii10089" unicode="&#x447;" horiz-adv-x="466" 
d="M302 171q-20 -4 -43.5 -6.5t-47.5 -2.5q-26 0 -57.5 5.5t-58.5 26.5q-29 23 -36 50.5t-7 55.5v142h102v-121q0 -19 5 -35t22 -26q12 -7 27.5 -8.5t23.5 -1.5q23 0 41 3.5t29 7.5v181h102v-442h-102v171z" />
    <glyph glyph-name="afii10090" unicode="&#x448;" horiz-adv-x="726" 
d="M62 442h102v-350h148v350h102v-350h148v350h102v-442h-602v442z" />
    <glyph glyph-name="afii10091" unicode="&#x449;" horiz-adv-x="746" 
d="M62 442h102v-350h148v350h102v-350h148v350h102v-350h74v-218h-94v126h-582v442z" />
    <glyph glyph-name="afii10092" unicode="&#x44a;" horiz-adv-x="456" 
d="M204 442v-157h60q16 0 33 -0.5t34.5 -5t34.5 -13.5t32 -26q20 -21 27 -45.5t7 -50.5q0 -23 -7 -51.5t-33 -54.5q-30 -29 -62 -33.5t-67 -4.5h-161v350h-94v92h196zM250 88q12 0 26.5 1t26.5 9q15 9 19 21.5t4 23.5t-4 23t-18 21q-12 8 -27 9t-26 1h-47v-109h46z" />
    <glyph glyph-name="afii10093" unicode="&#x44b;" horiz-adv-x="602" 
d="M164 442v-157h60q15 0 32 -0.5t35 -5t35.5 -13.5t32.5 -26q13 -14 23 -37.5t10 -58.5q0 -45 -14 -70.5t-26 -36.5q-29 -28 -62 -32.5t-67 -4.5h-161v442h102zM210 88q12 0 26.5 1t26.5 9q15 9 19 21.5t4 23.5t-4 23t-18 21q-12 8 -27 9t-26 1h-47v-109h46zM540 442v-442
h-102v442h102z" />
    <glyph glyph-name="afii10094" unicode="&#x44c;" horiz-adv-x="416" 
d="M164 442v-157h60q15 0 32 -0.5t35 -5t35.5 -13.5t32.5 -26q13 -14 23 -37.5t10 -58.5q0 -45 -14 -70.5t-26 -36.5q-29 -28 -62 -32.5t-67 -4.5h-161v442h102zM210 88q12 0 26.5 1t26.5 9q15 9 19 21.5t4 23.5t-4 23t-18 21q-12 8 -27 9t-26 1h-47v-109h46z" />
    <glyph glyph-name="afii10095" unicode="&#x44d;" horiz-adv-x="446" 
d="M40 431q38 16 69 19.5t51 3.5q59 0 104.5 -17.5t77 -49t48 -75t16.5 -94.5t-17.5 -93.5t-48.5 -73t-74 -48t-94 -17.5q-56 0 -86 9t-46 17v98q35 -20 71 -25.5t53 -5.5q23 0 44.5 6.5t39 19.5t30 32.5t16.5 45.5h-205v92h201q-11 43 -48 65t-79 22q-28 0 -61 -7.5
t-62 -21.5v98z" />
    <glyph glyph-name="afii10096" unicode="&#x44e;" horiz-adv-x="730" 
d="M235 278q7 34 22 61t36 49q25 25 65 45.5t100 20.5q51 0 93.5 -17.5t73 -49t48 -74.5t17.5 -93q0 -51 -17.5 -94t-48.5 -74t-73.5 -48.5t-92.5 -17.5q-62 0 -103 21t-67 50q-16 18 -33 49.5t-21 79.5h-70v-186h-102v442h102v-164h71zM457 78q24 0 46.5 8t40.5 25t29 43.5
t11 64.5q0 39 -11 66t-29 44t-40.5 25t-46.5 8t-47 -8t-41 -25t-28.5 -44.5t-10.5 -65.5t11 -64.5t29 -43.5t40.5 -25t46.5 -8z" />
    <glyph glyph-name="afii10097" unicode="&#x44f;" horiz-adv-x="436" 
d="M147 175q-18 2 -36.5 10t-33.5 22q-25 23 -31 50t-6 43q0 22 7 49.5t33 52.5q28 26 61 33t68 7h165v-442h-102v163h-23l-121 -163h-120zM272 354h-63q-15 0 -29 -1.5t-25 -8.5q-8 -5 -15.5 -15.5t-7.5 -28.5q0 -19 7 -28.5t14 -14.5q16 -10 57 -10h62v107z" />
    <glyph glyph-name="afii10071" unicode="&#x451;" horiz-adv-x="506" 
d="M466 115q-11 -20 -25.5 -39.5t-32.5 -35.5q-20 -18 -42.5 -28.5t-43.5 -16.5t-39 -7.5t-29 -1.5q-38 0 -76.5 13.5t-69 42t-49.5 72.5t-19 104q0 53 15 96.5t43 74.5t67 48t88 17q60 0 102 -23t66 -58q20 -30 30.5 -73t10.5 -88v-16h-316q1 -30 12 -52.5t28 -37t38 -21.5
t41 -7q21 0 38.5 6.5t31.5 17.5q3 2 18 17t27 44zM357 280q-9 38 -36.5 60t-65.5 22q-37 0 -65 -22.5t-38 -59.5h205zM104 624q0 27 19.5 46.5t46.5 19.5t46.5 -19.5t19.5 -46.5t-19.5 -46.5t-46.5 -19.5t-46.5 19.5t-19.5 46.5zM292 624q0 27 19.5 46.5t46.5 19.5
t46.5 -19.5t19.5 -46.5t-19.5 -46.5t-46.5 -19.5t-46.5 19.5t-19.5 46.5z" />
    <glyph glyph-name="afii10099" unicode="&#x452;" horiz-adv-x="504" 
d="M62 564h-76v80h76v91h102v-91h210v-80h-210v-160q29 32 61 41t58 9q30 0 53 -7t38.5 -16.5t25.5 -19.5t14 -17q21 -31 24.5 -64.5t3.5 -58.5v-343q0 -42 -10.5 -73t-35.5 -50q-20 -16 -47 -22.5t-50 -6.5q-12 0 -28 1.5t-39 8.5v88q12 -6 23.5 -8t22.5 -2q12 0 26.5 4
t24.5 19q4 7 7.5 20.5t3.5 42.5v311q0 23 -2 41t-18 36q-11 14 -25.5 19t-33.5 5q-29 0 -48 -12t-28 -26q-14 -21 -17.5 -51.5t-3.5 -59.5v-213h-102v564z" />
    <glyph glyph-name="afii10100" unicode="&#x453;" horiz-adv-x="340" 
d="M62 442h270v-92h-168v-350h-102v442zM366 660l-164 -152l-56 36l126 164z" />
    <glyph glyph-name="afii10101" unicode="&#x454;" horiz-adv-x="446" 
d="M406 316q-25 22 -55.5 34t-65.5 12q-44 0 -81 -22t-48 -65h201v-94h-204q7 -52 45 -77.5t87 -25.5q48 0 77 17t44 31v-108q-17 -11 -46 -21.5t-80 -10.5q-60 0 -104 19.5t-73 48.5q-35 35 -49 76.5t-14 88.5q0 63 21.5 105.5t50.5 69.5q38 35 79.5 47.5t89.5 12.5
q43 0 72.5 -8t52.5 -21v-109z" />
    <glyph glyph-name="afii10102" unicode="&#x455;" horiz-adv-x="374" 
d="M235 322q-5 16 -17.5 28t-31.5 12q-1 0 -6.5 -0.5t-11.5 -3t-11 -8.5t-5 -17q0 -19 15 -29t44 -24q17 -8 41 -19.5t43 -25.5q34 -25 43.5 -50.5t9.5 -48.5q0 -38 -15 -66t-38 -47t-52 -28t-56 -9q-47 0 -90 26.5t-63 83.5l86 39q2 -7 7 -17t13.5 -19t21.5 -15t31 -6
q24 0 36.5 13t12.5 35q0 19 -10 31t-36 25q-23 11 -46 21t-42 22q-26 17 -39 38t-13 59q0 26 8.5 50t25.5 42t43 29t61 11q9 0 25 -2t34 -10.5t36 -26t31 -48.5z" />
    <glyph glyph-name="afii10103" unicode="&#x456;" horiz-adv-x="226" 
d="M164 442v-442h-102v442h102zM47 624q0 27 19.5 46.5t46.5 19.5t46.5 -19.5t19.5 -46.5t-19.5 -46.5t-46.5 -19.5t-46.5 19.5t-19.5 46.5z" />
    <glyph glyph-name="afii10104" unicode="&#x457;" horiz-adv-x="252" 
d="M177 442v-442h-102v442h102zM10 608q0 22 14 36t36 14t36 -14t14 -36t-14 -36t-36 -14t-36 14t-14 36zM142 608q0 22 14 36t36 14t36 -14t14 -36t-14 -36t-36 -14t-36 14t-14 36z" />
    <glyph glyph-name="afii10105" unicode="&#x458;" horiz-adv-x="226" 
d="M164 442v-652h-102v652h102zM47 624q0 27 19.5 46.5t46.5 19.5t46.5 -19.5t19.5 -46.5t-19.5 -46.5t-46.5 -19.5t-46.5 19.5t-19.5 46.5z" />
    <glyph glyph-name="afii10106" unicode="&#x459;" horiz-adv-x="680" 
d="M428 285h60q15 0 32 -0.5t35 -5t35.5 -13.5t32.5 -26q13 -14 23 -37.5t10 -58.5q0 -45 -14 -70.5t-26 -36.5q-29 -28 -62 -32.5t-67 -4.5h-161v350h-132v-178q0 -28 -7 -62.5t-34 -64.5q-17 -20 -46 -33.5t-73 -13.5q-7 0 -13 0.5t-13 1.5v92q5 -1 9.5 -1.5t9.5 -0.5
q17 0 31 6t23 16q12 14 13.5 29t1.5 29v272h332v-157zM474 88q12 0 26.5 1t26.5 9q15 9 19 21.5t4 23.5t-4 23t-18 21q-12 8 -27 9t-26 1h-47v-109h46z" />
    <glyph glyph-name="afii10107" unicode="&#x45a;" horiz-adv-x="702" 
d="M62 442h102v-157h184v157h102v-157h60q15 0 32 -0.5t35 -5t35.5 -13.5t32.5 -26q13 -14 23 -37.5t10 -58.5q0 -45 -14 -70.5t-26 -36.5q-29 -28 -62 -32.5t-67 -4.5h-161v197h-184v-197h-102v442zM496 88q12 0 26.5 1t26.5 9q15 9 19 21.5t4 23.5t-4 23t-18 21
q-12 8 -27 9t-26 1h-47v-109h46z" />
    <glyph glyph-name="afii10108" unicode="&#x45b;" horiz-adv-x="504" 
d="M62 564h-76v80h76v91h102v-91h210v-80h-210v-160q29 32 61 41t58 9q30 0 53 -7t38.5 -16.5t25.5 -19.5t14 -17q21 -31 24.5 -64.5t3.5 -58.5v-271h-102v261q0 23 -2 41t-18 36q-11 14 -25.5 19t-33.5 5q-29 0 -48 -12t-28 -26q-14 -21 -17.5 -51.5t-3.5 -59.5v-213h-102
v564z" />
    <glyph glyph-name="afii10109" unicode="&#x45c;" horiz-adv-x="460" 
d="M164 442v-162l149 162h134l-192 -193l203 -249h-130l-164 204v-204h-102v442h102zM397 660l-164 -152l-56 36l126 164z" />
    <glyph glyph-name="afii10110" unicode="&#x45e;" horiz-adv-x="506" 
d="M203 82l-197 360h124l130 -249l124 249h116l-335 -652h-116zM426 664q-8 -27 -24.5 -50t-39.5 -39.5t-50 -25.5t-56 -9t-56 9t-50 25.5t-39.5 39.5t-24.5 50l84 24q11 -41 34.5 -54.5t51.5 -13.5t51.5 13.5t34.5 54.5z" />
    <glyph glyph-name="afii10193" unicode="&#x45f;" horiz-adv-x="504" 
d="M62 442h102v-350h176v350h102v-442h-143v-150h-94v150h-143v442z" />
    <glyph glyph-name="afii10050" unicode="&#x490;" horiz-adv-x="444" 
d="M330 700v158h100v-258h-242v-600h-108v700h250z" />
    <glyph glyph-name="afii10098" unicode="&#x491;" horiz-adv-x="340" 
d="M62 442h176v126h94v-218h-168v-350h-102v442z" />
    <glyph glyph-name="endash" unicode="&#x2013;" horiz-adv-x="604" 
d="M50 268h504v-92h-504v92z" />
    <glyph glyph-name="emdash" unicode="&#x2014;" horiz-adv-x="834" 
d="M50 268h734v-92h-734v92z" />
    <glyph glyph-name="quoteleft" unicode="&#x2018;" horiz-adv-x="300" 
d="M144 436l-94 34l130 260l70 -30z" />
    <glyph glyph-name="quoteright" unicode="&#x2019;" horiz-adv-x="350" 
d="M156 730l94 -34l-130 -260l-70 30z" />
    <glyph glyph-name="quotesinglbase" unicode="&#x201a;" horiz-adv-x="350" 
d="M156 130l94 -34l-130 -260l-70 30z" />
    <glyph glyph-name="quotedblleft" unicode="&#x201c;" horiz-adv-x="480" 
d="M322 436l-90 34l130 260l68 -30zM140 436l-90 34l130 260l68 -30z" />
    <glyph glyph-name="quotedblright" unicode="&#x201d;" horiz-adv-x="530" 
d="M158 730l90 -34l-130 -260l-68 30zM340 730l90 -34l-130 -260l-68 30z" />
    <glyph glyph-name="quotedblbase" unicode="&#x201e;" horiz-adv-x="530" 
d="M158 130l90 -34l-130 -260l-68 30zM340 130l90 -34l-130 -260l-68 30z" />
    <glyph glyph-name="dagger" unicode="&#x2020;" horiz-adv-x="586" 
d="M242 735h102v-163h146v-96h-146v-686h-102v686h-146v96h146v163z" />
    <glyph glyph-name="daggerdbl" unicode="&#x2021;" horiz-adv-x="586" 
d="M242 735h102v-163h146v-96h-146v-276h146v-96h-146v-314h-102v314h-146v96h146v276h-146v96h146v163z" />
    <glyph glyph-name="bullet" unicode="&#x2022;" horiz-adv-x="680" 
d="M194 357q0 30 11.5 56.5t31.5 46.5t46.5 31.5t56.5 11.5t56.5 -11.5t46.5 -31.5t31.5 -46.5t11.5 -56.5t-11.5 -56.5t-31.5 -46.5t-46.5 -31.5t-56.5 -11.5t-56.5 11.5t-46.5 31.5t-31.5 46.5t-11.5 56.5z" />
    <glyph glyph-name="ellipsis" unicode="&#x2026;" horiz-adv-x="780" 
d="M64 52q0 27 19.5 46.5t46.5 19.5t46.5 -19.5t19.5 -46.5t-19.5 -46.5t-46.5 -19.5t-46.5 19.5t-19.5 46.5zM324 52q0 27 19.5 46.5t46.5 19.5t46.5 -19.5t19.5 -46.5t-19.5 -46.5t-46.5 -19.5t-46.5 19.5t-19.5 46.5zM584 52q0 27 19.5 46.5t46.5 19.5t46.5 -19.5
t19.5 -46.5t-19.5 -46.5t-46.5 -19.5t-46.5 19.5t-19.5 46.5z" />
    <glyph glyph-name="perthousand" unicode="&#x2030;" horiz-adv-x="1256" 
d="M598 712l50 -31l-400 -693l-50 31zM202 378q-27 0 -57 10.5t-55 31t-41 51.5t-16 71q0 41 16 71.5t41 51t55 31t57 10.5q35 0 65.5 -13t53.5 -35.5t36.5 -52.5t13.5 -63t-13.5 -63t-36.5 -52.5t-53.5 -35.5t-65.5 -13zM202 632q-21 0 -37.5 -8.5t-27.5 -22t-16.5 -29.5
t-5.5 -30q0 -15 5.5 -30.5t16.5 -29t27.5 -22t37.5 -8.5t37 8.5t27 21.5t17 29t6 31t-5.5 30.5t-17 29t-27.5 22t-37 8.5zM644 -6q-27 0 -57 10.5t-55 31t-41 51.5t-16 71q0 41 16 71.5t41 51t55 31t57 10.5q35 0 65.5 -13t53.5 -35.5t36.5 -52.5t13.5 -63t-13.5 -63
t-36.5 -52.5t-53.5 -35.5t-65.5 -13zM644 248q-21 0 -37.5 -8.5t-27.5 -22t-16.5 -29.5t-5.5 -30q0 -15 5.5 -30.5t16.5 -29t27.5 -22t37.5 -8.5t37 8.5t27 21.5t17 29t6 31t-5.5 30.5t-17 29t-27.5 22t-37 8.5zM1054 -6q-27 0 -57 10.5t-55 31t-41 51.5t-16 71
q0 41 16 71.5t41 51t55 31t57 10.5q35 0 65.5 -13t53.5 -35.5t36.5 -52.5t13.5 -63t-13.5 -63t-36.5 -52.5t-53.5 -35.5t-65.5 -13zM1054 248q-21 0 -37.5 -8.5t-27.5 -22t-16.5 -29.5t-5.5 -30q0 -15 5.5 -30.5t16.5 -29t27.5 -22t37.5 -8.5t37 8.5t27 21.5t17 29t6 31
t-5.5 30.5t-17 29t-27.5 22t-37 8.5z" />
    <glyph glyph-name="guilsinglleft" unicode="&#x2039;" horiz-adv-x="336" 
d="M282 52l-70 -50l-172 226l172 226l70 -50l-136 -176z" />
    <glyph glyph-name="guilsinglright" unicode="&#x203a;" horiz-adv-x="336" 
d="M54 404l70 50l172 -226l-172 -226l-70 50l136 176z" />
    <glyph glyph-name="afii61352" unicode="&#x2116;" horiz-adv-x="1106" 
d="M80 0v746l465 -506v460h108v-742l-465 506v-464h-108zM895 370q-35 0 -65.5 13.5t-53.5 36t-36.5 52.5t-13.5 63q0 34 13.5 64t37 52.5t54 35.5t64.5 13q35 0 65.5 -13t53.5 -35.5t36.5 -52.5t13.5 -64q0 -33 -13 -62.5t-36 -52.5t-54 -36.5t-66 -13.5zM895 624
q-21 0 -37.5 -8t-27.5 -20.5t-16.5 -28.5t-5.5 -32t5.5 -31.5t16.5 -28.5t27.5 -21t37.5 -8q22 0 38.5 8t27 21t16 28.5t5.5 31.5t-5.5 32t-16 28.5t-27 20.5t-38.5 8zM747 297h296v-84h-296v84z" />
    <glyph glyph-name="trademark" unicode="&#x2122;" horiz-adv-x="744" 
d="M162 632v-332h-74v332h-88v68h250v-68h-88zM273 300l86 436l132 -294l134 294l85 -436h-75l-37 218l-107 -224l-107 224l-36 -218h-75z" />
    <glyph glyph-name="Accent" horiz-adv-x="2" 
d="M-412 802l146 148l90 -62l-186 -126z" />
    <glyph glyph-name="accent" horiz-adv-x="2" 
d="M-96 660l-164 -152l-56 36l126 164z" />
    <glyph glyph-name="hyphenminus" horiz-adv-x="332" 
d="M40 276h252v-106h-252v106z" />
    </font>
</defs>
</svg>
