<?xml version="1.0" standalone="no"?>
<!DOCTYPE svg PUBLIC "-//W3C//DTD SVG 1.1//EN" "http://www.w3.org/Graphics/SVG/1.1/DTD/svg11.dtd" >
<svg xmlns="http://www.w3.org/2000/svg" xmlns:xlink="http://www.w3.org/1999/xlink" version="1.1">
<metadata>
Created by FontForge 20161003 at Thu Feb  2 00:58:53 2017
 By www-data
Copyright (c) 1990 Neufville SL, Copyright (c) 1990-2000 ParaType, Inc. All Rights Reserved. Futura is a registered trade mark of Neufville SL.
</metadata>
<defs>
<font id="FuturaFuturisLight" horiz-adv-x="548" >
  <font-face 
    font-family="FuturaFuturisLight"
    font-weight="300"
    font-stretch="normal"
    units-per-em="1000"
    panose-1="0 0 0 0 0 0 0 0 0 0"
    ascent="800"
    descent="-200"
    x-height="434"
    cap-height="700"
    bbox="-406 -224 1147 851"
    underline-thickness="50"
    underline-position="-150"
    unicode-range="U+000D-2122"
  />
<missing-glyph horiz-adv-x="233" 
 />
    <glyph glyph-name=".notdef" horiz-adv-x="233" 
 />
    <glyph glyph-name=".null" horiz-adv-x="0" 
 />
    <glyph glyph-name=".null" horiz-adv-x="0" 
 />
    <glyph glyph-name="nonmarkingreturn" unicode="&#xd;" horiz-adv-x="250" 
 />
    <glyph glyph-name="space" unicode=" " horiz-adv-x="233" 
 />
    <glyph glyph-name="exclam" unicode="!" horiz-adv-x="232" 
d="M86 700h60v-560h-60v560zM70 35q0 20 13 33t33 13t33 -13t13 -33t-13 -33t-33 -13t-33 13t-13 33z" />
    <glyph glyph-name="quotedbl" unicode="&#x22;" horiz-adv-x="338" 
d="M119 497h-42l-27 203h98zM259 497h-42l-27 203h98z" />
    <glyph glyph-name="numbersign" unicode="#" horiz-adv-x="796" 
d="M435 40l25 145h-181l-25 -145h-56l25 145h-135l12 68h135l33 194h-135l12 68h135l25 145h56l-25 -145h181l25 145h56l-25 -145h135l-12 -68h-135l-33 -194h135l-12 -68h-135l-25 -145h-56zM472 253l33 194h-181l-33 -194h181z" />
    <glyph glyph-name="dollar" unicode="$" horiz-adv-x="521" 
d="M285 -119h-54v101q-58 4 -111.5 38.5t-91.5 116.5l64 32q6 -16 18 -38t32 -42t49.5 -34t69.5 -14q39 0 66.5 14t45.5 36t26 48.5t8 50.5q0 37 -14 62.5t-36.5 43.5t-50.5 31.5t-57 27.5q-42 20 -75 40t-56.5 43t-36 51.5t-12.5 65.5q0 45 16.5 75t41.5 48.5t53 27.5
t51 11v88h54v-88q20 -1 41.5 -6.5t42.5 -17.5t40.5 -31.5t34.5 -49.5l-55 -32q-5 12 -14 26t-24 26t-36 20t-51 8q-37 0 -61 -10.5t-38 -26.5t-19 -33.5t-5 -32.5q0 -30 13.5 -51.5t36 -39t50.5 -31.5t58 -28q28 -13 59.5 -29t58.5 -40.5t44.5 -59t17.5 -84.5
q0 -42 -14.5 -79.5t-40 -65.5t-61 -46t-78.5 -21v-101z" />
    <glyph glyph-name="percent" unicode="%" horiz-adv-x="790" 
d="M563 721h49l-413 -742h-49zM185 440q22 0 41 9t33.5 24t22.5 35.5t8 44.5t-8 44.5t-22.5 35.5t-33.5 24t-41 9t-41 -9t-33 -24t-22.5 -35.5t-8.5 -44.5t8.5 -44.5t22.5 -35.5t33 -24t41 -9zM25 553q0 33 12.5 62.5t34 51t51 34t62.5 12.5t62.5 -12.5t51 -34t34 -51
t12.5 -62.5t-12.5 -62.5t-34 -51t-51 -34t-62.5 -12.5t-62.5 12.5t-51 34t-34 51t-12.5 62.5zM445 162q0 33 12.5 62.5t34 51t51 34t62.5 12.5t62.5 -12.5t51 -34t34 -51t12.5 -62.5t-12.5 -62.5t-34 -51t-51 -34t-62.5 -12.5t-62.5 12.5t-51 34t-34 51t-12.5 62.5zM605 49
q22 0 41 9t33.5 24t22.5 35.5t8 44.5t-8 44.5t-22.5 35.5t-33.5 24t-41 9t-41 -9t-33 -24t-22.5 -35.5t-8.5 -44.5t8.5 -44.5t22.5 -35.5t33 -24t41 -9z" />
    <glyph glyph-name="ampersand" unicode="&#x26;" horiz-adv-x="625" 
d="M464 101q-10 -12 -28.5 -32.5t-39.5 -37.5q-37 -31 -69 -40t-74 -9q-57 0 -96 18.5t-64 47t-36 62.5t-11 64q0 42 13.5 74.5t36.5 59.5t55.5 50.5t69.5 47.5q-31 36 -56.5 73t-25.5 83q0 33 13 58.5t35 43t49.5 27t55.5 9.5q36 0 62.5 -11.5t43 -30.5t24.5 -44t8 -51
q0 -48 -31.5 -85t-96.5 -84l167 -209l94 111l42 -34l-102 -120l111 -142h-70zM253 365q-34 -24 -60.5 -44t-45 -41.5t-28 -46.5t-9.5 -59q0 -27 11 -53t30 -46.5t46 -32.5t58 -12q24 0 42.5 5.5t38 18t42 34t52.5 54.5zM271 433q48 30 72.5 59t24.5 74q0 15 -5.5 30.5
t-15.5 28t-25 20t-33 7.5q-16 0 -31.5 -5.5t-28.5 -16.5t-21 -27.5t-8 -39.5q0 -18 6.5 -36t17 -35t23 -32t24.5 -27z" />
    <glyph glyph-name="quotesingle" unicode="'" horiz-adv-x="198" 
d="M119 497h-42l-27 203h98z" />
    <glyph glyph-name="parenleft" unicode="(" horiz-adv-x="218" 
d="M142 -223q-21 54 -38.5 114t-29.5 123t-18.5 126t-6.5 123t6.5 123t18.5 125.5t29.5 122.5t38.5 114l48 -13q-48 -155 -62.5 -275t-14.5 -197q0 -78 14.5 -198t62.5 -275z" />
    <glyph glyph-name="parenright" unicode=")" horiz-adv-x="218" 
d="M76 748q21 -54 38.5 -114t29.5 -122.5t18.5 -125.5t6.5 -123t-6.5 -123t-18.5 -126t-29.5 -123t-38.5 -114l-48 13q27 86 42 158.5t23 132t10 105t2 77.5t-2 77t-10 104.5t-23 132t-42 158.5z" />
    <glyph glyph-name="asterisk" unicode="*" horiz-adv-x="407" 
d="M228 735v-126l108 63l25 -42l-108 -63l108 -63l-25 -42l-108 63v-126h-49v126l-108 -63l-25 42l108 63l-108 63l25 42l108 -63v126h49z" />
    <glyph glyph-name="plus" unicode="+" horiz-adv-x="600" 
d="M50 378h222v222h56v-222h222v-56h-222v-222h-56v222h-222v56z" />
    <glyph glyph-name="comma" unicode="," horiz-adv-x="253" 
d="M137 112l70 -33l-125 -230l-36 17z" />
    <glyph glyph-name="hyphen" unicode="-" horiz-adv-x="308" 
d="M266 288v-60h-224v60h224z" />
    <glyph glyph-name="period" unicode="." horiz-adv-x="232" 
d="M70 35q0 20 13 33t33 13t33 -13t13 -33t-13 -33t-33 -13t-33 13t-13 33z" />
    <glyph glyph-name="slash" unicode="/" horiz-adv-x="476" 
d="M399 735h56l-378 -945h-56z" />
    <glyph glyph-name="zero" unicode="0" 
d="M274 -20q-12 0 -33 2t-45.5 12.5t-50 33t-46 63.5t-33.5 104t-13 155q0 91 13 154t33.5 104t46 63.5t50 33.5t45.5 13t33 2t33 -2t45.5 -13t50 -33.5t46 -63.5t33.5 -104t13 -154q0 -92 -13 -155t-33.5 -104t-46 -63.5t-50 -33t-45.5 -12.5t-33 -2zM274 36q30 0 57.5 14
t49 50t34 96.5t12.5 153.5q0 161 -39.5 237.5t-113.5 76.5t-113.5 -76.5t-39.5 -237.5q0 -93 12.5 -153.5t34 -96.5t49 -50t57.5 -14z" />
    <glyph glyph-name="one" unicode="1" 
d="M265 644h-119l27 56h160v-700h-68v644z" />
    <glyph glyph-name="two" unicode="2" 
d="M487 0h-437l167 179q62 66 101.5 111.5t63 81.5t32.5 66.5t9 66.5q0 31 -8 60t-24.5 51t-42 35t-59.5 13q-42 0 -73 -16t-51 -42.5t-30 -60.5t-9 -70h-68q0 45 14 89t42.5 78.5t73 56t106.5 21.5q46 0 82.5 -16.5t62 -45t39 -68t13.5 -86.5q0 -27 -4.5 -52t-16 -51
t-30 -54.5t-46.5 -62.5q-21 -26 -43.5 -50t-47 -50.5t-53.5 -57t-64 -70.5h301v-56z" />
    <glyph glyph-name="three" unicode="3" 
d="M117 175q0 -20 7 -44.5t24 -45.5t45.5 -35t71.5 -14q35 0 64 11t50 30.5t32.5 47.5t11.5 61q0 51 -19.5 81t-45.5 45t-53 19.5t-41 5.5h-31v56q18 -1 35 0q61 3 99.5 35t38.5 97q0 66 -38.5 102.5t-100.5 36.5q-39 0 -64 -13.5t-40 -34t-22 -43.5t-10 -43h-63
q2 28 13 61.5t34.5 62t62.5 47.5t97 19q42 0 78 -12.5t61.5 -36t40 -58t14.5 -79.5q0 -20 -3.5 -43.5t-15 -46t-33.5 -43t-60 -34.5v-2q18 -4 41 -14.5t43.5 -30.5t35 -51.5t14.5 -78.5t-17 -86t-47 -66.5t-72 -42.5t-92 -15q-54 0 -93.5 16.5t-66 44t-39.5 62.5t-14 72h67z
" />
    <glyph glyph-name="four" unicode="4" 
d="M340 165h-315l363 555h16v-499h74v-56h-74v-165h-64v165zM340 558l-215 -337h215v337z" />
    <glyph glyph-name="five" unicode="5" 
d="M227 644l-52 -215q21 10 44 15.5t46 5.5q40 0 78.5 -13.5t69 -41.5t49.5 -70.5t19 -100.5q0 -55 -17 -100t-47.5 -77t-72.5 -49.5t-92 -17.5q-28 0 -57 6t-56 21.5t-52.5 42.5t-46.5 68l52 29q20 -36 40.5 -58t41 -34t39.5 -15.5t35 -3.5q44 0 75 16t51 42t29.5 61
t9.5 72q0 13 -3.5 40.5t-19.5 55.5t-47.5 49.5t-88.5 21.5q-12 0 -29 -1t-36 -6t-39.5 -15.5t-39.5 -29.5l-18 5l84 353h278v-56h-227z" />
    <glyph glyph-name="six" unicode="6" 
d="M404 688l-205 -293q20 11 39.5 15t45.5 4q45 0 83 -15.5t65.5 -42.5t43 -64.5t15.5 -82.5q0 -32 -10 -71.5t-34.5 -74.5t-66.5 -59t-105 -24q-51 0 -91.5 15.5t-68.5 44t-43 68.5t-15 89q0 35 6.5 63.5t17 52.5t24 44.5t26.5 39.5l219 323zM274 36q38 0 66 13.5
t46.5 36.5t27.5 53t9 63q0 75 -42 115.5t-107 40.5t-107 -41t-42 -115q0 -33 9 -63t27.5 -53t46.5 -36.5t66 -13.5z" />
    <glyph glyph-name="seven" unicode="7" 
d="M411 644h-347v56h441l-350 -720l-55 25z" />
    <glyph glyph-name="eight" unicode="8" 
d="M348 375q32 -8 58 -25t44 -41t28 -53.5t10 -61.5q0 -46 -15 -85t-42.5 -67.5t-67 -45t-89.5 -16.5q-51 0 -90.5 16t-67 44.5t-42 68t-14.5 85.5q0 39 12 69.5t31.5 53t44.5 37t52 21.5v2q-19 6 -39 17.5t-37 30.5t-28 47t-11 66q0 51 18 86t46 56.5t61.5 30.5t63.5 9
t63.5 -9t61.5 -30.5t46 -56.5t18 -86q0 -38 -11 -66t-28 -47t-37 -30.5t-39 -17.5v-2zM274 400q27 0 50 10t40 27.5t26.5 41.5t9.5 53q0 24 -6.5 47.5t-21.5 42.5t-39 30.5t-59 11.5q-39 0 -63.5 -14.5t-38.5 -35t-19 -43t-5 -39.5q0 -29 10.5 -53t27.5 -41.5t40 -27.5
t48 -10zM274 36q35 0 62 12t46.5 33t29.5 50t10 62t-11 60.5t-30.5 47.5t-46.5 31.5t-60 11.5t-60 -11.5t-46.5 -31.5t-30.5 -47.5t-11 -60.5t10 -62t29.5 -50t47 -33t61.5 -12z" />
    <glyph glyph-name="nine" unicode="9" 
d="M144 12l205 293q-20 -11 -39.5 -15t-45.5 -4q-45 0 -83 15.5t-65.5 42.5t-43 64.5t-15.5 82.5q0 32 10 71.5t34.5 74.5t66.5 59t105 24q51 0 91.5 -15.5t68.5 -44t43 -68.5t15 -89q0 -35 -6.5 -63.5t-17 -52.5t-24 -44t-26.5 -40l-219 -323zM274 664q-38 0 -66 -13.5
t-46.5 -36.5t-27.5 -53t-9 -63q0 -75 42 -115.5t107 -40.5t107 41t42 115q0 33 -9 63t-27.5 53t-46.5 36.5t-66 13.5z" />
    <glyph glyph-name="colon" unicode=":" horiz-adv-x="232" 
d="M70 399q0 20 13 33t33 13t33 -13t13 -33t-13 -33t-33 -13t-33 13t-13 33zM70 35q0 20 13 33t33 13t33 -13t13 -33t-13 -33t-33 -13t-33 13t-13 33z" />
    <glyph glyph-name="semicolon" unicode=";" horiz-adv-x="253" 
d="M108 399q0 20 13 33t33 13t33 -13t13 -33t-13 -33t-33 -13t-33 13t-13 33zM137 112l70 -33l-125 -230l-36 17z" />
    <glyph glyph-name="less" unicode="&#x3c;" horiz-adv-x="500" 
d="M450 570v-56l-332 -164l332 -164v-56l-400 200v40z" />
    <glyph glyph-name="equal" unicode="=" horiz-adv-x="600" 
d="M50 444h500v-56h-500v56zM50 312h500v-56h-500v56z" />
    <glyph glyph-name="greater" unicode="&#x3e;" horiz-adv-x="500" 
d="M50 130v56l332 164l-332 164v56l400 -200v-40z" />
    <glyph glyph-name="question" unicode="?" horiz-adv-x="459" 
d="M49 538q0 27 9 59t30 59t56.5 45.5t90.5 18.5q77 0 126 -42.5t49 -119.5q0 -35 -9.5 -60t-28.5 -44.5t-45.5 -36.5t-61.5 -36q-27 -15 -48.5 -27.5t-36 -25.5t-22.5 -28.5t-8 -35.5q0 -9 3.5 -22t13 -24.5t26.5 -19.5t44 -8q29 0 47 9t28.5 22t14 27.5t3.5 26.5h55
q0 -19 -6 -43.5t-22 -46t-44.5 -36.5t-74.5 -15q-33 0 -60.5 9t-48 25.5t-32 39t-11.5 49.5q0 36 11.5 61t31 43.5t45 33.5t53.5 30q34 19 56.5 33.5t35.5 29.5t18 32t5 40q0 38 -13.5 59t-31.5 31t-36 12t-26 2q-39 0 -63 -13t-38 -32.5t-19.5 -41t-6.5 -39.5h-59zM182 35
q0 20 13 33t33 13t33 -13t13 -33t-13 -33t-33 -13t-33 13t-13 33z" />
    <glyph glyph-name="at" unicode="@" horiz-adv-x="878" 
d="M582 271q-4 -19 -1.5 -33t9.5 -22t16.5 -12t18.5 -4q20 0 42.5 10.5t42 31.5t32 53t12.5 75q0 71 -25.5 126t-69 92.5t-102 56.5t-123.5 19q-72 0 -129.5 -25.5t-97.5 -68.5t-61 -100t-21 -120q0 -84 29 -144.5t74.5 -100t102.5 -58.5t113 -19t94.5 15.5t61.5 30.5
l29 -44q-47 -28 -89.5 -39t-95.5 -11q-80 0 -149.5 24t-120.5 71t-80.5 116t-29.5 159q0 83 29 151t79 116.5t117.5 75.5t144.5 27q112 0 185 -36.5t116.5 -90t61 -114t17.5 -109.5q0 -51 -17.5 -91.5t-46 -68.5t-64.5 -43t-73 -15q-23 0 -38.5 6.5t-25 15.5t-14.5 20t-8 20
q-20 -23 -52 -42.5t-84 -19.5q-64 0 -105.5 39.5t-41.5 114.5q0 41 15.5 83.5t43.5 76.5t67.5 55.5t87.5 21.5q47 0 71.5 -14.5t39.5 -40.5l9 42h60zM402 200q38 0 65.5 20.5t45.5 50.5t26.5 65t8.5 64q0 39 -19.5 67t-63.5 28q-37 0 -66 -17t-49 -44t-30.5 -60t-10.5 -66
q0 -52 24 -80t69 -28z" />
    <glyph glyph-name="A" unicode="A" horiz-adv-x="650" 
d="M325 720l314 -720h-70l-97 228h-294l-97 -228h-70zM448 284l-123 287l-123 -287h246z" />
    <glyph glyph-name="B" unicode="B" horiz-adv-x="564" 
d="M232 700q29 0 68.5 -4t74.5 -20.5t59.5 -49.5t24.5 -92q0 -56 -30 -96t-75 -57v-2q34 -2 63.5 -15.5t51 -36.5t34 -55t12.5 -72q0 -59 -22 -98.5t-57.5 -62.5t-78.5 -32t-85 -7h-184v700h144zM245 401q6 0 29 2t48.5 14.5t46 39t20.5 74.5q0 20 -6.5 40.5t-23 36.5
t-44 26t-69.5 10h-90v-243h89zM272 56q50 0 83.5 13t53.5 34t28 46.5t8 50.5q0 55 -24.5 84.5t-55.5 43t-59.5 15.5t-36.5 2h-113v-289h116z" />
    <glyph glyph-name="C" unicode="C" horiz-adv-x="700" 
d="M672 62q-60 -46 -127.5 -64t-127.5 -18q-80 0 -146.5 28.5t-114 78.5t-74 117.5t-26.5 145.5q0 82 28.5 150t77.5 117t115 76t140 27q27 0 56.5 -3t62 -12t66.5 -25.5t70 -43.5v-79q-34 33 -67.5 54t-66 32.5t-62.5 16t-57 4.5q-58 0 -111 -23.5t-93 -65.5t-63.5 -99.5
t-23.5 -125.5q0 -63 21.5 -120t59.5 -100t91.5 -68.5t117.5 -25.5q72 0 137.5 28t116.5 76v-78z" />
    <glyph glyph-name="D" unicode="D" horiz-adv-x="700" 
d="M88 700h174q94 0 165.5 -28t119.5 -76t72.5 -111.5t24.5 -134.5q0 -55 -18.5 -116.5t-62.5 -113.5t-117.5 -86t-183.5 -34h-174v700zM255 56q85 0 145 24t98.5 64.5t56 93.5t17.5 112q0 67 -22.5 121.5t-64 92.5t-100 59t-130.5 21h-99v-588h99z" />
    <glyph glyph-name="E" unicode="E" horiz-adv-x="519" 
d="M88 700h375v-56h-307v-224h296v-56h-296v-308h307v-56h-375v700z" />
    <glyph glyph-name="F" unicode="F" horiz-adv-x="450" 
d="M88 700h330v-56h-262v-224h255v-56h-255v-364h-68v700z" />
    <glyph glyph-name="G" unicode="G" horiz-adv-x="815" 
d="M759 340q0 -66 -18.5 -130.5t-58.5 -115.5t-104 -82.5t-156 -31.5q-82 0 -149.5 26.5t-115.5 74.5t-74.5 115.5t-26.5 150.5q0 85 26 154t72.5 117.5t110 75t139.5 26.5q19 0 55.5 -3.5t80 -19t89 -48t84.5 -90.5l-52 -38q-16 23 -39 48.5t-55 46.5t-72.5 34.5
t-91.5 13.5q-63 0 -113.5 -24.5t-86.5 -67.5t-55.5 -101t-19.5 -124q0 -69 20.5 -126t59 -98t92.5 -64t120 -23q63 0 112.5 21.5t84 56.5t52.5 79.5t18 90.5h-252v56h324z" />
    <glyph glyph-name="H" unicode="H" horiz-adv-x="715" 
d="M88 700h68v-287h403v287h68v-700h-68v357h-403v-357h-68v700z" />
    <glyph glyph-name="I" unicode="I" horiz-adv-x="244" 
d="M88 700h68v-700h-68v700z" />
    <glyph glyph-name="J" unicode="J" horiz-adv-x="402" 
d="M43 92q28 -37 55.5 -46.5t48.5 -9.5q30 0 49.5 10.5t30.5 30t15 47.5t4 64v512h68v-516q0 -24 -2.5 -58.5t-18 -67t-50 -55.5t-99.5 -23q-45 0 -78 15.5t-66 51.5z" />
    <glyph glyph-name="K" unicode="K" horiz-adv-x="571" 
d="M88 700h68v-325l313 325h84l-332 -339l339 -361h-91l-313 340v-340h-68v700z" />
    <glyph glyph-name="L" unicode="L" horiz-adv-x="393" 
d="M88 700h68v-644h226v-56h-294v700z" />
    <glyph glyph-name="M" unicode="M" horiz-adv-x="858" 
d="M137 728l292 -624l292 624l95 -728h-63l-67 518l-257 -546l-257 546l-67 -518h-63z" />
    <glyph glyph-name="N" unicode="N" horiz-adv-x="775" 
d="M88 728l531 -585v557h68v-728l-531 585v-557h-68v728z" />
    <glyph glyph-name="O" unicode="O" horiz-adv-x="868" 
d="M434 -20q-78 0 -147 26.5t-120 75.5t-81 117t-30 151t30 151t81 117t120 75.5t147 26.5t147 -26.5t120 -75.5t81 -117t30 -151t-30 -151t-81 -117t-120 -75.5t-147 -26.5zM434 36q64 0 120 23t97 65t65 99.5t24 126.5t-24 126.5t-65 99.5t-97 65t-120 23t-120 -23
t-97 -65t-65 -99.5t-24 -126.5t24 -126.5t65 -99.5t97 -65t120 -23z" />
    <glyph glyph-name="P" unicode="P" horiz-adv-x="538" 
d="M88 700h194q28 0 64.5 -5.5t68.5 -24t54.5 -55.5t22.5 -100t-22.5 -100t-55 -56t-68.5 -24.5t-64 -5.5h-126v-329h-68v700zM156 385h123q19 0 43.5 3.5t46.5 17t37.5 39t15.5 70.5q0 49 -18.5 75.5t-43 38.5t-48 13.5t-33.5 1.5h-123v-259z" />
    <glyph glyph-name="Q" unicode="Q" horiz-adv-x="868" 
d="M715 -49l-73 85q-44 -28 -91.5 -42t-116.5 -14q-79 0 -148 26.5t-120 75.5t-80.5 117t-29.5 151t29.5 151t80.5 117t120 75.5t148 26.5q78 0 147 -26.5t120 -75t81 -117t30 -151.5q0 -80 -31 -155.5t-97 -126.5l101 -117h-70zM642 116q35 30 55 66t29.5 69.5t11.5 60.5
t2 38q0 69 -24 126.5t-65.5 99.5t-97 65t-119.5 23t-120 -23t-97 -65t-65 -99.5t-24 -126.5t24 -126.5t65 -99.5t97 -65t120 -23q62 0 101.5 15t65.5 32l-152 176h70z" />
    <glyph glyph-name="R" unicode="R" horiz-adv-x="516" 
d="M88 700h187q15 0 48 -4.5t66.5 -23t59 -56.5t25.5 -105q0 -32 -10 -64t-35 -58t-67.5 -44t-107.5 -22l248 -323h-80l-240 322h-26v-322h-68v700zM226 378q59 0 94 13t54 32.5t24.5 43t5.5 44.5q0 44 -14 70t-36.5 40t-52 18.5t-59.5 4.5h-86v-266h70z" />
    <glyph glyph-name="S" unicode="S" horiz-adv-x="521" 
d="M389 582q-6 15 -16.5 29.5t-26 26t-36 19t-47.5 7.5q-37 0 -61 -11t-38 -27t-20 -34.5t-6 -34.5q0 -30 13.5 -52t36 -39t51 -31t58.5 -28q28 -13 60 -29.5t59 -40.5t45 -58.5t18 -84.5q0 -45 -16.5 -84t-46 -68t-71 -45.5t-91.5 -16.5q-52 0 -90 16t-65 40t-44.5 51.5
t-26.5 49.5l64 32q8 -22 21.5 -45.5t34 -43t48.5 -32t64 -12.5q33 0 60 12t46.5 32.5t30 48.5t10.5 61t-11.5 57t-32 42.5t-49.5 34t-64 31.5q-32 15 -64.5 33t-58.5 41.5t-42.5 54.5t-16.5 71q0 23 8 52t29 54t58.5 42t96.5 17q20 0 45 -3t50 -14t48.5 -32t39.5 -57z" />
    <glyph glyph-name="T" unicode="T" horiz-adv-x="464" 
d="M198 644h-187v56h442v-56h-187v-644h-68v644z" />
    <glyph glyph-name="U" unicode="U" horiz-adv-x="650" 
d="M573 700v-439q0 -14 -1.5 -40.5t-9 -57.5t-23 -63.5t-43 -59t-69.5 -43.5t-102 -17t-102 17t-69.5 43.5t-43 59t-23 63.5t-9 57.5t-1.5 40.5v439h68v-449q0 -7 1 -25.5t6 -42.5t16 -50t31 -47.5t51 -35.5t75 -14q45 0 75.5 14t50.5 35.5t31 47.5t16 50t6 42.5t1 25.5v449
h68z" />
    <glyph glyph-name="V" unicode="V" horiz-adv-x="568" 
d="M11 700h74l199 -553l199 553h74l-273 -728z" />
    <glyph glyph-name="W" unicode="W" horiz-adv-x="938" 
d="M256 -28l-249 728h77l173 -553l212 573l212 -573l173 553h77l-249 -728l-213 584z" />
    <glyph glyph-name="X" unicode="X" horiz-adv-x="506" 
d="M218 357l-195 343h76l154 -286l154 286h76l-195 -343l211 -357h-76l-170 304l-170 -304h-76z" />
    <glyph glyph-name="Y" unicode="Y" horiz-adv-x="526" 
d="M229 322l-222 378h76l180 -316l180 316h76l-222 -378v-322h-68v322z" />
    <glyph glyph-name="Z" unicode="Z" horiz-adv-x="553" 
d="M525 700l-399 -644h399v-56h-511l400 644h-358v56h469z" />
    <glyph glyph-name="bracketleft" unicode="[" horiz-adv-x="320" 
d="M88 -210v945h204v-56h-140v-833h140v-56h-204z" />
    <glyph glyph-name="backslash" unicode="\" horiz-adv-x="476" 
d="M399 -210l-378 945h56l378 -945h-56z" />
    <glyph glyph-name="bracketright" unicode="]" horiz-adv-x="320" 
d="M232 735v-945h-204v56h140v833h-140v56h204z" />
    <glyph glyph-name="asciicircum" unicode="^" horiz-adv-x="480" 
d="M108 500h-68l156 200h88l156 -200h-68l-132 166z" />
    <glyph glyph-name="underscore" unicode="_" horiz-adv-x="500" 
d="M500 -154v-56h-500v56h500z" />
    <glyph glyph-name="grave" unicode="`" horiz-adv-x="250" 
d="M116 637l74 -126h-56l-116 126h98z" />
    <glyph glyph-name="a" unicode="a" horiz-adv-x="562" 
d="M432 434h56v-434h-56v74q-26 -48 -69.5 -70t-90.5 -22q-52 0 -93.5 18.5t-71 50t-45.5 74.5t-16 92q0 51 16.5 94t46.5 74.5t71.5 49t92.5 17.5q18 0 39.5 -3.5t42.5 -14t41 -29t36 -48.5v77zM272 30q35 0 64 13t50.5 37.5t33.5 59t12 77.5q0 38 -11 72t-32 59.5
t-50 40.5t-65 15t-66 -14t-51.5 -39t-34 -59t-12.5 -75q0 -38 11.5 -72t32.5 -59.5t51 -40.5t67 -15z" />
    <glyph glyph-name="b" unicode="b" horiz-adv-x="562" 
d="M134 735v-371q18 30 39.5 47.5t43 26.5t41.5 11.5t34 2.5q50 0 91 -17t70.5 -48t46 -74t16.5 -96q0 -49 -15.5 -92t-44 -75t-70 -50t-92.5 -18q-58 0 -99.5 26t-64.5 66v-74h-56v735h60zM294 30q38 0 67 14.5t49.5 39.5t31 59.5t10.5 73.5q0 33 -9 66t-29 60t-51.5 44
t-76.5 17q-35 0 -64 -15t-49.5 -40.5t-31.5 -59.5t-11 -72q0 -46 14 -81t36.5 -58.5t52.5 -35.5t61 -12z" />
    <glyph glyph-name="c" unicode="c" horiz-adv-x="457" 
d="M429 21q-21 -13 -54 -26t-80 -13q-54 0 -99.5 17.5t-78.5 48.5t-52 74t-19 95t18.5 95.5t51.5 74.5t78.5 48t99.5 17t86 -12.5t49 -24.5v-59q-44 31 -74 39.5t-57 8.5q-45 0 -80 -15t-59 -40.5t-36.5 -59.5t-12.5 -72q0 -43 14 -77.5t39 -59t58 -37.5t71 -13q44 0 78 16
t59 38v-63z" />
    <glyph glyph-name="d" unicode="d" horiz-adv-x="562" 
d="M432 0v74q-26 -48 -69.5 -70t-90.5 -22q-42 0 -82.5 14.5t-72.5 43.5t-51.5 73t-19.5 104q0 50 17 93t47 74.5t72 49.5t92 18q14 0 34 -2.5t41 -11.5t42 -26.5t37 -47.5v371h60v-735h-56zM272 30q35 0 64.5 13t50.5 37.5t33 59t12 77.5q0 38 -11.5 72t-32 59.5
t-49.5 40.5t-65 15q-43 0 -74 -17.5t-51 -44.5t-29.5 -60t-9.5 -65q0 -38 11.5 -72t32.5 -59.5t51 -40.5t67 -15z" />
    <glyph glyph-name="e" unicode="e" horiz-adv-x="515" 
d="M469 114q-13 -27 -31.5 -51t-43 -42t-55.5 -28.5t-70 -10.5q-54 0 -96 20.5t-70 53.5t-42.5 75t-14.5 86q0 46 14.5 88.5t42.5 75t70 52t96 19.5q56 0 94 -21.5t61.5 -53t34 -68.5t10.5 -68v-29h-359q-1 -32 9 -64.5t30 -58.5t50 -42.5t70 -16.5q13 0 32 2.5t40 13
t42.5 32t39.5 59.5zM409 260q-1 26 -10.5 52t-27 46.5t-43 33t-58.5 12.5q-62 0 -104 -40t-51 -104h294z" />
    <glyph glyph-name="f" unicode="f" horiz-adv-x="260" 
d="M88 386h-70v48h70v194q0 20 4 40.5t15 37t30.5 27.5t50.5 11q12 0 28 -2t30 -7v-51q-13 7 -24 9.5t-22 2.5q-18 0 -28 -8t-15.5 -19t-7 -23t-1.5 -20v-192h98v-48h-98v-386h-60v386z" />
    <glyph glyph-name="g" unicode="g" horiz-adv-x="562" 
d="M131 -81q6 -25 20.5 -43t33.5 -29.5t42 -17t46 -5.5q25 0 52.5 7t50 27.5t37.5 58t15 97.5v53q-4 -7 -15 -21t-30 -28.5t-46 -25t-65 -10.5q-41 0 -81.5 14.5t-72.5 43.5t-52 73t-20 104q0 50 16.5 93t46.5 74.5t72 49.5t93 18q17 0 38 -3.5t42.5 -13.5t42 -29t35.5 -49
v77h56v-420q0 -54 -14 -97.5t-41 -75t-67 -48.5t-93 -17t-90 13t-61 33.5t-37.5 46t-19.5 50.5h66zM272 30q35 0 64 13t50.5 37.5t33.5 59t12 77.5q0 38 -11 72t-32 59.5t-50 40.5t-65 15q-43 0 -74 -17.5t-51 -44.5t-29.5 -60t-9.5 -65q0 -38 11.5 -72t32.5 -59.5t51 -40.5
t67 -15z" />
    <glyph glyph-name="h" unicode="h" horiz-adv-x="505" 
d="M74 735h60v-373q8 15 20 30.5t30 29t41.5 22t54.5 8.5q56 0 86.5 -23t44.5 -53t17 -58.5t3 -39.5v-278h-60v270q0 20 -2.5 43t-12 43.5t-29 34t-54.5 13.5q-30 0 -55.5 -13.5t-44 -37.5t-29 -56.5t-10.5 -70.5v-226h-60v735z" />
    <glyph glyph-name="i" unicode="i" horiz-adv-x="208" 
d="M134 434v-434h-60v434h60zM58 581q0 20 13 33t33 13t33 -13t13 -33t-13 -33t-33 -13t-33 13t-13 33z" />
    <glyph glyph-name="j" unicode="j" horiz-adv-x="208" 
d="M134 434v-644h-60v644h60zM58 581q0 20 13 33t33 13t33 -13t13 -33t-13 -33t-33 -13t-33 13t-13 33z" />
    <glyph glyph-name="k" unicode="k" horiz-adv-x="461" 
d="M74 735h60v-477l194 176h82l-213 -187l253 -247h-87l-209 210l-20 -17v-193h-60v735z" />
    <glyph glyph-name="l" unicode="l" horiz-adv-x="208" 
d="M74 735h60v-735h-60v735z" />
    <glyph glyph-name="m" unicode="m" horiz-adv-x="760" 
d="M134 359q18 30 37 48.5t38 28.5t37.5 13t34.5 3q53 0 82.5 -28t37.5 -63q17 32 38 50.5t42 27.5t40 11t32 2q50 0 76.5 -21t39.5 -49t15 -55.5t2 -40.5v-286h-60v286q0 14 -2 34.5t-10.5 39t-26 31.5t-47.5 13q-26 0 -49.5 -11.5t-41.5 -34t-28.5 -54t-10.5 -72.5v-232
h-60v283q0 18 -2.5 39t-11 39t-25 30.5t-45.5 12.5t-53.5 -15t-42 -39t-27 -55t-9.5 -63v-232h-60v434h60v-75z" />
    <glyph glyph-name="n" unicode="n" horiz-adv-x="505" 
d="M74 434h60v-72q8 15 20 30.5t30 29t41.5 22t54.5 8.5q56 0 86.5 -23t44.5 -53t17 -58.5t3 -39.5v-278h-60v270q0 20 -2.5 43t-12 43.5t-29 34t-54.5 13.5q-30 0 -55.5 -13.5t-44 -37.5t-29 -56.5t-10.5 -70.5v-226h-60v434z" />
    <glyph glyph-name="o" unicode="o" horiz-adv-x="564" 
d="M282 -18q-52 0 -95.5 17.5t-74.5 49t-48.5 74.5t-17.5 94t17.5 94t48.5 74.5t74.5 49t95.5 17.5t95.5 -17.5t74.5 -49t48.5 -74.5t17.5 -94t-17.5 -94t-48.5 -74.5t-74.5 -49t-95.5 -17.5zM282 30q35 0 66 13.5t54.5 38t37.5 59t14 76.5t-14 76.5t-37.5 59t-54.5 38
t-66 13.5t-66 -13.5t-54.5 -38t-37.5 -59t-14 -76.5t14 -76.5t37.5 -59t54.5 -38t66 -13.5z" />
    <glyph glyph-name="p" unicode="p" horiz-adv-x="562" 
d="M130 434v-77q20 38 59 66.5t103 28.5q50 0 91 -17t70.5 -48t46 -74t16.5 -96q0 -49 -15.5 -92t-44 -75t-70 -50t-92.5 -18q-34 0 -60 9t-45.5 21.5t-33 27.5t-21.5 27v-277h-60v644h56zM294 30q38 0 67 14.5t49.5 39.5t31 59.5t10.5 73.5q0 33 -9 66t-29 60t-51.5 44
t-76.5 17q-35 0 -64 -15t-49.5 -40.5t-31.5 -59.5t-11 -72q0 -46 14 -81t36.5 -58.5t52.5 -35.5t61 -12z" />
    <glyph glyph-name="q" unicode="q" horiz-adv-x="562" 
d="M428 -210v277q-4 -7 -15 -21t-30 -28.5t-46 -25t-65 -10.5q-42 0 -82.5 14.5t-72.5 43.5t-51.5 73t-19.5 104q0 50 17 93t47 74.5t72 49.5t92 18q17 0 38 -3.5t42.5 -13.5t42 -29t35.5 -49v77h56v-644h-60zM272 30q35 0 64.5 13t50.5 37.5t33 59t12 77.5q0 38 -11.5 72
t-32 59.5t-49.5 40.5t-65 15q-43 0 -74 -17.5t-51 -44.5t-29.5 -60t-9.5 -65q0 -38 11.5 -72t32.5 -59.5t51 -40.5t67 -15z" />
    <glyph glyph-name="r" unicode="r" horiz-adv-x="325" 
d="M74 434h60v-91q17 32 33 51.5t32 30.5t31.5 15t30.5 4q8 0 22 -1.5t31 -8.5l-18 -56q-7 4 -17.5 7.5t-25.5 3.5q-26 0 -48 -17t-37.5 -42t-24.5 -54t-9 -52v-224h-60v434z" />
    <glyph glyph-name="s" unicode="s" horiz-adv-x="382" 
d="M81 115q11 -32 37.5 -58.5t71.5 -26.5q25 0 42 7.5t28 19.5t16 27.5t5 31.5q0 41 -29.5 60t-73.5 32q-20 6 -42 14t-41 21.5t-31 34t-12 52.5q0 57 39.5 89.5t99.5 32.5q15 0 32.5 -3t35.5 -12.5t35.5 -27t31.5 -46.5l-45 -24q-13 31 -38.5 48t-56.5 17q-35 0 -54.5 -20
t-19.5 -49q0 -21 8.5 -33.5t23 -21t34 -14.5t41.5 -13q27 -9 49.5 -20t39 -27t26 -37.5t9.5 -50.5q0 -19 -7 -43t-25 -44.5t-49 -34.5t-78 -14q-15 0 -35 3t-41 14t-41 32.5t-35 57.5z" />
    <glyph glyph-name="t" unicode="t" horiz-adv-x="250" 
d="M88 386h-70v48h70v168h60v-168h84v-48h-84v-386h-60v386z" />
    <glyph glyph-name="u" unicode="u" horiz-adv-x="510" 
d="M436 434v-256q0 -15 -3.5 -47.5t-20.5 -65.5t-54 -58t-103 -25t-103 25t-54 58t-20.5 65.5t-3.5 47.5v256h60v-263q0 -20 4 -44.5t17 -46t36.5 -36t63.5 -14.5t64 14.5t36.5 36t16.5 46t4 44.5v263h60z" />
    <glyph glyph-name="v" unicode="v" horiz-adv-x="434" 
d="M7 434h65l145 -329l145 329h65l-210 -456z" />
    <glyph glyph-name="w" unicode="w" horiz-adv-x="694" 
d="M207 -22l-200 456h70l133 -315l137 358l137 -358l133 315h70l-200 -456l-140 362z" />
    <glyph glyph-name="x" unicode="x" horiz-adv-x="417" 
d="M172 223l-154 211h77l116 -169l108 169h70l-144 -210l161 -224h-76l-123 182l-119 -182h-77z" />
    <glyph glyph-name="y" unicode="y" horiz-adv-x="453" 
d="M79 434l163 -367l139 367h61l-256 -644h-65l90 214l-200 430h68z" />
    <glyph glyph-name="z" unicode="z" horiz-adv-x="425" 
d="M393 434l-273 -386h280v-48h-382l277 386h-257v48h355z" />
    <glyph glyph-name="braceleft" unicode="{" horiz-adv-x="331" 
d="M50 272q35 7 54 27t28 44t10.5 46.5t1.5 33.5q0 14 -0.5 29t-1.5 29t-1.5 28t-0.5 28q0 26 5 53.5t20 51.5t42.5 41t73.5 22v-46q-26 -3 -41 -15.5t-22.5 -28t-9 -31.5t-1.5 -26q0 -19 0.5 -29.5t1 -20.5t1 -24.5t0.5 -42.5q0 -22 -2.5 -49t-14 -53.5t-35.5 -50
t-66 -40.5v-5q42 -16 66 -40t35.5 -50.5t14 -53.5t2.5 -49q0 -28 -0.5 -42.5t-1 -24.5t-1 -20.5t-0.5 -29.5q0 -10 1.5 -26t9 -31.5t22.5 -28t41 -15.5v-46q-46 5 -73.5 22t-42.5 41t-20 51.5t-5 53.5q0 14 0.5 28t1.5 28t1.5 29t0.5 29q0 11 -1.5 33.5t-10.5 46.5t-28 44
t-54 27v53z" />
    <glyph glyph-name="bar" unicode="|" horiz-adv-x="156" 
d="M50 829h56v-1053h-56v1053z" />
    <glyph glyph-name="braceright" unicode="}" horiz-adv-x="331" 
d="M281 219q-34 -7 -53 -27t-28 -44t-11 -46.5t-2 -33.5q0 -14 0.5 -29t1.5 -29t1.5 -28t0.5 -28q0 -26 -5 -53.5t-20 -51.5t-42.5 -41t-73.5 -22v46q26 3 41 15.5t22.5 28t9 31.5t1.5 26q0 19 -0.5 29.5t-1 20.5t-1 24.5t-0.5 42.5q0 22 2.5 49t14 53.5t35.5 50.5t66 40v5
q-42 17 -66 40.5t-35.5 50t-14 53.5t-2.5 49q0 28 0.5 42.5t1 24.5t1 20.5t0.5 29.5q0 10 -1.5 26t-9 31.5t-22.5 28t-41 15.5v46q46 -5 73.5 -22t42.5 -41t20 -51.5t5 -53.5q0 -14 -0.5 -28t-1.5 -28t-1.5 -29t-0.5 -29q0 -11 2 -33.5t11 -46.5t28 -44t53 -27v-53z" />
    <glyph glyph-name="asciitilde" unicode="~" horiz-adv-x="600" 
d="M50 368q22 23 50.5 36.5t59.5 13.5t66 -11.5t79 -28.5q50 -19 80.5 -29.5t54.5 -10.5q21 0 48.5 9t61.5 41v-56q-22 -23 -50.5 -36.5t-59.5 -13.5t-66 11.5t-79 28.5q-50 19 -80.5 29.5t-54.5 10.5q-21 0 -48.5 -9t-61.5 -41v56z" />
    <glyph glyph-name="currency" unicode="&#xa4;" horiz-adv-x="660" 
d="M121 179q-24 30 -42.5 72t-18.5 99t18.5 99t42.5 72l-71 71l38 38l71 -71q30 24 72 42.5t99 18.5t99 -18.5t72 -42.5l71 71l38 -38l-71 -71q24 -30 42.5 -72t18.5 -99t-18.5 -99t-42.5 -72l71 -71l-38 -38l-71 71q-30 -24 -72 -42.5t-99 -18.5t-99 18.5t-72 42.5l-71 -71
l-38 38zM116 350q0 -45 16.5 -84t45.5 -68t68 -45.5t84 -16.5t84 16.5t68 45.5t45.5 68t16.5 84t-16.5 84t-45.5 68t-68 45.5t-84 16.5t-84 -16.5t-68 -45.5t-45.5 -68t-16.5 -84z" />
    <glyph glyph-name="brokenbar" unicode="&#xa6;" horiz-adv-x="156" 
d="M50 829h56v-400h-56v400zM50 176h56v-400h-56v400z" />
    <glyph glyph-name="section" unicode="&#xa7;" horiz-adv-x="472" 
d="M128 0q-1 -20 5 -39t19.5 -33.5t35 -23.5t52.5 -9q46 0 71.5 24t25.5 62q0 35 -13.5 56t-34.5 34.5t-45.5 21t-46.5 14.5q-21 7 -47 19t-48.5 32.5t-37.5 50.5t-15 73q0 57 31.5 98t81.5 58q-48 18 -67.5 54.5t-19.5 73.5q0 28 10.5 55.5t31 49.5t51 35.5t70.5 13.5
q46 0 77.5 -17t51 -43t27.5 -57t7 -60h-63v18q0 15 -5 33t-17 33.5t-30.5 26t-45.5 10.5q-42 0 -71.5 -27.5t-29.5 -72.5q0 -19 5 -34.5t18 -27.5t35.5 -22.5t57.5 -19.5q29 -7 59 -19t54 -31.5t39.5 -49t15.5 -72.5q0 -31 -9.5 -56.5t-25.5 -45.5t-37 -35t-44 -24
q40 -15 67 -51t27 -91q0 -33 -12 -60t-33.5 -46t-51.5 -29.5t-66 -10.5q-54 0 -88 17t-52.5 41.5t-25.5 52.5t-7 50h63zM236 161q54 0 86.5 34.5t32.5 88.5q0 31 -10.5 54t-27.5 38t-38 22.5t-43 7.5q-26 0 -48 -9.5t-37.5 -26t-24.5 -38.5t-9 -48q0 -53 33.5 -88t85.5 -35z
" />
    <glyph glyph-name="copyright" unicode="&#xa9;" horiz-adv-x="840" 
d="M50 350q0 76 29.5 143.5t79.5 117.5t117.5 79.5t143.5 29.5t143.5 -29.5t117.5 -79.5t79.5 -117.5t29.5 -143.5t-29.5 -143.5t-79.5 -117.5t-117.5 -79.5t-143.5 -29.5t-143.5 29.5t-117.5 79.5t-79.5 117.5t-29.5 143.5zM106 350q0 -65 24.5 -122t67.5 -100t100 -67.5
t122 -24.5t122 24.5t100 67.5t67.5 100t24.5 122t-24.5 122t-67.5 100t-100 67.5t-122 24.5t-122 -24.5t-100 -67.5t-67.5 -100t-24.5 -122zM572 156q-30 -17 -64 -27t-74 -10q-55 0 -97.5 20t-71 52t-43.5 74t-15 85q0 45 16 86.5t45.5 74t71.5 51.5t94 19q37 0 68 -8
t70 -30v-78q-34 22 -67 34t-71 12q-33 0 -59.5 -12.5t-45 -34t-28.5 -51t-10 -63.5q0 -72 38.5 -116.5t104.5 -44.5q37 0 70 10.5t68 32.5v-76z" />
    <glyph glyph-name="guillemotleft" unicode="&#xab;" horiz-adv-x="434" 
d="M192 431l42 -28l-131 -183l131 -183l-42 -28l-150 211zM346 431l42 -28l-131 -183l131 -183l-42 -28l-150 211z" />
    <glyph glyph-name="logicalnot" unicode="&#xac;" horiz-adv-x="630" 
d="M50 284h500v-216h-60v160h-440v56z" />
    <glyph glyph-name="registered" unicode="&#xae;" horiz-adv-x="846" 
d="M53 350q0 76 29.5 143.5t79.5 117.5t117.5 79.5t143.5 29.5t143.5 -29.5t117.5 -79.5t79.5 -117.5t29.5 -143.5t-29.5 -143.5t-79.5 -117.5t-117.5 -79.5t-143.5 -29.5t-143.5 29.5t-117.5 79.5t-79.5 117.5t-29.5 143.5zM109 350q0 -65 24.5 -122t67.5 -100t100 -67.5
t122 -24.5t122 24.5t100 67.5t67.5 100t24.5 122t-24.5 122t-67.5 100t-100 67.5t-122 24.5t-122 -24.5t-100 -67.5t-67.5 -100t-24.5 -122zM287 567h164q13 0 34 -4t41 -16t34.5 -35t14.5 -62q0 -28 -10.5 -49.5t-27 -36t-36 -22t-38.5 -7.5h-10l137 -202h-82l-132 200h-19
v-200h-70v434zM357 389h60q51 0 67 18t16 43q0 26 -13 43.5t-60 17.5h-70v-122z" />
    <glyph glyph-name="degree" unicode="&#xb0;" horiz-adv-x="302" 
d="M39 609q0 23 9 43.5t24 35.5t35.5 24t43.5 9t43.5 -9t35.5 -24t24 -35.5t9 -43.5t-9 -43.5t-24 -35.5t-35.5 -24t-43.5 -9t-43.5 9t-35.5 24t-24 35.5t-9 43.5zM87 609q0 -26 19 -45t45 -19t45 19t19 45t-19 45t-45 19t-45 -19t-19 -45z" />
    <glyph glyph-name="plusminus" unicode="&#xb1;" horiz-adv-x="600" 
d="M272 418v222h56v-222h222v-56h-222v-192h-56v192h-222v56h222zM550 116v-56h-500v56h500z" />
    <glyph glyph-name="mu" unicode="&#xb5;" horiz-adv-x="506" 
d="M432 0h-60v72q-13 -27 -30 -43t-33.5 -25t-31.5 -11.5t-24 -2.5t-24 2.5t-31.5 11.5t-33 25t-30.5 43v-282h-60v644h60v-218q0 -33 8 -65t23 -57t37 -40.5t51 -15.5t51 15.5t37 40.5t23 57t8 65v218h60v-434z" />
    <glyph glyph-name="paragraph" unicode="&#xb6;" horiz-adv-x="491" 
d="M205 370q-34 1 -64.5 13.5t-52.5 34.5t-35 51.5t-13 65.5t13 65.5t35.5 51.5t52.5 34.5t64 13.5h62v-885h-62v555zM362 700h62v-885h-62v885z" />
    <glyph glyph-name="periodcentered" unicode="&#xb7;" horiz-adv-x="232" 
d="M70 258q0 20 13 33t33 13t33 -13t13 -33t-13 -33t-33 -13t-33 13t-13 33z" />
    <glyph glyph-name="guillemotright" unicode="&#xbb;" horiz-adv-x="434" 
d="M242 8l-42 28l131 183l-131 183l42 28l150 -211zM88 8l-42 28l131 183l-131 183l42 28l150 -211z" />
    <glyph glyph-name="afii10023" unicode="&#x401;" horiz-adv-x="519" 
d="M88 700h375v-56h-307v-224h296v-56h-296v-308h307v-56h-375v700zM153 800q0 20 13 33t33 13t33 -13t13 -33t-13 -33t-33 -13t-33 13t-13 33zM314 800q0 20 13 33t33 13t33 -13t13 -33t-13 -33t-33 -13t-33 13t-13 33z" />
    <glyph glyph-name="afii10051" unicode="&#x402;" horiz-adv-x="689" 
d="M200 644h-189v56h473v-56h-216v-241q44 14 77.5 18t58.5 4q53 0 96.5 -14.5t75.5 -42.5t49.5 -68.5t17.5 -92.5q0 -58 -18 -98t-50.5 -64.5t-77.5 -35t-99 -9.5v56h39q23 0 47.5 7.5t44 25.5t32 47t12.5 71t-13.5 72.5t-36.5 50.5t-54 29.5t-66 9.5q-26 0 -58 -4t-77 -22
v-343h-68v644z" />
    <glyph glyph-name="afii10052" unicode="&#x403;" horiz-adv-x="407" 
d="M88 700h308v-56h-240v-644h-68v700zM226 851h98l-134 -111h-66z" />
    <glyph glyph-name="afii10053" unicode="&#x404;" horiz-adv-x="672" 
d="M637 36q-60 -32 -115 -44t-105 -12q-81 0 -148 28.5t-114 78t-73 117.5t-26 146q0 87 27.5 155.5t76 116.5t115 73t143.5 25q56 0 109 -12t110 -46v-75q-48 38 -103.5 57.5t-113.5 19.5q-54 0 -105.5 -19.5t-92 -55t-65.5 -85.5t-27 -112h423v-56h-425q2 -66 26.5 -121
t64 -95t91 -62t108.5 -22q66 0 121.5 23.5t97.5 52.5v-76z" />
    <glyph glyph-name="afii10054" unicode="&#x405;" horiz-adv-x="521" 
d="M389 582q-6 15 -16.5 29.5t-26 26t-36 19t-47.5 7.5q-37 0 -61 -11t-38 -27t-20 -34.5t-6 -34.5q0 -30 13.5 -52t36 -39t51 -31t58.5 -28q28 -13 60 -29.5t59 -40.5t45 -58.5t18 -84.5q0 -45 -16.5 -84t-46 -68t-71 -45.5t-91.5 -16.5q-52 0 -90 16t-65 40t-44.5 51.5
t-26.5 49.5l64 32q8 -22 21.5 -45.5t34 -43t48.5 -32t64 -12.5q33 0 60 12t46.5 32.5t30 48.5t10.5 61t-11.5 57t-32 42.5t-49.5 34t-64 31.5q-32 15 -64.5 33t-58.5 41.5t-42.5 54.5t-16.5 71q0 23 8 52t29 54t58.5 42t96.5 17q20 0 45 -3t50 -14t48.5 -32t39.5 -57z" />
    <glyph glyph-name="afii10055" unicode="&#x406;" horiz-adv-x="244" 
d="M88 700h68v-700h-68v700z" />
    <glyph glyph-name="afii10056" unicode="&#x407;" horiz-adv-x="244" 
d="M88 700h68v-700h-68v700zM15 800q0 20 13 33t33 13t33 -13t13 -33t-13 -33t-33 -13t-33 13t-13 33zM137 800q0 20 13 33t33 13t33 -13t13 -33t-13 -33t-33 -13t-33 13t-13 33z" />
    <glyph glyph-name="afii10057" unicode="&#x408;" horiz-adv-x="413" 
d="M131 92q28 -37 55.5 -46.5t48.5 -9.5q30 0 49.5 10.5t30.5 30t15 47.5t4 64v512h68v-516q0 -24 -2.5 -58.5t-18 -67t-50 -55.5t-99.5 -23q-45 0 -78 15.5t-66 51.5z" />
    <glyph glyph-name="afii10058" unicode="&#x409;" horiz-adv-x="956" 
d="M553 700v-294h116q75 0 122.5 -18.5t73.5 -47.5t35.5 -64.5t9.5 -70.5q0 -74 -31.5 -115.5t-75 -61.5t-89 -24t-74.5 -4h-155v644h-253v-377q0 -52 -5 -101t-23 -87t-51.5 -61.5t-90.5 -23.5q-5 0 -20 0.5t-35 5.5v56q8 -2 18.5 -3.5t19.5 -1.5q40 0 63.5 17t36 46.5
t16 68t3.5 81.5v436h389zM651 56q59 0 96 13.5t57.5 35.5t28 48.5t7.5 51.5q0 56 -23 85.5t-52.5 42.5t-57.5 15t-39 2h-115v-294h98z" />
    <glyph glyph-name="afii10059" unicode="&#x40a;" horiz-adv-x="1030" 
d="M88 700h68v-294h403v294h68v-294h116q75 0 122.5 -18.5t73.5 -47.5t35.5 -64.5t9.5 -70.5q0 -74 -31.5 -115.5t-75 -61.5t-89 -24t-74.5 -4h-155v350h-403v-350h-68v700zM725 56q59 0 96 13.5t57.5 35.5t28 48.5t7.5 51.5q0 56 -23 85.5t-52.5 42.5t-57.5 15t-39 2h-115
v-294h98z" />
    <glyph glyph-name="afii10060" unicode="&#x40b;" horiz-adv-x="711" 
d="M200 644h-189v56h474v-56h-217v-245q42 3 62.5 4.5t33.5 2t25 0.5h36q75 0 118 -14t65 -38.5t27.5 -57t5.5 -68.5v-228h-68v212q0 54 -13.5 82t-35.5 40.5t-50.5 14t-59.5 1.5h-30.5t-23 -0.5t-33 -2t-59.5 -4.5v-343h-68v644z" />
    <glyph glyph-name="afii10061" unicode="&#x40c;" horiz-adv-x="571" 
d="M88 700h68v-325l313 325h84l-332 -339l339 -361h-91l-313 340v-340h-68v700zM308 851h98l-134 -111h-66z" />
    <glyph glyph-name="afii10062" unicode="&#x40e;" horiz-adv-x="561" 
d="M91 700l212 -417l189 417h69l-320 -700h-69l97 212l-255 488h77zM280 740q-16 0 -36.5 3.5t-40.5 13t-37.5 27t-29.5 45.5l55 22q7 -22 27 -40.5t62 -18.5t62 18.5t27 40.5l55 -22q-3 -7 -6 -13.5t-8 -12.5q-25 -38 -62 -50.5t-68 -12.5z" />
    <glyph glyph-name="afii10145" unicode="&#x40f;" horiz-adv-x="717" 
d="M88 700h68v-644h405v644h68v-700h-239v-170h-63v170h-239v700z" />
    <glyph glyph-name="afii10017" unicode="&#x410;" horiz-adv-x="650" 
d="M325 720l314 -720h-70l-97 228h-294l-97 -228h-70zM448 284l-123 287l-123 -287h246z" />
    <glyph glyph-name="afii10018" unicode="&#x411;" horiz-adv-x="558" 
d="M88 700h352v-56h-284v-231h115q31 0 72.5 -5.5t79 -26.5t63.5 -61.5t26 -111.5q0 -76 -31 -118t-74.5 -62t-89.5 -24t-75 -4h-154v700zM253 56q59 0 96 14t57.5 36.5t28 49.5t7.5 52q0 57 -23 87t-53 44t-58 16t-38 2h-114v-301h97z" />
    <glyph glyph-name="afii10019" unicode="&#x412;" horiz-adv-x="564" 
d="M232 700q29 0 68.5 -4t74.5 -20.5t59.5 -49.5t24.5 -92q0 -56 -30 -96t-75 -57v-2q34 -2 63.5 -15.5t51 -36.5t34 -55t12.5 -72q0 -59 -22 -98.5t-57.5 -62.5t-78.5 -32t-85 -7h-184v700h144zM245 401q6 0 29 2t48.5 14.5t46 39t20.5 74.5q0 20 -6.5 40.5t-23 36.5
t-44 26t-69.5 10h-90v-243h89zM272 56q50 0 83.5 13t53.5 34t28 46.5t8 50.5q0 55 -24.5 84.5t-55.5 43t-59.5 15.5t-36.5 2h-113v-289h116z" />
    <glyph glyph-name="afii10020" unicode="&#x413;" horiz-adv-x="407" 
d="M88 700h308v-56h-240v-644h-68v700z" />
    <glyph glyph-name="afii10021" unicode="&#x414;" horiz-adv-x="638" 
d="M540 700v-644h84v-196h-63v140h-487v-140h-63v196q68 -4 103 70.5t35 207.5v366h391zM217 334q0 -51 -3 -92.5t-12 -75.5t-24.5 -61t-41.5 -49h336v588h-255v-310z" />
    <glyph glyph-name="afii10022" unicode="&#x415;" horiz-adv-x="519" 
d="M88 700h375v-56h-307v-224h296v-56h-296v-308h307v-56h-375v700z" />
    <glyph glyph-name="afii10024" unicode="&#x416;" horiz-adv-x="846" 
d="M389 343l-287 -343h-91l313 358l-295 342h84l276 -329v329h68v-329l276 329h84l-295 -342l313 -358h-91l-287 343v-343h-68v343z" />
    <glyph glyph-name="afii10025" unicode="&#x417;" horiz-adv-x="546" 
d="M51 614q14 20 33 39t45.5 34t60 24t76.5 9q40 0 74.5 -13t60 -36.5t40 -56t14.5 -72.5q0 -61 -31.5 -103.5t-79.5 -55.5v-3q29 -5 55 -19.5t46.5 -38t32.5 -55.5t12 -73q0 -56 -21 -96.5t-55 -66.5t-77.5 -38.5t-88.5 -12.5q-79 0 -135 38.5t-92 109.5l58 30
q10 -23 26 -45t37.5 -39t48 -27.5t57.5 -10.5q36 0 67.5 11t54.5 32t36.5 51.5t13.5 69.5q0 72 -48.5 112t-129.5 40h-71v56h69q25 0 51 5.5t47 20t34 40t13 65.5q0 46 -17.5 71t-40 37t-43 14.5t-26.5 2.5q-20 0 -40.5 -3.5t-40.5 -12.5t-38.5 -25.5t-34.5 -43.5z" />
    <glyph glyph-name="afii10026" unicode="&#x418;" horiz-adv-x="722" 
d="M156 700v-554l478 582v-728h-68v554l-478 -582v728h68z" />
    <glyph glyph-name="afii10027" unicode="&#x419;" horiz-adv-x="722" 
d="M156 700v-554l478 582v-728h-68v554l-478 -582v728h68zM361 740q-16 0 -36.5 3.5t-40.5 13t-37.5 27t-29.5 45.5l55 22q7 -22 27 -40.5t62 -18.5t62 18.5t27 40.5l55 -22q-12 -28 -29.5 -45.5t-37.5 -27t-40 -13t-37 -3.5z" />
    <glyph glyph-name="afii10028" unicode="&#x41a;" horiz-adv-x="571" 
d="M88 700h68v-325l313 325h84l-332 -339l339 -361h-91l-313 340v-340h-68v700z" />
    <glyph glyph-name="afii10029" unicode="&#x41b;" horiz-adv-x="641" 
d="M553 700v-700h-68v644h-253v-377q0 -52 -5 -101t-23 -87t-51.5 -61.5t-90.5 -23.5q-5 0 -20 0.5t-35 5.5v56q7 -2 16.5 -4t21.5 -2q40 0 63.5 17t36 46t16 68t3.5 83v436h389z" />
    <glyph glyph-name="afii10030" unicode="&#x41c;" horiz-adv-x="858" 
d="M137 728l292 -624l292 624l95 -728h-63l-67 518l-257 -546l-257 546l-67 -518h-63z" />
    <glyph glyph-name="afii10031" unicode="&#x41d;" horiz-adv-x="715" 
d="M88 700h68v-287h403v287h68v-700h-68v357h-403v-357h-68v700z" />
    <glyph glyph-name="afii10032" unicode="&#x41e;" horiz-adv-x="868" 
d="M434 -20q-78 0 -147 26.5t-120 75.5t-81 117t-30 151t30 151t81 117t120 75.5t147 26.5t147 -26.5t120 -75.5t81 -117t30 -151t-30 -151t-81 -117t-120 -75.5t-147 -26.5zM434 36q64 0 120 23t97 65t65 99.5t24 126.5t-24 126.5t-65 99.5t-97 65t-120 23t-120 -23
t-97 -65t-65 -99.5t-24 -126.5t24 -126.5t65 -99.5t97 -65t120 -23z" />
    <glyph glyph-name="afii10033" unicode="&#x41f;" horiz-adv-x="715" 
d="M627 700v-700h-68v644h-403v-644h-68v700h539z" />
    <glyph glyph-name="afii10034" unicode="&#x420;" horiz-adv-x="538" 
d="M88 700h194q28 0 64.5 -5.5t68.5 -24t54.5 -55.5t22.5 -100t-22.5 -100t-55 -56t-68.5 -24.5t-64 -5.5h-126v-329h-68v700zM156 385h123q19 0 43.5 3.5t46.5 17t37.5 39t15.5 70.5q0 49 -18.5 75.5t-43 38.5t-48 13.5t-33.5 1.5h-123v-259z" />
    <glyph glyph-name="afii10035" unicode="&#x421;" horiz-adv-x="700" 
d="M672 62q-60 -46 -127.5 -64t-127.5 -18q-80 0 -146.5 28.5t-114 78.5t-74 117.5t-26.5 145.5q0 82 28.5 150t77.5 117t115 76t140 27q27 0 56.5 -3t62 -12t66.5 -25.5t70 -43.5v-79q-34 33 -67.5 54t-66 32.5t-62.5 16t-57 4.5q-58 0 -111 -23.5t-93 -65.5t-63.5 -99.5
t-23.5 -125.5q0 -63 21.5 -120t59.5 -100t91.5 -68.5t117.5 -25.5q72 0 137.5 28t116.5 76v-78z" />
    <glyph glyph-name="afii10036" unicode="&#x422;" horiz-adv-x="464" 
d="M198 644h-187v56h442v-56h-187v-644h-68v644z" />
    <glyph glyph-name="afii10037" unicode="&#x423;" horiz-adv-x="561" 
d="M91 700l212 -417l189 417h69l-320 -700h-69l97 212l-255 488h77z" />
    <glyph glyph-name="afii10038" unicode="&#x424;" horiz-adv-x="866" 
d="M399 98h-29q-85 0 -146 22.5t-100 60.5t-57 87.5t-18 102.5q0 62 22.5 112t64 86t101 55.5t133.5 19.5h29v84h68v-84h29q74 0 133.5 -19.5t101 -55.5t64 -86t22.5 -112q0 -53 -18 -102.5t-57 -87.5t-100 -60.5t-146 -22.5h-29v-98h-68v98zM467 154q62 2 113 12t87.5 34.5
t57 65.5t20.5 105q0 41 -11.5 79.5t-42.5 68.5t-85 49t-139 20v-434zM399 588q-85 -1 -139 -20t-85 -49t-42.5 -68.5t-11.5 -79.5q0 -64 20.5 -105t57 -65.5t88 -34.5t112.5 -12v434z" />
    <glyph glyph-name="afii10039" unicode="&#x425;" horiz-adv-x="506" 
d="M218 357l-195 343h76l154 -286l154 286h76l-195 -343l211 -357h-76l-170 304l-170 -304h-76z" />
    <glyph glyph-name="afii10040" unicode="&#x426;" horiz-adv-x="715" 
d="M88 700h68v-644h396v644h68v-644h84v-196h-63v140h-553v700z" />
    <glyph glyph-name="afii10041" unicode="&#x427;" horiz-adv-x="598" 
d="M442 315q-13 -1 -33 -2.5t-42 -2.5t-43.5 -1.5t-38.5 -0.5q-80 0 -123.5 16.5t-64 42.5t-24 57.5t-3.5 62.5v213h68v-198q0 -36 4.5 -62t21 -43t48 -25t84.5 -8q22 0 37 0.5t29.5 1t33 2t46.5 3.5v329h68v-700h-68v315z" />
    <glyph glyph-name="afii10042" unicode="&#x428;" horiz-adv-x="992" 
d="M88 700h68v-644h306v644h68v-644h306v644h68v-700h-816v700z" />
    <glyph glyph-name="afii10043" unicode="&#x429;" horiz-adv-x="1076" 
d="M88 700h68v-644h306v644h68v-644h306v644h68v-644h84v-196h-63v140h-837v700z" />
    <glyph glyph-name="afii10044" unicode="&#x42a;" horiz-adv-x="649" 
d="M178 644h-167v56h235v-294h116q75 0 122.5 -18.5t73.5 -47.5t35.5 -64.5t9.5 -70.5q0 -74 -31.5 -115.5t-75 -61.5t-89 -24t-74.5 -4h-155v644zM344 56q59 0 96 13.5t57.5 35.5t28 48.5t7.5 51.5t-7 51t-26 47t-52 34t-86 13h-116v-294h98z" />
    <glyph glyph-name="afii10045" unicode="&#x42b;" horiz-adv-x="746" 
d="M88 700h68v-294h117q32 0 73.5 -5.5t78.5 -26t62.5 -60.5t25.5 -109q0 -74 -31 -115.5t-74.5 -61.5t-89 -24t-74.5 -4h-156v700zM255 56q26 0 58.5 4t61.5 19.5t48.5 45t19.5 80.5q0 50 -18.5 79t-45 43.5t-56 18.5t-51.5 4h-116v-294h99zM590 700h68v-700h-68v700z" />
    <glyph glyph-name="afii10046" unicode="&#x42c;" horiz-adv-x="559" 
d="M88 700h68v-294h116q75 0 122.5 -18.5t73.5 -47.5t35.5 -64.5t9.5 -70.5q0 -74 -31.5 -115.5t-75 -61.5t-89 -24t-74.5 -4h-155v700zM254 56q59 0 96 13.5t57.5 35.5t28 48.5t7.5 51.5q0 56 -23 85.5t-52.5 42.5t-57.5 15t-39 2h-115v-294h98z" />
    <glyph glyph-name="afii10047" unicode="&#x42d;" horiz-adv-x="679" 
d="M42 112q42 -29 97.5 -52.5t121.5 -23.5q57 0 108.5 22t91.5 62t64 95t26 121h-425v56h423q-2 62 -27 112t-65.5 85.5t-92 55t-105.5 19.5q-58 0 -113.5 -19.5t-103.5 -57.5v75q56 34 109 46t111 12q77 0 143 -25t114.5 -73t76 -116.5t27.5 -155.5q0 -78 -26 -146
t-73 -117.5t-114 -78t-148 -28.5q-50 0 -105 12t-115 44v76z" />
    <glyph glyph-name="afii10048" unicode="&#x42e;" horiz-adv-x="1054" 
d="M244 391q4 60 30.5 118.5t74 105.5t116 76t155.5 29q79 0 148 -26.5t120 -75.5t80.5 -117t29.5 -151t-29.5 -151t-80.5 -117t-120 -75.5t-148 -26.5q-97 0 -167 33t-115.5 84.5t-68.5 114.5t-26 123h-87v-335h-68v700h68v-309h88zM620 36q64 0 120 23t97 64.5t65 99
t24 127.5t-24 127.5t-65 99t-97 64.5t-120 23q-63 0 -119 -23t-97 -64t-65 -99t-24 -128t24 -128t65 -99t97 -64t119 -23z" />
    <glyph glyph-name="afii10049" unicode="&#x42f;" horiz-adv-x="550" 
d="M260 311q-42 -1 -79 12t-65 37t-44 59.5t-16 79.5q0 24 8 58t33.5 66t73.5 54.5t127 22.5h164v-700h-68v308h-62l-185 -308h-77zM394 644h-95q-21 0 -50.5 -3.5t-56.5 -17.5t-46.5 -42t-19.5 -77t18 -77.5t44 -42t54.5 -17t49.5 -3.5h102v280z" />
    <glyph glyph-name="afii10065" unicode="&#x430;" horiz-adv-x="562" 
d="M432 434h56v-434h-56v74q-26 -48 -69.5 -70t-90.5 -22q-52 0 -93.5 18.5t-71 50t-45.5 74.5t-16 92q0 51 16.5 94t46.5 74.5t71.5 49t92.5 17.5q18 0 39.5 -3.5t42.5 -14t41 -29t36 -48.5v77zM272 30q35 0 64 13t50.5 37.5t33.5 59t12 77.5q0 38 -11 72t-32 59.5
t-50 40.5t-65 15t-66 -14t-51.5 -39t-34 -59t-12.5 -75q0 -38 11.5 -72t32.5 -59.5t51 -40.5t67 -15z" />
    <glyph glyph-name="afii10066" unicode="&#x431;" horiz-adv-x="564" 
d="M107 345q25 51 74 79t108 28q48 0 88.5 -17.5t70.5 -48.5t47 -74t17 -95q0 -55 -17.5 -98.5t-49 -74t-73.5 -46.5t-92 -16q-66 0 -111 25.5t-72.5 67t-39 95t-11.5 110.5q0 76 11.5 139.5t38.5 112.5t70.5 82.5t107.5 49.5q34 9 62 13.5t50 10.5t39 16.5t29 30.5h64
q-15 -34 -35 -54t-42.5 -31t-47 -16.5t-49.5 -11.5q-66 -15 -110 -36t-71 -53.5t-40 -78t-19 -109.5h3zM279 30q46 0 78 17.5t52.5 44.5t29.5 60t9 65q0 35 -11 68.5t-32 60t-52.5 42.5t-73.5 16q-39 0 -70.5 -15.5t-53 -41.5t-33.5 -59.5t-12 -70.5q0 -36 11 -69.5t33 -60
t53.5 -42t71.5 -15.5z" />
    <glyph glyph-name="afii10067" unicode="&#x432;" horiz-adv-x="459" 
d="M236 434q46 0 73 -12t41 -29t18 -35.5t4 -31.5q0 -25 -13 -52.5t-47 -41.5v-2q18 -2 35 -10.5t30 -22.5t21 -32.5t8 -41.5q0 -13 -4 -33.5t-19.5 -40.5t-47 -34.5t-85.5 -14.5h-176v434h162zM226 249q44 0 66.5 15t22.5 54q0 8 -2 20t-10.5 22.5t-26.5 18t-50 7.5h-92
v-137h92zM245 48q13 0 30 2t32 9.5t25.5 22t10.5 39.5q0 12 -3.5 26t-13.5 26t-28.5 20t-49.5 8h-114v-153h111z" />
    <glyph glyph-name="afii10068" unicode="&#x433;" horiz-adv-x="327" 
d="M74 434h242v-48h-182v-386h-60v434z" />
    <glyph glyph-name="afii10069" unicode="&#x434;" horiz-adv-x="478" 
d="M394 434v-386h63v-160h-56v112h-331v-112h-56v160q35 2 55 19t29.5 42t12 55t2.5 58v212h281zM334 386h-161v-205q0 -43 -12 -76.5t-41 -56.5h214v338z" />
    <glyph glyph-name="afii10070" unicode="&#x435;" horiz-adv-x="515" 
d="M469 114q-13 -27 -31.5 -51t-43 -42t-55.5 -28.5t-70 -10.5q-54 0 -96 20.5t-70 53.5t-42.5 75t-14.5 86q0 46 14.5 88.5t42.5 75t70 52t96 19.5q56 0 94 -21.5t61.5 -53t34 -68.5t10.5 -68v-29h-359q-1 -32 9 -64.5t30 -58.5t50 -42.5t70 -16.5q13 0 32 2.5t40 13
t42.5 32t39.5 59.5zM409 260q-1 26 -10.5 52t-27 46.5t-43 33t-58.5 12.5q-62 0 -104 -40t-51 -104h294z" />
    <glyph glyph-name="afii10072" unicode="&#x436;" horiz-adv-x="628" 
d="M284 226l-196 -226h-77l210 232l-196 202h74l185 -197v197h60v-197l185 197h74l-196 -202l210 -232h-77l-196 226v-226h-60v226z" />
    <glyph glyph-name="afii10073" unicode="&#x437;" horiz-adv-x="431" 
d="M46 357q20 33 43.5 52t47 28.5t45 12t37.5 2.5q32 0 58.5 -9.5t46.5 -26.5t31 -41t11 -53q0 -26 -15.5 -52.5t-60.5 -43.5v-2q15 -3 30.5 -11t28.5 -21t21 -32t8 -45q0 -35 -15 -60t-39 -41.5t-54.5 -24t-62.5 -7.5q-37 0 -66.5 8.5t-52 22.5t-38 32.5t-25.5 38.5l49 25
q14 -25 30.5 -41t34.5 -24t35.5 -11t32.5 -3q46 0 76.5 23t30.5 66q0 29 -13 45.5t-30 24t-33.5 9t-23.5 1.5h-55v48h55q39 0 65.5 17.5t26.5 59.5q0 29 -12 45.5t-27 24t-30 9t-21 1.5q-12 0 -27 -2t-31 -9.5t-33 -23t-33 -42.5z" />
    <glyph glyph-name="afii10074" unicode="&#x438;" horiz-adv-x="503" 
d="M134 434v-315l295 340v-459h-60v312l-295 -340v462h60z" />
    <glyph glyph-name="afii10075" unicode="&#x439;" horiz-adv-x="502" 
d="M134 434v-315l294 340v-459h-60v312l-294 -340v462h60zM258 518q-50 0 -90 27t-54 74l55 22q2 -9 7.5 -22t15.5 -24.5t26 -20t40 -8.5t40 8.5t26 20t15.5 24.5t7.5 22l55 -22q-14 -47 -54 -74t-90 -27z" />
    <glyph glyph-name="afii10076" unicode="&#x43a;" horiz-adv-x="428" 
d="M74 434h60v-194l194 194h72l-209 -202l226 -232h-77l-206 217v-217h-60v434z" />
    <glyph glyph-name="afii10077" unicode="&#x43b;" horiz-adv-x="475" 
d="M401 0h-60v386h-186v-259q0 -25 -6.5 -48t-22.5 -41t-44 -28.5t-71 -9.5v48q29 0 45.5 8t25 23t11 36.5t2.5 47.5v271h306v-434z" />
    <glyph glyph-name="afii10078" unicode="&#x43c;" horiz-adv-x="602" 
d="M124 466l177 -382l177 382l103 -466h-60l-62 308l-158 -336l-158 336l-62 -308h-60z" />
    <glyph glyph-name="afii10079" unicode="&#x43d;" horiz-adv-x="512" 
d="M74 434h60v-188h244v188h60v-434h-60v198h-244v-198h-60v434z" />
    <glyph glyph-name="afii10080" unicode="&#x43e;" horiz-adv-x="564" 
d="M282 -18q-52 0 -95.5 17.5t-74.5 49t-48.5 74.5t-17.5 94t17.5 94t48.5 74.5t74.5 49t95.5 17.5t95.5 -17.5t74.5 -49t48.5 -74.5t17.5 -94t-17.5 -94t-48.5 -74.5t-74.5 -49t-95.5 -17.5zM282 30q35 0 66 13.5t54.5 38t37.5 59t14 76.5t-14 76.5t-37.5 59t-54.5 38
t-66 13.5t-66 -13.5t-54.5 -38t-37.5 -59t-14 -76.5t14 -76.5t37.5 -59t54.5 -38t66 -13.5z" />
    <glyph glyph-name="afii10081" unicode="&#x43f;" horiz-adv-x="498" 
d="M424 434v-434h-60v386h-230v-386h-60v434h350z" />
    <glyph glyph-name="afii10082" unicode="&#x440;" horiz-adv-x="562" 
d="M130 434v-77q20 38 59 66.5t103 28.5q50 0 91 -17t70.5 -48t46 -74t16.5 -96q0 -49 -15.5 -92t-44 -75t-70 -50t-92.5 -18q-34 0 -60 9t-45.5 21.5t-33 27.5t-21.5 27v-277h-60v644h56zM294 30q38 0 67 14.5t49.5 39.5t31 59.5t10.5 73.5q0 33 -9 66t-29 60t-51.5 44
t-76.5 17q-35 0 -64 -15t-49.5 -40.5t-31.5 -59.5t-11 -72q0 -46 14 -81t36.5 -58.5t52.5 -35.5t61 -12z" />
    <glyph glyph-name="afii10083" unicode="&#x441;" horiz-adv-x="457" 
d="M429 21q-21 -13 -54 -26t-80 -13q-54 0 -99.5 17.5t-78.5 48.5t-52 74t-19 95t18.5 95.5t51.5 74.5t78.5 48t99.5 17t86 -12.5t49 -24.5v-59q-44 31 -74 39.5t-57 8.5q-45 0 -80 -15t-59 -40.5t-36.5 -59.5t-12.5 -72q0 -43 14 -77.5t39 -59t58 -37.5t71 -13q44 0 78 16
t59 38v-63z" />
    <glyph glyph-name="afii10084" unicode="&#x442;" horiz-adv-x="390" 
d="M165 386h-154v48h368v-48h-154v-386h-60v386z" />
    <glyph glyph-name="afii10085" unicode="&#x443;" horiz-adv-x="453" 
d="M79 434l163 -367l139 367h61l-256 -644h-65l90 214l-200 430h68z" />
    <glyph glyph-name="afii10086" unicode="&#x444;" horiz-adv-x="670" 
d="M305 -7q-49 0 -95.5 12.5t-83 40t-58.5 70t-22 101.5t22 101.5t58.5 70t83 40t95.5 12.5v259h60v-259q49 0 95.5 -12.5t83 -40t58.5 -70t22 -101.5t-22 -101.5t-58.5 -70t-83 -40t-95.5 -12.5v-203h-60v203zM365 41q28 0 62 7t63.5 26t49.5 53.5t20 89.5t-20 89.5
t-49.5 53.5t-63.5 26t-62 7v-352zM305 393q-28 0 -62 -7t-63.5 -26t-49.5 -53.5t-20 -89.5t20 -89.5t49.5 -53.5t63.5 -26t62 -7v352z" />
    <glyph glyph-name="afii10087" unicode="&#x445;" horiz-adv-x="417" 
d="M172 223l-154 211h77l116 -169l108 169h70l-144 -210l161 -224h-76l-123 182l-119 -182h-77z" />
    <glyph glyph-name="afii10088" unicode="&#x446;" horiz-adv-x="494" 
d="M74 434h60v-386h216v386h60v-386h70v-160h-56v112h-350v434z" />
    <glyph glyph-name="afii10089" unicode="&#x447;" horiz-adv-x="449" 
d="M315 175q-26 -4 -58.5 -7t-55.5 -3q-41 0 -68 7.5t-43.5 24t-23 43t-6.5 63.5v131h60v-131q0 -28 4.5 -45.5t16 -27.5t30 -14t46.5 -4q20 0 48 2.5t50 5.5v214h60v-434h-60v175z" />
    <glyph glyph-name="afii10090" unicode="&#x448;" horiz-adv-x="734" 
d="M74 434h60v-386h203v386h60v-386h203v386h60v-434h-586v434z" />
    <glyph glyph-name="afii10091" unicode="&#x449;" horiz-adv-x="745" 
d="M74 434h60v-386h203v386h60v-386h203v386h60v-386h71v-160h-56v112h-601v434z" />
    <glyph glyph-name="afii10092" unicode="&#x44a;" horiz-adv-x="462" 
d="M262 258q51 0 83 -12t50 -30.5t25 -41.5t7 -45q0 -37 -13 -62t-35.5 -40t-52.5 -21t-65 -6h-145v386h-105v48h165v-176h86zM257 48q12 0 30.5 1.5t35 9t28.5 24t12 46.5q0 29 -12 45.5t-29 24.5t-34.5 9.5t-29.5 1.5h-82v-162h81z" />
    <glyph glyph-name="afii10093" unicode="&#x44b;" horiz-adv-x="575" 
d="M220 258q21 0 49.5 -3.5t54 -16.5t43.5 -39t18 -70q0 -42 -16 -67.5t-40.5 -39t-53.5 -18t-56 -4.5h-145v434h60v-176h86zM215 48q12 0 30.5 1.5t35 9t28.5 24t12 46.5q0 29 -12 45.5t-29 24.5t-34.5 9.5t-29.5 1.5h-82v-162h81zM441 434h60v-434h-60v434z" />
    <glyph glyph-name="afii10094" unicode="&#x44c;" horiz-adv-x="420" 
d="M220 258q21 0 49.5 -3.5t54 -16.5t43.5 -39t18 -70q0 -42 -16 -67.5t-40.5 -39t-53.5 -18t-56 -4.5h-145v434h60v-176h86zM215 48q12 0 30.5 1.5t35 9t28.5 24t12 46.5q0 29 -12 45.5t-29 24.5t-34.5 9.5t-29.5 1.5h-82v-162h81z" />
    <glyph glyph-name="afii10095" unicode="&#x44d;" horiz-adv-x="421" 
d="M28 60q31 -20 55.5 -25t46.5 -5q52 0 86 17t54.5 42t30 55t10.5 55h-234v48h234q-3 23 -12.5 50t-31 51t-56.5 40t-88 16q-17 0 -40 -4.5t-55 -18.5v53q13 5 38.5 11.5t66.5 6.5q55 0 100 -16.5t76.5 -47.5t48.5 -74.5t17 -96.5q0 -63 -22 -107.5t-57 -73t-77.5 -41.5
t-84.5 -13q-46 0 -72 9t-34 13v56z" />
    <glyph glyph-name="afii10096" unicode="&#x44e;" horiz-adv-x="732" 
d="M215 247q7 45 25.5 82.5t48 64.5t70 42.5t91.5 15.5q52 0 95.5 -18t74.5 -49.5t48.5 -74.5t17.5 -93q0 -51 -17.5 -94t-48.5 -74.5t-74.5 -49t-95.5 -17.5q-56 0 -99.5 19.5t-73.5 50.5t-46 69.5t-16 77.5h-81v-199h-60v434h60v-187h81zM450 30q42 0 74.5 16.5t54 43
t32.5 60t11 67.5t-11 67.5t-32.5 60t-54 43t-74.5 16.5q-35 0 -66 -13.5t-54.5 -38t-37 -59t-13.5 -76.5t13.5 -76.5t37 -59t54.5 -38t66 -13.5z" />
    <glyph glyph-name="afii10097" unicode="&#x44f;" horiz-adv-x="428" 
d="M154 187q-21 2 -40.5 10.5t-35 23.5t-24.5 36.5t-9 50.5q0 23 7 45.5t24.5 40.5t47 29t74.5 11h156v-434h-60v182h-84l-115 -182h-67zM294 386h-87q-13 0 -30.5 -2t-33.5 -10t-27 -23.5t-11 -42.5t11 -42.5t27 -23.5t33.5 -10t30.5 -2h87v156z" />
    <glyph glyph-name="afii10071" unicode="&#x451;" horiz-adv-x="515" 
d="M469 114q-13 -27 -31.5 -51t-43 -42t-55.5 -28.5t-70 -10.5q-54 0 -96 20.5t-70 53.5t-42.5 75t-14.5 86q0 46 14.5 88.5t42.5 75t70 52t96 19.5q56 0 94 -21.5t61.5 -53t34 -68.5t10.5 -68v-29h-359q-1 -32 9 -64.5t30 -58.5t50 -42.5t70 -16.5q13 0 32 2.5t40 13
t42.5 32t39.5 59.5zM409 260q-1 26 -10.5 52t-27 46.5t-43 33t-58.5 12.5q-62 0 -104 -40t-51 -104h294zM131 581q0 20 13 33t33 13t33 -13t13 -33t-13 -33t-33 -13t-33 13t-13 33zM292 581q0 20 13 33t33 13t33 -13t13 -33t-13 -33t-33 -13t-33 13t-13 33z" />
    <glyph glyph-name="afii10099" unicode="&#x452;" horiz-adv-x="486" 
d="M73 570h-66v48h66v117h60v-117h224v-48h-224v-208q5 9 15.5 24t27.5 30t42.5 25.5t60.5 10.5q58 0 90.5 -28t48 -65.5t19 -75.5t3.5 -58q0 -57 -12 -103.5t-33.5 -87t-51.5 -77.5t-67 -74l-35 33q41 51 67 90.5t41 75.5t21 72t6 79q0 13 -2.5 41.5t-13 57t-31 50.5
t-57.5 22q-20 0 -44.5 -10t-45.5 -31t-35 -55t-14 -82v-226h-60v570z" />
    <glyph glyph-name="afii10100" unicode="&#x453;" horiz-adv-x="327" 
d="M74 434h242v-48h-182v-386h-60v434zM214 637h98l-116 -126h-56z" />
    <glyph glyph-name="afii10101" unicode="&#x454;" horiz-adv-x="421" 
d="M344 199h-234q2 -33 14 -63.5t34 -54t55 -37.5t78 -14q20 0 45.5 5t56.5 25v-56q-8 -4 -34 -13t-72 -9q-42 0 -85 13t-77.5 41.5t-56.5 73t-22 107.5q0 53 17.5 96.5t49 74.5t76 47.5t99.5 16.5q40 0 65.5 -6.5t39.5 -11.5v-53q-32 14 -55 18.5t-41 4.5q-43 0 -77 -13.5
t-57.5 -35t-36.5 -50t-14 -58.5h232v-48z" />
    <glyph glyph-name="afii10102" unicode="&#x455;" horiz-adv-x="382" 
d="M81 115q11 -32 37.5 -58.5t71.5 -26.5q25 0 42 7.5t28 19.5t16 27.5t5 31.5q0 41 -29.5 60t-73.5 32q-20 6 -42 14t-41 21.5t-31 34t-12 52.5q0 57 39.5 89.5t99.5 32.5q15 0 32.5 -3t35.5 -12.5t35.5 -27t31.5 -46.5l-45 -24q-13 31 -38.5 48t-56.5 17q-35 0 -54.5 -20
t-19.5 -49q0 -17 6 -28.5t15.5 -19.5t21 -12.5t21.5 -8.5q36 -13 67 -24.5t53 -27t34.5 -38t12.5 -58.5q0 -19 -7 -43t-25 -44.5t-49 -34.5t-78 -14q-15 0 -35 3t-41 14t-41 32.5t-35 57.5z" />
    <glyph glyph-name="afii10103" unicode="&#x456;" horiz-adv-x="208" 
d="M134 434v-434h-60v434h60zM58 581q0 20 13 33t33 13t33 -13t13 -33t-13 -33t-33 -13t-33 13t-13 33z" />
    <glyph glyph-name="afii10104" unicode="&#x457;" horiz-adv-x="244" 
d="M152 434v-434h-60v434h60zM15 581q0 20 13 33t33 13t33 -13t13 -33t-13 -33t-33 -13t-33 13t-13 33zM137 581q0 20 13 33t33 13t33 -13t13 -33t-13 -33t-33 -13t-33 13t-13 33z" />
    <glyph glyph-name="afii10105" unicode="&#x458;" horiz-adv-x="208" 
d="M134 434v-644h-60v644h60zM58 581q0 20 13 33t33 13t33 -13t13 -33t-13 -33t-33 -13t-33 13t-13 33z" />
    <glyph glyph-name="afii10106" unicode="&#x459;" horiz-adv-x="687" 
d="M401 258h86q21 0 49.5 -3.5t54 -16.5t43.5 -39t18 -70q0 -42 -16 -67.5t-40.5 -39t-53.5 -18t-56 -4.5h-145v386h-186v-259q0 -25 -6.5 -48t-22.5 -41t-44 -28.5t-71 -9.5v48q29 -1 45.5 8t25 24.5t11 37t2.5 45.5v271h306v-176zM482 48q12 0 30.5 1.5t35 9t28.5 24
t12 46.5q0 29 -12 45.5t-29 24.5t-34.5 9.5t-29.5 1.5h-82v-162h81z" />
    <glyph glyph-name="afii10107" unicode="&#x45a;" horiz-adv-x="724" 
d="M74 434h60v-176h244v176h60v-176h86q21 0 49.5 -3.5t54 -16.5t43.5 -39t18 -70q0 -42 -16 -67.5t-40.5 -39t-53.5 -18t-56 -4.5h-145v210h-244v-210h-60v434zM519 48q12 0 30.5 1.5t35 9t28.5 24t12 46.5q0 29 -12 45.5t-29 24.5t-34.5 9.5t-29.5 1.5h-82v-162h81z" />
    <glyph glyph-name="afii10108" unicode="&#x45b;" horiz-adv-x="504" 
d="M73 570h-66v48h66v117h60v-117h224v-48h-224v-208q8 15 20 30.5t30 29t41.5 22t54.5 8.5q56 0 86.5 -23t44.5 -53t17 -58.5t3 -39.5v-278h-60v270q0 20 -2.5 43t-12 43.5t-29 34t-54.5 13.5q-30 0 -55.5 -13.5t-44 -37.5t-29 -56.5t-10.5 -70.5v-226h-60v570z" />
    <glyph glyph-name="afii10109" unicode="&#x45c;" horiz-adv-x="428" 
d="M74 434h60v-194l194 194h72l-209 -202l226 -232h-77l-206 217v-217h-60v434zM223 637h98l-116 -126h-56z" />
    <glyph glyph-name="afii10110" unicode="&#x45e;" horiz-adv-x="453" 
d="M79 434l163 -367l139 367h61l-256 -644h-65l90 214l-200 430h68zM226 518q-50 0 -90 27t-54 74l55 22q2 -9 7.5 -22t15.5 -24.5t26 -20t40 -8.5t40 8.5t26 20t15.5 24.5t7.5 22l55 -22q-14 -47 -54 -74t-90 -27z" />
    <glyph glyph-name="afii10193" unicode="&#x45f;" horiz-adv-x="498" 
d="M74 434h60v-386h230v386h60v-434h-147v-126h-56v126h-147v434z" />
    <glyph glyph-name="afii10050" unicode="&#x490;" horiz-adv-x="407" 
d="M88 700h245v119h63v-175h-240v-644h-68v700z" />
    <glyph glyph-name="afii10098" unicode="&#x491;" horiz-adv-x="327" 
d="M74 434h186v112h56v-160h-182v-386h-60v434z" />
    <glyph glyph-name="endash" unicode="&#x2013;" horiz-adv-x="600" 
d="M50 284h500v-56h-500v56z" />
    <glyph glyph-name="emdash" unicode="&#x2014;" horiz-adv-x="820" 
d="M781 276v-48h-742v48h742z" />
    <glyph glyph-name="quoteleft" unicode="&#x2018;" horiz-adv-x="260" 
d="M109 473l-63 31l133 217l35 -16z" />
    <glyph glyph-name="quoteright" unicode="&#x2019;" horiz-adv-x="260" 
d="M151 721l63 -31l-133 -217l-35 16z" />
    <glyph glyph-name="quotesinglbase" unicode="&#x201a;" horiz-adv-x="253" 
d="M137 112l70 -33l-125 -230l-36 17z" />
    <glyph glyph-name="quotedblleft" unicode="&#x201c;" horiz-adv-x="379" 
d="M109 473l-63 31l133 217l35 -16zM228 466l-63 31l133 217l35 -16z" />
    <glyph glyph-name="quotedblright" unicode="&#x201d;" horiz-adv-x="379" 
d="M151 721l63 -31l-133 -217l-35 16zM270 714l63 -31l-133 -217l-35 16z" />
    <glyph glyph-name="quotedblbase" unicode="&#x201e;" horiz-adv-x="379" 
d="M151 105l63 -31l-133 -218l-35 17zM270 98l63 -31l-133 -218l-35 17z" />
    <glyph glyph-name="dagger" unicode="&#x2020;" horiz-adv-x="540" 
d="M236 441h-190v56h190v238h68v-238h190v-56h-190v-651h-68v651z" />
    <glyph glyph-name="daggerdbl" unicode="&#x2021;" horiz-adv-x="540" 
d="M304 -210h-68v238h-190v56h190v357h-190v56h190v238h68v-238h190v-56h-190v-357h190v-56h-190v-238z" />
    <glyph glyph-name="bullet" unicode="&#x2022;" horiz-adv-x="340" 
d="M50 332q0 25 9.5 46.5t26 38t38 26t46.5 9.5t46.5 -9.5t38 -26t26 -38t9.5 -46.5t-9.5 -46.5t-26 -38t-38 -26t-46.5 -9.5t-46.5 9.5t-38 26t-26 38t-9.5 46.5z" />
    <glyph glyph-name="ellipsis" unicode="&#x2026;" horiz-adv-x="696" 
d="M70 35q0 20 13 33t33 13t33 -13t13 -33t-13 -33t-33 -13t-33 13t-13 33zM302 35q0 20 13 33t33 13t33 -13t13 -33t-13 -33t-33 -13t-33 13t-13 33zM534 35q0 20 13 33t33 13t33 -13t13 -33t-13 -33t-33 -13t-33 13t-13 33z" />
    <glyph glyph-name="perthousand" unicode="&#x2030;" horiz-adv-x="1172" 
d="M563 721h49l-413 -742h-49zM185 441q22 0 41 9t33.5 24t22.5 35.5t8 44.5t-8 44.5t-22.5 35.5t-33.5 24t-41 9t-41 -9t-33 -24t-22.5 -35.5t-8.5 -44.5t8.5 -44.5t22.5 -35.5t33 -24t41 -9zM25 554q0 33 12.5 62.5t34 51t51 34t62.5 12.5t62.5 -12.5t51 -34t34 -51
t12.5 -62.5t-12.5 -62.5t-34 -51t-51 -34t-62.5 -12.5t-62.5 12.5t-51 34t-34 51t-12.5 62.5zM445 162q0 33 12.5 62.5t34 51t51 34t62.5 12.5t62.5 -12.5t51 -34t34 -51t12.5 -62.5t-12.5 -62.5t-34 -51t-51 -34t-62.5 -12.5t-62.5 12.5t-51 34t-34 51t-12.5 62.5zM605 49
q22 0 41 9t33.5 24t22.5 35.5t8 44.5t-8 44.5t-22.5 35.5t-33.5 24t-41 9t-41 -9t-33 -24t-22.5 -35.5t-8.5 -44.5t8.5 -44.5t22.5 -35.5t33 -24t41 -9zM827 162q0 33 12.5 62.5t34 51t51 34t62.5 12.5t62.5 -12.5t51 -34t34 -51t12.5 -62.5t-12.5 -62.5t-34 -51t-51 -34
t-62.5 -12.5t-62.5 12.5t-51 34t-34 51t-12.5 62.5zM987 49q22 0 41 9t33.5 24t22.5 35.5t8 44.5t-8 44.5t-22.5 35.5t-33.5 24t-41 9t-41 -9t-33 -24t-22.5 -35.5t-8.5 -44.5t8.5 -44.5t22.5 -35.5t33 -24t41 -9z" />
    <glyph glyph-name="guilsinglleft" unicode="&#x2039;" horiz-adv-x="281" 
d="M192 431l43 -28l-131 -183l131 -183l-43 -28l-150 211z" />
    <glyph glyph-name="guilsinglright" unicode="&#x203a;" horiz-adv-x="281" 
d="M89 8l-43 28l131 183l-131 183l43 28l150 -211z" />
    <glyph glyph-name="afii61352" unicode="&#x2116;" horiz-adv-x="1159" 
d="M88 728l531 -585v557h68v-728l-531 585v-557h-68v728zM942 105q-44 0 -77 15.5t-54.5 41.5t-32.5 60.5t-11 71.5q0 38 11 72t32.5 60t54.5 41.5t77 15.5t77 -15.5t55 -41.5t32.5 -60t10.5 -72q0 -37 -10.5 -71.5t-32.5 -60.5t-55 -41.5t-77 -15.5zM942 153
q32 0 54.5 12.5t37 33t21 45.5t6.5 50t-6.5 50t-21 45.5t-37 33t-54.5 12.5t-54.5 -12.5t-37 -33t-21 -45.5t-6.5 -50t6.5 -50t21 -45.5t37 -33t54.5 -12.5zM792 48h301v-48h-301v48z" />
    <glyph glyph-name="trademark" unicode="&#x2122;" horiz-adv-x="652" 
d="M120 644h-70v56h200v-56h-70v-224h-60v224zM492 700h66l44 -280h-62l-28 182l-59 -182h-44l-59 182l-28 -182h-62l44 280h66l61 -191z" />
    <glyph glyph-name="Accent" horiz-adv-x="2" 
d="M-304 851h98l-134 -111h-66z" />
    <glyph glyph-name="accent" horiz-adv-x="2" 
d="M-238 637h98l-116 -126h-56z" />
    <glyph glyph-name="hyphenminus" horiz-adv-x="308" 
d="M266 288v-60h-224v60h224z" />
  </font>
</defs>
</svg>
