<?xml version="1.0" standalone="no"?>
<!DOCTYPE svg PUBLIC "-//W3C//DTD SVG 1.1//EN" "http://www.w3.org/Graphics/SVG/1.1/DTD/svg11.dtd" >
<svg xmlns="http://www.w3.org/2000/svg" xmlns:xlink="http://www.w3.org/1999/xlink" version="1.1">
<metadata>
Created by FontForge 20161003 at Thu Feb  2 00:53:26 2017
 By www-data
Copyright (c) 1990 Neufville SL, Copyright (c) 1990-2000 ParaType, Inc. All Rights Reserved. Futura is a registered trade mark of Neufville SL.
</metadata>
<defs>
<font id="FuturaFuturisBold" horiz-adv-x="596" >
  <font-face 
    font-family="FuturaFuturisBold"
    font-weight="700"
    font-stretch="normal"
    units-per-em="1000"
    panose-1="0 0 0 0 0 0 0 0 0 0"
    ascent="800"
    descent="-200"
    x-height="483"
    cap-height="700"
    bbox="-458 -262 1289 902"
    underline-thickness="50"
    underline-position="-150"
    unicode-range="U+000D-2122"
  />
<missing-glyph horiz-adv-x="233" 
 />
    <glyph glyph-name=".notdef" horiz-adv-x="233" 
 />
    <glyph glyph-name=".null" horiz-adv-x="0" 
 />
    <glyph glyph-name=".null" horiz-adv-x="0" 
 />
    <glyph glyph-name="nonmarkingreturn" unicode="&#xd;" horiz-adv-x="250" 
 />
    <glyph glyph-name="space" unicode=" " horiz-adv-x="233" 
 />
    <glyph glyph-name="exclam" unicode="!" horiz-adv-x="330" 
d="M71 700h188v-469h-188v469zM63 84q0 21 8 39.5t22 32.5t32.5 22t39.5 8t39.5 -8t32.5 -22t22 -32.5t8 -39.5t-8 -39.5t-22 -32.5t-32.5 -22t-39.5 -8t-39.5 8t-32.5 22t-22 32.5t-8 39.5z" />
    <glyph glyph-name="quotedbl" unicode="&#x22;" horiz-adv-x="408" 
d="M156 420h-86l-20 280h126zM338 420h-86l-20 280h126z" />
    <glyph glyph-name="numbersign" unicode="#" horiz-adv-x="680" 
d="M626 298l-16 -100h-113l-32 -198h-122l32 198h-112l-31 -198h-120l31 198h-113l16 100h113l18 118h-113l16 100h113l30 184h120l-30 -184h112l29 184h122l-29 -184h113l-16 -100h-113l-18 -118h113zM409 416h-112l-18 -118h112z" />
    <glyph glyph-name="dollar" unicode="$" horiz-adv-x="558" 
d="M321 -116h-91v99q-52 7 -103.5 30.5t-119.5 78.5l92 149q17 -18 37 -36t42.5 -32t46.5 -23t49 -9q21 0 34.5 7t21 17.5t10.5 21.5t3 20q0 24 -11 39t-29.5 25.5t-43 18.5t-50.5 17q-28 10 -57.5 25t-53.5 39t-39.5 59.5t-15.5 87.5q0 64 24 102.5t55.5 59t62.5 28t45 8.5
v110h91v-110q52 -5 94.5 -19t84.5 -46l-70 -147q-30 29 -61 45.5t-66 16.5q-27 0 -50 -12.5t-23 -47.5q0 -28 20 -40t62 -25q17 -5 33 -10.5t32 -12.5q25 -10 52 -25.5t49.5 -40t37 -61.5t14.5 -91q0 -59 -21.5 -99t-53 -65t-68 -37.5t-66.5 -15.5v-99z" />
    <glyph glyph-name="percent" unicode="%" horiz-adv-x="882" 
d="M623 720h91l-455 -740h-91zM21 528q0 39 15 74t41.5 61.5t61.5 41.5t74 15t74 -15t61.5 -41.5t41.5 -61.5t15 -74t-15 -74t-41.5 -61.5t-61.5 -41.5t-74 -15t-74 15t-61.5 41.5t-41.5 61.5t-15 74zM135 528q0 -33 22.5 -55.5t55.5 -22.5t55.5 22.5t22.5 55.5t-22.5 55.5
t-55.5 22.5t-55.5 -22.5t-22.5 -55.5zM477 172q0 39 15 74t41.5 61.5t61.5 41.5t74 15t74 -15t61.5 -41.5t41.5 -61.5t15 -74t-15 -74t-41.5 -61.5t-61.5 -41.5t-74 -15t-74 15t-61.5 41.5t-41.5 61.5t-15 74zM591 172q0 -33 22.5 -55.5t55.5 -22.5t55.5 22.5t22.5 55.5
t-22.5 55.5t-55.5 22.5t-55.5 -22.5t-22.5 -55.5z" />
    <glyph glyph-name="ampersand" unicode="&#x26;" horiz-adv-x="742" 
d="M476 67q-47 -44 -94 -64.5t-113 -20.5q-60 0 -104.5 16t-73 43t-42.5 62.5t-14 74.5q0 21 5.5 47t22.5 53t50 53t87 47q-31 35 -46.5 64.5t-15.5 73.5q0 38 13 74.5t38 65t62.5 45.5t86.5 17q47 0 84.5 -14.5t63 -40t39 -61.5t13.5 -78q0 -62 -32 -101t-93 -76l82 -90
l99 99l99 -104l-98 -92l147 -160h-203zM279 283q-31 -17 -50 -39.5t-19 -57.5q0 -7 2.5 -19.5t10 -23.5t23 -19.5t40.5 -8.5t48 10.5t51 38.5zM336 427q23 17 45 43t22 58q0 33 -18.5 48.5t-40.5 15.5q-9 0 -19 -3.5t-19 -11.5t-15 -21.5t-6 -34.5q0 -25 15.5 -50t35.5 -44z
" />
    <glyph glyph-name="quotesingle" unicode="'" horiz-adv-x="226" 
d="M156 420h-86l-20 280h126z" />
    <glyph glyph-name="parenleft" unicode="(" horiz-adv-x="360" 
d="M212 -224q-45 73 -73 140.5t-44 128.5t-21.5 116t-5.5 105t5.5 105t21.5 116t44 128.5t73 140.5l98 -59q-36 -64 -59 -122.5t-36.5 -112.5t-18.5 -103t-5 -93t5 -93t18.5 -103t36.5 -112.5t59 -122.5z" />
    <glyph glyph-name="parenright" unicode=")" horiz-adv-x="360" 
d="M148 756q45 -73 73 -140.5t44 -128.5t21.5 -116t5.5 -105t-5.5 -105t-21.5 -116t-44 -128.5t-73 -140.5l-98 59q55 99 87 206t32 225t-32 225t-87 206z" />
    <glyph glyph-name="asterisk" unicode="*" horiz-adv-x="480" 
d="M289 735v-132l114 66l49 -85l-114 -66l114 -66l-49 -85l-114 66v-132h-98v132l-114 -66l-49 85l114 66l-114 66l49 85l114 -66v132h98z" />
    <glyph glyph-name="plus" unicode="+" horiz-adv-x="640" 
d="M50 400h220v220h100v-220h220v-100h-220v-220h-100v220h-220v100z" />
    <glyph glyph-name="comma" unicode="," horiz-adv-x="322" 
d="M119 168h175l-147 -308h-133z" />
    <glyph glyph-name="hyphen" unicode="-" horiz-adv-x="420" 
d="M380 350v-154h-340v154h340z" />
    <glyph glyph-name="period" unicode="." horiz-adv-x="330" 
d="M63 84q0 21 8 39.5t22 32.5t32.5 22t39.5 8t39.5 -8t32.5 -22t22 -32.5t8 -39.5t-8 -39.5t-22 -32.5t-32.5 -22t-39.5 -8t-39.5 8t-32.5 22t-22 32.5t-8 39.5z" />
    <glyph glyph-name="slash" unicode="/" horiz-adv-x="512" 
d="M386 735h105l-365 -945h-105z" />
    <glyph glyph-name="zero" unicode="0" 
d="M298 -20q-17 0 -43.5 3t-56 14.5t-59.5 35t-53.5 64.5t-38.5 103t-15 150q0 89 15 150.5t38.5 102.5t53.5 64.5t59.5 35t56 14.5t43.5 3t43.5 -3t56 -14.5t59.5 -35t53.5 -64.5t38.5 -103t15 -150t-15 -150t-38.5 -103t-53.5 -64.5t-59.5 -35t-56 -14.5t-43.5 -3z
M298 127q32 0 50 22t26.5 55.5t10 72.5t1.5 73t-1.5 73t-10 72.5t-26.5 55.5t-50 22t-50 -22t-26.5 -55.5t-10 -72.5t-1.5 -73t1.5 -73t10 -72.5t26.5 -55.5t50 -22z" />
    <glyph glyph-name="one" unicode="1" 
d="M247 539h-107v161h288v-700h-181v539z" />
    <glyph glyph-name="two" unicode="2" 
d="M546 0h-539l290 338q24 27 39.5 47.5t25 36.5t13.5 30.5t4 29.5q0 35 -22 63t-63 28q-30 0 -47.5 -14.5t-26.5 -34.5t-11 -39.5t-2 -30.5h-175q1 38 13 84t42 86.5t81 68t131 27.5q66 0 114 -20t79.5 -52.5t46.5 -74.5t15 -86q0 -39 -11 -73t-36.5 -71.5t-66.5 -82.5
t-100 -106h206v-154z" />
    <glyph glyph-name="three" unicode="3" 
d="M203 225q0 -13 3 -30t12.5 -32t27 -25.5t45.5 -10.5q30 0 47.5 10.5t26.5 25.5t11.5 32t2.5 29q0 28 -10 43.5t-25 23t-32 9t-31 1.5h-22v120h22q6 0 19.5 2t27 9.5t23.5 23t10 43.5q0 23 -7 37.5t-17.5 22.5t-22.5 11t-22 3q-32 0 -54.5 -21t-20.5 -53h-175
q11 80 43.5 124.5t72 66t77.5 26t59 4.5q44 0 86.5 -10.5t76.5 -34t54.5 -59.5t20.5 -87q0 -54 -27 -92.5t-76 -50.5v-3q22 -6 44 -19t40 -34.5t29.5 -53t11.5 -73.5q0 -50 -18.5 -91t-53.5 -70.5t-84 -45.5t-111 -16q-58 0 -99.5 14.5t-70 37t-46 50.5t-27 55t-12.5 50.5
t-4 37.5h175z" />
    <glyph glyph-name="four" unicode="4" 
d="M329 168h-315v144l252 388h231v-385h78v-147h-78v-168h-168v168zM329 560l-155 -245h155v245z" />
    <glyph glyph-name="five" unicode="5" 
d="M267 546l-16 -91q18 4 37.5 6t42.5 2q53 0 94.5 -16t70 -45t43.5 -68.5t15 -86.5q0 -64 -24.5 -114t-66 -84t-96.5 -51.5t-115 -17.5q-64 0 -116.5 16t-100.5 46l15 168h21q24 -26 46 -42.5t42.5 -25.5t40.5 -12t41 -3q62 0 100 30.5t38 93.5q0 32 -14 53t-36 33t-50 17
t-55 5q-29 0 -57.5 -7t-62.5 -23h-33l77 371h378v-154h-259z" />
    <glyph glyph-name="six" unicode="6" 
d="M472 700l-171 -245q12 4 25.5 6.5t32.5 2.5q47 0 85.5 -17t66 -47.5t42.5 -73t15 -92.5q0 -51 -17 -97t-51.5 -81t-85 -55.5t-118.5 -20.5q-60 0 -109.5 18t-85 51t-54.5 80t-19 105q0 66 18.5 120.5t58.5 112.5l160 233h207zM294 127q45 0 72 30t27 75q0 42 -25.5 73
t-73.5 31q-47 0 -72.5 -30.5t-25.5 -73.5q0 -45 25.5 -75t72.5 -30z" />
    <glyph glyph-name="seven" unicode="7" 
d="M328 539h-286v161h554l-322 -700h-210z" />
    <glyph glyph-name="eight" unicode="8" 
d="M435 370q17 -5 40 -16t43.5 -31.5t35 -52.5t14.5 -78q0 -25 -8.5 -61.5t-36.5 -70t-81.5 -57t-143.5 -23.5t-143.5 23.5t-81.5 57t-36.5 70t-8.5 61.5q0 46 14.5 78t35 52.5t43.5 31.5t40 16v2q-41 15 -71 53t-30 102q0 39 14.5 74t44 61.5t74.5 42t105 15.5t105 -15.5
t74.5 -42t44 -61.5t14.5 -74q0 -64 -30 -102t-71 -53v-2zM298 431q26 0 49.5 17.5t23.5 57.5q0 23 -7.5 38t-19 23.5t-24 11.5t-22.5 3q-9 0 -21.5 -3t-24 -11.5t-19 -23t-7.5 -38.5q0 -21 7 -35.5t17.5 -23t23 -12.5t24.5 -4zM298 127q44 0 66 27.5t22 62.5q0 26 -9 42.5
t-22.5 27t-29 14.5t-27.5 4q-35 0 -61 -23.5t-26 -64.5q0 -35 22.5 -62.5t64.5 -27.5z" />
    <glyph glyph-name="nine" unicode="9" 
d="M124 0l171 245q-12 -4 -25.5 -6.5t-32.5 -2.5q-47 0 -85.5 17t-66 47.5t-42.5 73t-15 92.5q0 51 17 97t51.5 81t85.5 55.5t118 20.5q60 0 109.5 -18t85 -51t54.5 -80t19 -105q0 -66 -18.5 -120.5t-58.5 -112.5l-160 -233h-207zM302 573q-45 0 -72 -30t-27 -75
q0 -42 25.5 -73t73.5 -31q47 0 72.5 30.5t25.5 73.5q0 45 -25.5 75t-72.5 30z" />
    <glyph glyph-name="colon" unicode=":" horiz-adv-x="330" 
d="M63 399q0 21 8 39.5t22 32.5t32.5 22t39.5 8t39.5 -8t32.5 -22t22 -32.5t8 -39.5t-8 -39.5t-22 -32.5t-32.5 -22t-39.5 -8t-39.5 8t-32.5 22t-22 32.5t-8 39.5zM63 84q0 21 8 39.5t22 32.5t32.5 22t39.5 8t39.5 -8t32.5 -22t22 -32.5t8 -39.5t-8 -39.5t-22 -32.5
t-32.5 -22t-39.5 -8t-39.5 8t-32.5 22t-22 32.5t-8 39.5z" />
    <glyph glyph-name="semicolon" unicode=";" horiz-adv-x="322" 
d="M90 399q0 21 8 39.5t22 32.5t32.5 22t39.5 8t39.5 -8t32.5 -22t22 -32.5t8 -39.5t-8 -39.5t-22 -32.5t-32.5 -22t-39.5 -8t-39.5 8t-32.5 22t-22 32.5t-8 39.5zM119 168h175l-147 -308h-133z" />
    <glyph glyph-name="less" unicode="&#x3c;" horiz-adv-x="640" 
d="M558 614v-110l-344 -155l344 -155v-110l-476 222v86z" />
    <glyph glyph-name="equal" unicode="=" horiz-adv-x="640" 
d="M50 490h540v-100h-540v100zM50 310h540v-100h-540v100z" />
    <glyph glyph-name="greater" unicode="&#x3e;" horiz-adv-x="640" 
d="M558 306l-476 -222v110l344 155l-344 155v110l476 -222v-86z" />
    <glyph glyph-name="question" unicode="?" horiz-adv-x="525" 
d="M28 496q-1 42 13 82.5t43 72t73.5 50.5t105.5 19q62 0 106.5 -18.5t73 -48t41.5 -67t13 -75.5q0 -39 -10.5 -73.5t-30.5 -60.5t-48.5 -41t-64.5 -16v-89h-168v181h48q39 0 60 11.5t31.5 26.5t12.5 30t2 22q0 34 -17 52.5t-49 18.5q-21 0 -34 -8.5t-20.5 -20t-10 -23
t-2.5 -17.5v-8h-168zM157 84q0 21 8 39.5t22 32.5t32.5 22t39.5 8t39.5 -8t32.5 -22t22 -32.5t8 -39.5t-8 -39.5t-22 -32.5t-32.5 -22t-39.5 -8t-39.5 8t-32.5 22t-22 32.5t-8 39.5z" />
    <glyph glyph-name="at" unicode="@" horiz-adv-x="878" 
d="M582 271q-12 -53 38 -53q20 0 43.5 6.5t43.5 23.5t33.5 46.5t13.5 75.5q0 71 -25 126t-68.5 92.5t-102 56.5t-124.5 19q-72 0 -129.5 -25.5t-97.5 -68.5t-61 -100t-21 -120q0 -84 29 -144.5t74.5 -100t102.5 -58.5t113 -19t94.5 15.5t61.5 30.5l29 -44q-47 -28 -89.5 -39
t-95.5 -11q-80 0 -149.5 24t-120.5 71t-80.5 116t-29.5 159q0 83 29 151t79 116.5t117.5 75.5t144.5 27q112 0 185 -36.5t116.5 -90t61 -114t17.5 -109.5q0 -56 -19.5 -97t-50.5 -68t-69 -40t-75 -13q-23 0 -40 7t-29 16.5t-19.5 20.5t-12.5 18q-25 -29 -56 -45.5t-62 -16.5
q-26 0 -54 8t-51 26t-37.5 47.5t-14.5 72.5q0 47 18 89t48.5 74t70.5 51t85 19q39 0 56.5 -16t26.5 -35l9 42h100zM402 250q29 0 48.5 14.5t31.5 34t17.5 40t5.5 32.5q0 7 -1.5 19.5t-7.5 24.5t-18.5 21t-33.5 9q-25 0 -43 -12.5t-29.5 -31t-17 -41t-5.5 -42.5q0 -10 2 -22
t8 -22.5t16.5 -17t26.5 -6.5z" />
    <glyph glyph-name="A" unicode="A" horiz-adv-x="722" 
d="M242 700h238l249 -700h-210l-39 121h-238l-39 -121h-210zM281 275h160l-80 258z" />
    <glyph glyph-name="B" unicode="B" horiz-adv-x="678" 
d="M402 700q71 0 112.5 -20t63 -48.5t27.5 -59t6 -50.5q0 -28 -9 -51.5t-24 -42t-35 -31.5t-41 -21v-2q17 -4 42.5 -14.5t49 -31t40 -53t16.5 -80.5q0 -37 -13 -72t-40.5 -62.5t-71 -44t-104.5 -16.5h-358v700h339zM341 424q29 0 46.5 6.5t27.5 16.5t13 21.5t3 21.5
q0 28 -19.5 49t-70.5 21h-82v-136h82zM349 140q11 0 29 1.5t35 8.5t29 22t12 42q0 26 -12 40.5t-28.5 21t-34.5 7.5t-30 1h-90v-144h90z" />
    <glyph glyph-name="C" unicode="C" horiz-adv-x="614" 
d="M579 32q-48 -32 -96 -42t-93 -10q-78 0 -143.5 26.5t-113.5 74.5t-74.5 116.5t-26.5 152.5q0 88 29 156.5t77.5 116t113 72.5t135.5 25q47 0 97 -13t95 -43v-203q-27 32 -68 58t-98 26q-40 0 -73.5 -15t-56.5 -42t-36 -64t-13 -80q0 -40 12 -74.5t35.5 -60t56.5 -40
t75 -14.5q55 0 97 24t69 52v-199z" />
    <glyph glyph-name="D" unicode="D" horiz-adv-x="711" 
d="M63 700h256q108 0 178 -32.5t110.5 -83.5t56 -113t15.5 -121q0 -70 -21 -133.5t-65 -111.5t-112 -76.5t-162 -28.5h-256v700zM281 168q73 0 112.5 23.5t58 54t22 61t3.5 43.5q0 15 -3.5 45t-22 60.5t-58 53.5t-112.5 23h-22v-364h22z" />
    <glyph glyph-name="E" unicode="E" horiz-adv-x="525" 
d="M63 700h420v-168h-224v-98h203v-154h-203v-112h224v-168h-420v700z" />
    <glyph glyph-name="F" unicode="F" horiz-adv-x="511" 
d="M63 700h420v-168h-224v-105h203v-161h-203v-266h-196v700z" />
    <glyph glyph-name="G" unicode="G" horiz-adv-x="799" 
d="M765 406q4 -41 1 -88.5t-15 -95t-36.5 -91.5t-64 -77.5t-97 -53.5t-136.5 -20q-80 0 -150 24t-122.5 70t-82.5 114.5t-30 156.5q0 86 26.5 155.5t75 118t117 75t152.5 26.5q82 0 139.5 -20t95.5 -47.5t59.5 -56.5t30.5 -46l-173 -81q-20 38 -58 60.5t-89 22.5
q-34 0 -66.5 -12.5t-58 -37.5t-40.5 -63t-15 -90t15 -92.5t41 -67.5t60 -41t71 -14q60 0 102 32t54 86h-182v154h376z" />
    <glyph glyph-name="H" unicode="H" horiz-adv-x="756" 
d="M63 700h196v-252h238v252h196v-700h-196v280h-238v-280h-196v700z" />
    <glyph glyph-name="I" unicode="I" horiz-adv-x="322" 
d="M63 700h196v-700h-196v700z" />
    <glyph glyph-name="J" unicode="J" horiz-adv-x="490" 
d="M126 203q5 -17 20 -36t44 -19q30 0 39 20t9 54v478h196v-458q0 -16 -1.5 -42t-8 -55t-20 -58.5t-37.5 -53t-61 -38.5t-90 -15q-68 0 -125 33t-91 89z" />
    <glyph glyph-name="K" unicode="K" horiz-adv-x="700" 
d="M63 700h196v-294l211 294h230l-266 -339l273 -361h-245l-203 301v-301h-196v700z" />
    <glyph glyph-name="L" unicode="L" horiz-adv-x="483" 
d="M63 700h196v-532h210v-168h-406v700z" />
    <glyph glyph-name="M" unicode="M" horiz-adv-x="870" 
d="M116 700h196l123 -427l123 427h196l102 -700h-188l-52 406l-118 -406h-126l-118 406l-52 -406h-188z" />
    <glyph glyph-name="N" unicode="N" horiz-adv-x="777" 
d="M63 700h206l256 -413v413h189v-700h-203l-259 420v-420h-189v700z" />
    <glyph glyph-name="O" unicode="O" horiz-adv-x="816" 
d="M408 -20q-96 0 -166.5 31.5t-117 83.5t-69.5 118.5t-23 136.5t23 136.5t69.5 118.5t117 83.5t166.5 31.5t167 -31.5t117.5 -83.5t69 -118.5t22.5 -136.5t-22.5 -136.5t-69 -118.5t-117.5 -83.5t-167 -31.5zM408 148q34 0 65.5 12.5t55.5 38t38.5 63t14.5 88.5t-14.5 88.5
t-38.5 63t-55.5 38t-65.5 12.5t-65.5 -12.5t-55.5 -38t-38.5 -63t-14.5 -88.5t14.5 -88.5t38.5 -63t55.5 -38t65.5 -12.5z" />
    <glyph glyph-name="P" unicode="P" horiz-adv-x="641" 
d="M63 700h295q75 0 124 -23t78 -58t41 -76t12 -77t-12 -77.5t-41 -76.5t-78.5 -58t-123.5 -23h-99v-231h-196v700zM259 385h56q33 0 52 8.5t28.5 21t12.5 26.5t3 25q0 13 -3 27t-13.5 26t-29 19.5t-50.5 7.5h-56v-161z" />
    <glyph glyph-name="Q" unicode="Q" horiz-adv-x="818" 
d="M671 -60l-70 86q-37 -20 -82.5 -33t-110.5 -13q-81 0 -150 25.5t-119 73t-78.5 116t-28.5 155.5t28.5 155.5t78.5 116.5t119 73t150 25q96 0 167 -31.5t117.5 -83t69 -118t22.5 -137.5q0 -10 -1.5 -37t-9.5 -61.5t-24.5 -72.5t-46.5 -71l95 -108zM558 241q12 21 18 47
t6 62q0 59 -17.5 98t-44 62t-56.5 32.5t-56 9.5q-25 0 -55.5 -9.5t-56.5 -32.5t-44 -62t-18 -98q0 -51 14.5 -89t38.5 -63t55.5 -37.5t65.5 -12.5q20 0 34.5 3t25.5 8l-84 93l120 54z" />
    <glyph glyph-name="R" unicode="R" horiz-adv-x="644" 
d="M63 700h290q59 0 99.5 -13.5t67.5 -34t42 -45.5t22.5 -48.5t9 -42t1.5 -26.5q0 -49 -13.5 -85t-35 -61t-47.5 -40t-51 -24l196 -280h-237l-148 231v-231h-196v700zM307 385q26 0 44 7t28.5 18t15 26t4.5 30t-4.5 29t-15 25.5t-28.5 18.5t-44 7h-48v-161h48z" />
    <glyph glyph-name="S" unicode="S" horiz-adv-x="560" 
d="M431 504q-25 23 -57 42.5t-70 19.5q-22 0 -36 -6t-22.5 -15t-11.5 -19.5t-3 -19.5q0 -16 8 -26.5t20.5 -17.5t27 -11t27.5 -7q39 -9 77.5 -23.5t70 -40.5t51 -67t19.5 -103q0 -52 -18 -94.5t-52 -72.5t-82.5 -46.5t-110.5 -16.5q-34 0 -65 6t-62 19.5t-64 34.5t-71 52
l93 149q42 -40 86 -66.5t88 -26.5q27 0 48 13.5t21 45.5q0 24 -10.5 38.5t-28.5 24.5t-42.5 16.5t-52.5 15.5q-21 6 -49.5 18t-55 35t-44.5 60t-18 94q0 42 15.5 80.5t46 67.5t77 46t107.5 17q41 0 75.5 -8t61.5 -19t46.5 -22.5t29.5 -19.5z" />
    <glyph glyph-name="T" unicode="T" horiz-adv-x="518" 
d="M161 532h-154v168h504v-168h-154v-532h-196v532z" />
    <glyph glyph-name="U" unicode="U" horiz-adv-x="728" 
d="M364 -20q-73 0 -124 17t-85.5 44.5t-54 61.5t-29.5 68t-12.5 63.5t-2.5 48.5v417h196v-413q0 -16 3 -40t14 -46t33.5 -37.5t61.5 -15.5t61.5 15.5t33.5 37.5t14 46t3 40v413h196v-417q0 -19 -2.5 -48.5t-12.5 -63.5t-29.5 -68t-54 -61.5t-85.5 -44.5t-124 -17z" />
    <glyph glyph-name="V" unicode="V" horiz-adv-x="718" 
d="M-7 700h231l145 -462l142 462h214l-266 -700h-189z" />
    <glyph glyph-name="W" unicode="W" horiz-adv-x="1092" 
d="M431 0h-192l-246 700h214l124 -427l110 427h210l110 -427l124 427h214l-246 -700h-192l-115 448z" />
    <glyph glyph-name="X" unicode="X" horiz-adv-x="713" 
d="M249 368l-231 332h235l104 -189l104 189h222l-219 -322l256 -378h-231l-132 231l-140 -231h-224z" />
    <glyph glyph-name="Y" unicode="Y" horiz-adv-x="666" 
d="M235 272l-242 428h231l119 -246l116 246h214l-242 -428v-272h-196v272z" />
    <glyph glyph-name="Z" unicode="Z" horiz-adv-x="609" 
d="M616 700l-315 -532h287v-168h-595l322 532h-266v168h567z" />
    <glyph glyph-name="bracketleft" unicode="[" horiz-adv-x="360" 
d="M78 -210v945h246v-84h-106v-777h106v-84h-246z" />
    <glyph glyph-name="backslash" unicode="\" horiz-adv-x="512" 
d="M386 -210l-365 945h105l365 -945h-105z" />
    <glyph glyph-name="bracketright" unicode="]" horiz-adv-x="360" 
d="M282 735v-945h-246v84h106v777h-106v84h246z" />
    <glyph glyph-name="asciicircum" unicode="^" horiz-adv-x="580" 
d="M156 370h-136l190 330h160l190 -330h-136l-134 252z" />
    <glyph glyph-name="underscore" unicode="_" horiz-adv-x="500" 
d="M500 -110v-100h-500v100h500z" />
    <glyph glyph-name="grave" unicode="`" horiz-adv-x="520" 
d="M275 700l109 -161h-132l-200 161h223z" />
    <glyph glyph-name="a" unicode="a" horiz-adv-x="637" 
d="M413 483h168v-483h-168v57q-26 -33 -65 -54t-93 -21q-46 0 -87 17.5t-71.5 51t-48.5 82t-18 109.5q0 46 12.5 92t40 83t70 60.5t102.5 23.5q51 0 88.5 -17.5t69.5 -59.5v59zM315 126q47 0 76 31t29 85q0 53 -29 84t-76 31q-27 0 -47 -10t-32.5 -26.5t-18.5 -37t-6 -41.5
q0 -22 6 -42.5t19 -37t32.5 -26.5t46.5 -10z" />
    <glyph glyph-name="b" unicode="b" horiz-adv-x="638" 
d="M231 735v-302q35 37 69 52.5t83 15.5q60 0 102.5 -23t70 -60t40 -83.5t12.5 -92.5q0 -53 -15.5 -100.5t-45 -83t-71 -56t-93.5 -20.5q-36 0 -67.5 10t-62.5 36q-16 13 -29 29v-57h-168v735h175zM322 126q47 0 76 31t29 85q0 53 -29 84t-76 31q-28 0 -47.5 -10t-32.5 -26
t-19 -37t-6 -42q0 -22 6 -42.5t19 -37t32.5 -26.5t47.5 -10z" />
    <glyph glyph-name="c" unicode="c" horiz-adv-x="459" 
d="M429 19q-3 -1 -16 -7t-33.5 -13t-47 -12t-56.5 -5q-53 0 -98 18t-78 51.5t-51.5 81.5t-18.5 109q0 51 15.5 97.5t46 82.5t77 57.5t107.5 21.5q40 0 75.5 -9t77.5 -29v-152q-25 24 -55 37t-60 13q-51 0 -77 -34.5t-26 -85.5q0 -52 29 -84.5t81 -32.5q20 0 47.5 9.5
t60.5 38.5v-153z" />
    <glyph glyph-name="d" unicode="d" horiz-adv-x="638" 
d="M414 0v57q-26 -33 -65 -54t-93 -21q-47 0 -88 17.5t-72 51t-48.5 82t-17.5 109.5q0 46 12.5 92.5t40 83.5t70.5 60t103 23q48 0 83 -15t68 -53v302h175v-735h-168zM316 126q47 0 76 31t29 85q0 53 -29 84t-76 31q-28 0 -47.5 -10t-32.5 -26t-19 -37t-6 -42q0 -22 6 -42.5
t19 -37t32.5 -26.5t47.5 -10z" />
    <glyph glyph-name="e" unicode="e" horiz-adv-x="592" 
d="M558 147q-21 -62 -58.5 -95.5t-77 -49t-74 -18t-50.5 -2.5q-56 0 -105 17t-85 50t-57 81.5t-21 111.5q0 57 18.5 105t53 82t83.5 53t111 19q86 0 139 -31.5t81.5 -77t38 -97t7.5 -92.5h-368q-1 -23 5.5 -44t19.5 -37t33 -25.5t46 -9.5q36 0 60.5 15.5t31.5 44.5h168z
M394 298q-1 19 -7.5 36.5t-19 31t-30 22t-41.5 8.5q-45 0 -70.5 -29.5t-27.5 -68.5h196z" />
    <glyph glyph-name="f" unicode="f" horiz-adv-x="357" 
d="M70 357h-63v126h63v95q0 14 3.5 42t21 56t55 49t106.5 21q20 0 46 -3t48 -8v-128q-11 5 -25 9t-24 4q-20 0 -31 -8.5t-16.5 -20.5t-7 -24.5t-1.5 -20.5v-63h105v-126h-105v-357h-175v357z" />
    <glyph glyph-name="g" unicode="g" horiz-adv-x="645" 
d="M246 -39q1 -29 24 -44t51 -15q17 0 34.5 3t32 14.5t24 33.5t9.5 61v38q-37 -33 -71.5 -42.5t-67.5 -9.5q-55 0 -101.5 18.5t-80 52t-52 82t-18.5 108.5t19.5 105t51.5 75t72.5 45t82.5 15q18 0 40 -2.5t44 -10t43 -20.5t38 -34v49h168v-469q0 -48 -15.5 -91t-48 -76
t-83 -52t-121.5 -19q-62 0 -108.5 14t-79 39t-51.5 59t-25 73h189zM319 140q20 0 39.5 6.5t35 20t25 35t9.5 50.5q0 33 -11.5 54.5t-28.5 33.5t-36 16.5t-33 4.5t-32.5 -4.5t-35.5 -16.5t-28.5 -33.5t-11.5 -54.5q0 -29 9.5 -50.5t25 -35t35 -20t38.5 -6.5z" />
    <glyph glyph-name="h" unicode="h" horiz-adv-x="609" 
d="M56 735h175v-308q27 35 66.5 54.5t90.5 19.5q59 0 93 -23t51.5 -57t22.5 -71.5t5 -67.5v-282h-175v266q0 11 -1 26.5t-7 30t-18.5 24.5t-35.5 10q-17 0 -33.5 -7t-29.5 -21.5t-21 -37t-8 -53.5v-238h-175v735z" />
    <glyph glyph-name="i" unicode="i" horiz-adv-x="290" 
d="M233 483v-483h-175v483h175zM53 623q0 38 27 65t65 27t65 -27t27 -65t-27 -65t-65 -27t-65 27t-27 65z" />
    <glyph glyph-name="j" unicode="j" horiz-adv-x="290" 
d="M233 483v-693h-175v693h175zM53 623q0 38 27 65t65 27t65 -27t27 -65t-27 -65t-65 -27t-65 27t-27 65z" />
    <glyph glyph-name="k" unicode="k" horiz-adv-x="626" 
d="M56 735h175v-437l164 185h217l-220 -227l245 -256h-228l-178 200v-200h-175v735z" />
    <glyph glyph-name="l" unicode="l" horiz-adv-x="287" 
d="M56 735h175v-735h-175v735z" />
    <glyph glyph-name="m" unicode="m" horiz-adv-x="896" 
d="M231 432q63 69 152 69q51 0 88 -19t57 -55q30 38 65 56t88 18q49 0 81 -16.5t51 -42t26.5 -56t7.5 -59.5v-327h-175v282q0 6 -1 18t-6 25t-16 22.5t-32 9.5q-28 0 -53 -23t-25 -75v-259h-175v282q0 6 -1 18t-6 25t-16 22.5t-32 9.5q-28 0 -53 -23t-25 -75v-259h-175v483
h175v-51z" />
    <glyph glyph-name="n" unicode="n" horiz-adv-x="609" 
d="M56 483h175v-56q27 35 66.5 54.5t90.5 19.5q59 0 93 -23t51.5 -57t22.5 -71.5t5 -67.5v-282h-175v266q0 11 -1 26.5t-7 30t-18.5 24.5t-35.5 10q-17 0 -33.5 -7t-29.5 -21.5t-21 -37t-8 -53.5v-238h-175v483z" />
    <glyph glyph-name="o" unicode="o" horiz-adv-x="638" 
d="M319 -18q-75 0 -129.5 21t-90 57t-52.5 83t-17 99q0 51 17 98t52.5 82.5t90 57t129.5 21.5t129.5 -21.5t90 -57t52.5 -82.5t17 -98q0 -52 -17 -99t-52.5 -83t-90 -57t-129.5 -21zM319 108q53 0 80.5 37t27.5 97t-27.5 96.5t-80.5 36.5t-80.5 -36.5t-27.5 -96.5t27.5 -97
t80.5 -37z" />
    <glyph glyph-name="p" unicode="p" horiz-adv-x="638" 
d="M224 483v-59q32 40 69 58.5t90 18.5q51 0 92.5 -18.5t71 -52.5t45.5 -82t16 -106q0 -53 -15.5 -100.5t-45 -83t-71 -56t-93.5 -20.5q-43 0 -81 15.5t-71 51.5v-259h-175v693h168zM322 126q47 0 76 31t29 85q0 53 -29 84t-76 31q-28 0 -47.5 -10t-32.5 -26t-19 -37t-6 -42
q0 -22 6 -42.5t19 -37t32.5 -26.5t47.5 -10z" />
    <glyph glyph-name="q" unicode="q" horiz-adv-x="638" 
d="M407 -210v259q-27 -32 -65 -49.5t-86 -17.5q-47 0 -88 17.5t-72 51t-48.5 82t-17.5 109.5q0 46 12.5 92.5t40 83.5t70.5 60t103 23q51 0 88.5 -17.5t69.5 -59.5v59h168v-693h-175zM316 126q47 0 76 31t29 85q0 53 -29 84t-76 31q-28 0 -47.5 -10t-32.5 -26t-19 -37
t-6 -42q0 -22 6 -42.5t19 -37t32.5 -26.5t47.5 -10z" />
    <glyph glyph-name="r" unicode="r" horiz-adv-x="413" 
d="M56 483h168v-63q4 5 7.5 9.5t7.5 9.5q31 34 65.5 44.5t56.5 10.5q10 0 25 -1.5t20 -2.5v-154q-12 5 -22 6.5t-23 1.5q-48 0 -74.5 -19.5t-38.5 -43.5t-14.5 -46.5t-2.5 -28.5v-206h-175v483z" />
    <glyph glyph-name="s" unicode="s" horiz-adv-x="466" 
d="M70 153q26 -17 61.5 -31t73.5 -14q31 0 41 11.5t10 22.5q0 12 -6 19.5t-15 11.5t-18.5 6t-16.5 3q-79 12 -121 45t-42 104q0 34 11.5 65t35.5 54t61.5 37t89.5 14q59 0 106.5 -12.5t82.5 -29.5l-55 -112q-32 21 -60.5 30t-50.5 9q-19 0 -29.5 -5t-16 -11.5t-6.5 -13.5
t-1 -11q0 -10 3.5 -17.5t12.5 -12.5t25.5 -8.5t43.5 -6.5q10 -1 33.5 -6.5t47.5 -20.5t42 -43.5t18 -75.5q0 -33 -11 -64t-36 -55t-66 -38.5t-101 -14.5t-107 12t-89 38z" />
    <glyph glyph-name="t" unicode="t" horiz-adv-x="350" 
d="M70 357h-63v126h63v133h175v-133h98v-126h-98v-357h-175v357z" />
    <glyph glyph-name="u" unicode="u" horiz-adv-x="602" 
d="M224 483v-264q0 -12 1.5 -28t9 -30.5t23 -24.5t43.5 -10t43.5 10t23 24.5t9 30.5t1.5 28v264h175v-260q0 -14 -1.5 -37.5t-9 -50t-23 -54t-43.5 -49.5t-71 -36t-104 -14t-104 14t-71 36t-43.5 49.5t-23 54t-9 50t-1.5 37.5v260h175z" />
    <glyph glyph-name="v" unicode="v" horiz-adv-x="538" 
d="M-11 483h189l105 -259l88 259h178l-199 -483h-137z" />
    <glyph glyph-name="w" unicode="w" horiz-adv-x="784" 
d="M310 0h-125l-196 483h172l91 -259l80 259h120l80 -259l91 259h172l-196 -483h-125l-82 252z" />
    <glyph glyph-name="x" unicode="x" horiz-adv-x="602" 
d="M205 258l-177 225h214l77 -129l79 129h204l-182 -227l189 -256h-203l-98 158l-103 -158h-212z" />
    <glyph glyph-name="y" unicode="y" horiz-adv-x="608" 
d="M192 483l133 -259l113 259h181l-350 -693h-189l147 280l-238 413h203z" />
    <glyph glyph-name="z" unicode="z" horiz-adv-x="518" 
d="M511 483l-248 -357h227v-126h-490l245 357h-217v126h483z" />
    <glyph glyph-name="braceleft" unicode="{" horiz-adv-x="512" 
d="M114 296q33 2 52 18t28.5 37.5t12 44t2.5 35.5q0 15 -0.5 29.5t-1.5 29.5q-1 14 -1.5 28.5t-0.5 28.5q0 56 19 90t47.5 52t62.5 23.5t64 3.5v-80q-31 -5 -48.5 -17.5t-25.5 -27t-10 -28t-2 -20.5q0 -42 1 -62t2.5 -34t2.5 -28.5t1 -44.5q0 -18 -2.5 -34.5t-14 -32.5
t-33.5 -30t-61 -27v-8q39 -13 61 -27t33.5 -30t14 -32.5t2.5 -34.5q0 -30 -1 -44.5t-2.5 -28.5t-2.5 -34t-1 -62q0 -7 2 -20.5t10 -28t25.5 -27t48.5 -17.5v-80q-30 -2 -64 3.5t-62.5 23.5t-47.5 52t-19 90q0 14 0.5 28.5t1.5 28.5q1 15 1.5 29.5t0.5 29.5q0 14 -2.5 36
t-12 43.5t-28.5 37.5t-52 18v100z" />
    <glyph glyph-name="bar" unicode="|" horiz-adv-x="504" 
d="M202 787h100v-1049h-100v1049z" />
    <glyph glyph-name="braceright" unicode="}" horiz-adv-x="512" 
d="M398 196q-33 -2 -52 -18t-28.5 -37.5t-12 -43.5t-2.5 -36q0 -15 0.5 -29.5t1.5 -29.5q1 -14 1.5 -28.5t0.5 -28.5q0 -56 -19 -90t-47.5 -52t-62.5 -23.5t-64 -3.5v80q31 5 48.5 17.5t25.5 27t10 28t2 20.5q0 42 -1 62t-2.5 34t-2.5 28.5t-1 44.5q0 18 2.5 34.5t14 32.5
t33.5 30t61 27v8q-39 13 -61 27t-33.5 30t-14 32.5t-2.5 34.5q0 30 1 44.5t2.5 28.5t2.5 34t1 62q0 7 -2 20.5t-10 28t-25.5 27t-48.5 17.5v80q30 2 64 -3.5t62.5 -23.5t47.5 -52t19 -90q0 -14 -0.5 -28.5t-1.5 -28.5q-1 -15 -1.5 -29.5t-0.5 -29.5q0 -13 2.5 -35.5t12 -44
t28.5 -37.5t52 -18v-100z" />
    <glyph glyph-name="asciitilde" unicode="~" horiz-adv-x="700" 
d="M620 397q-10 -22 -26 -45t-37.5 -41t-48.5 -29.5t-60 -11.5q-32 0 -60.5 10.5t-57.5 22.5q-40 17 -60 22.5t-31 5.5q-17 0 -33.5 -6t-29.5 -17q-14 -11 -22 -22t-10 -16l-64 44q13 26 29.5 47.5t31.5 35.5q21 20 46.5 32t57.5 12q31 0 60.5 -10.5t53.5 -21.5t48 -20
t51 -9q30 0 53 13t45 48z" />
    <glyph glyph-name="currency" unicode="&#xa4;" horiz-adv-x="720" 
d="M211 604q38 28 76 37t73 9t73 -9t76 -37l105 104l72 -72l-104 -105q17 -25 30 -60t13 -86q0 -50 -12.5 -85t-30.5 -60l104 -105l-72 -72l-104 104q-38 -29 -76.5 -38t-73.5 -9t-73.5 9t-76.5 38l-104 -104l-72 72l104 105q-18 25 -30.5 60t-12.5 85q0 51 13 86t30 60
l-104 105l72 72zM360 232q32 0 59 11t47 31t31.5 48.5t11.5 62.5q0 35 -11.5 63t-31.5 48t-47 31t-59 11t-59 -11t-47 -31t-31.5 -48t-11.5 -63q0 -34 11.5 -62.5t31.5 -48.5t47 -31t59 -11z" />
    <glyph glyph-name="brokenbar" unicode="&#xa6;" horiz-adv-x="504" 
d="M202 787h100v-378h-100v378zM202 115h100v-377h-100v377z" />
    <glyph glyph-name="section" unicode="&#xa7;" 
d="M231 6q-2 -14 0.5 -27.5t10.5 -25t22 -18.5t35 -7q27 0 42.5 16t15.5 41q0 18 -8 29.5t-22 18t-32.5 10t-39.5 6.5q-24 3 -61 11t-72.5 28.5t-61 56.5t-25.5 96q0 53 26 95.5t76 61.5q-28 16 -52.5 46.5t-24.5 80.5q0 35 13.5 69.5t42 62.5t73 45.5t106.5 17.5
q72 0 119 -20t74.5 -50.5t39 -67t14.5 -69.5h-168v11q0 5 -2 14.5t-9 18.5t-20.5 16t-36.5 7q-31 0 -47 -17.5t-16 -43.5q0 -17 9 -27.5t22.5 -17t29.5 -9.5t31 -5q27 -3 65.5 -12.5t74 -31.5t61 -61t25.5 -101q0 -45 -23.5 -86t-67.5 -64q23 -10 36.5 -25.5t21 -33
t9.5 -34.5t2 -30q0 -33 -15.5 -65t-47 -57t-78.5 -40.5t-111 -15.5t-108.5 19.5t-71.5 49.5t-39.5 66t-12.5 68h176zM298 174q14 0 29 4.5t27 15t20 26.5t8 38q0 23 -8 38.5t-20 26t-27 15t-29 4.5t-29 -4.5t-27 -15t-20 -26t-8 -38.5q0 -22 8 -38t20 -26.5t27 -15t29 -4.5z
" />
    <glyph glyph-name="copyright" unicode="&#xa9;" horiz-adv-x="840" 
d="M565 161q-35 -18 -63.5 -26.5t-70.5 -8.5q-48 0 -88 17t-69.5 47t-45.5 71t-16 89q0 43 15.5 83.5t44 71.5t69 49.5t90.5 18.5q32 0 65.5 -8t68.5 -29v-117q-21 16 -46.5 27.5t-53.5 11.5q-20 0 -40 -6t-36.5 -18.5t-27 -33t-10.5 -50.5q0 -54 30.5 -81.5t83.5 -27.5
q24 0 49 8.5t51 27.5v-116zM50 350q0 76 29.5 143.5t79.5 117.5t117.5 79.5t143.5 29.5t143.5 -29.5t117.5 -79.5t79.5 -117.5t29.5 -143.5t-29.5 -143.5t-79.5 -117.5t-117.5 -79.5t-143.5 -29.5t-143.5 29.5t-117.5 79.5t-79.5 117.5t-29.5 143.5zM112 350q0 -64 24 -120
t66 -98t98 -66t120 -24t120 24t98 66t66 98t24 120t-24 120t-66 98t-98 66t-120 24t-120 -24t-98 -66t-66 -98t-24 -120z" />
    <glyph glyph-name="guillemotleft" unicode="&#xab;" horiz-adv-x="540" 
d="M416 483l96 -59l-126 -172l126 -172l-96 -59l-170 231zM198 483l96 -59l-126 -172l126 -172l-96 -59l-170 231z" />
    <glyph glyph-name="logicalnot" unicode="&#xac;" horiz-adv-x="640" 
d="M50 288h540v-288h-120v188h-420v100z" />
    <glyph glyph-name="registered" unicode="&#xae;" horiz-adv-x="840" 
d="M250 556h194q71 0 107.5 -38t36.5 -92q0 -31 -9 -51.5t-22 -33t-28.5 -19t-27.5 -9.5l101 -170h-135l-86 163h-5v-163h-126v413zM376 388h51q2 0 7.5 1t10.5 4.5t9 10.5t4 20q0 11 -6 22.5t-35 11.5h-41v-70zM50 350q0 76 29.5 143.5t79.5 117.5t117.5 79.5t143.5 29.5
t143.5 -29.5t117.5 -79.5t79.5 -117.5t29.5 -143.5t-29.5 -143.5t-79.5 -117.5t-117.5 -79.5t-143.5 -29.5t-143.5 29.5t-117.5 79.5t-79.5 117.5t-29.5 143.5zM112 350q0 -64 24 -120t66 -98t98 -66t120 -24t120 24t98 66t66 98t24 120t-24 120t-66 98t-98 66t-120 24
t-120 -24t-98 -66t-66 -98t-24 -120z" />
    <glyph glyph-name="degree" unicode="&#xb0;" horiz-adv-x="520" 
d="M108 548q0 32 12 59.5t32.5 48t48 32.5t59.5 12t59.5 -12t48 -32.5t32.5 -48t12 -59.5t-12 -59.5t-32.5 -48t-48 -32.5t-59.5 -12t-59.5 12t-48 32.5t-32.5 48t-12 59.5zM178 548q0 -38 23.5 -62t58.5 -24t58.5 24t23.5 62t-23.5 62t-58.5 24t-58.5 -24t-23.5 -62z" />
    <glyph glyph-name="plusminus" unicode="&#xb1;" horiz-adv-x="640" 
d="M270 490v190h100v-190h220v-100h-220v-180h-100v180h-220v100h220zM590 150v-100h-540v100h540z" />
    <glyph glyph-name="mu" unicode="&#xb5;" horiz-adv-x="616" 
d="M560 0h-175v56q-12 -31 -33 -48.5t-44 -17.5q-5 0 -14.5 2t-20.5 9t-22 20t-20 35v-246h-175v673h175v-230q0 -24 4.5 -45.5t14 -38t24 -26t34.5 -9.5t34.5 9.5t24 26t14 38t4.5 45.5v230h175v-483z" />
    <glyph glyph-name="paragraph" unicode="&#xb6;" horiz-adv-x="582" 
d="M203 385q-44 1 -77 17.5t-54.5 41.5t-32.5 55.5t-11 60.5q0 37 14 69t37.5 55.5t55.5 37t68 13.5h126v-945h-126v595zM413 735h126v-945h-126v945z" />
    <glyph glyph-name="periodcentered" unicode="&#xb7;" horiz-adv-x="233" 
d="M14 273q0 21 8 39.5t22 32.5t32.5 22t39.5 8t39.5 -8t32.5 -22t22 -32.5t8 -39.5t-8 -39.5t-22 -32.5t-32.5 -22t-39.5 -8t-39.5 8t-32.5 22t-22 32.5t-8 39.5z" />
    <glyph glyph-name="guillemotright" unicode="&#xbb;" horiz-adv-x="540" 
d="M124 21l-96 59l126 172l-126 172l96 59l170 -231zM342 21l-96 59l126 172l-126 172l96 59l170 -231z" />
    <glyph glyph-name="afii10023" unicode="&#x401;" horiz-adv-x="525" 
d="M63 700h420v-168h-224v-98h203v-154h-203v-112h224v-168h-420v700zM89 823q0 33 22.5 55.5t55.5 22.5t55.5 -22.5t22.5 -55.5t-22.5 -55.5t-55.5 -22.5t-55.5 22.5t-22.5 55.5zM299 823q0 33 22.5 55.5t55.5 22.5t55.5 -22.5t22.5 -55.5t-22.5 -55.5t-55.5 -22.5
t-55.5 22.5t-22.5 55.5z" />
    <glyph glyph-name="afii10051" unicode="&#x402;" horiz-adv-x="776" 
d="M161 532h-154v168h588v-168h-238v-117q39 8 71.5 10t63.5 2q15 0 40 -1t53 -7t57.5 -19t52.5 -35.5t38 -57t15 -84.5q0 -45 -11.5 -85.5t-39 -72t-72.5 -50t-113 -18.5q-25 0 -49 3v126q5 -1 8.5 -1h8.5q42 0 57 22.5t15 48.5q0 12 -4.5 25.5t-16 24t-32 17.5t-52.5 7
q-50 0 -90 -10v-260h-196v532z" />
    <glyph glyph-name="afii10052" unicode="&#x403;" horiz-adv-x="497" 
d="M63 700h420v-168h-224v-532h-196v700zM304 896h224l-219 -150h-133z" />
    <glyph glyph-name="afii10053" unicode="&#x404;" horiz-adv-x="620" 
d="M578 28q-6 -4 -22.5 -12t-41.5 -16t-58.5 -14t-74.5 -6q-66 0 -129 23.5t-111.5 71t-78.5 119t-30 166.5q0 78 26 144t72.5 114t110.5 75t139 27q45 0 98 -12t100 -37v-172q-38 34 -82.5 50.5t-89.5 16.5q-33 0 -63 -10t-54 -28t-40 -43.5t-21 -57.5h224v-140h-231
q2 -30 14 -57.5t34 -48.5t54 -34t74 -13q51 0 97 17.5t84 51.5v-175z" />
    <glyph glyph-name="afii10054" unicode="&#x405;" horiz-adv-x="560" 
d="M431 504q-25 23 -57 42.5t-70 19.5q-22 0 -36 -6t-22.5 -15t-11.5 -19.5t-3 -19.5q0 -16 8 -26.5t20.5 -17.5t27 -11t27.5 -7q39 -9 77.5 -23.5t70 -40.5t51 -67t19.5 -103q0 -52 -18 -94.5t-52 -72.5t-82.5 -46.5t-110.5 -16.5q-34 0 -65 6t-62 19.5t-64 34.5t-71 52
l93 149q42 -40 86 -66.5t88 -26.5q27 0 48 13.5t21 45.5q0 24 -10.5 38.5t-28.5 24.5t-42.5 16.5t-52.5 15.5q-21 6 -49.5 18t-55 35t-44.5 60t-18 94q0 42 15.5 80.5t46 67.5t77 46t107.5 17q41 0 75.5 -8t61.5 -19t46.5 -22.5t29.5 -19.5z" />
    <glyph glyph-name="afii10055" unicode="&#x406;" horiz-adv-x="322" 
d="M63 700h196v-700h-196v700z" />
    <glyph glyph-name="afii10056" unicode="&#x407;" horiz-adv-x="370" 
d="M87 700h196v-700h-196v700zM12 824q0 33 22.5 55.5t55.5 22.5t55.5 -22.5t22.5 -55.5t-22.5 -55.5t-55.5 -22.5t-55.5 22.5t-22.5 55.5zM202 824q0 33 22.5 55.5t55.5 22.5t55.5 -22.5t22.5 -55.5t-22.5 -55.5t-55.5 -22.5t-55.5 22.5t-22.5 55.5z" />
    <glyph glyph-name="afii10057" unicode="&#x408;" horiz-adv-x="490" 
d="M126 203q5 -17 20 -36t44 -19q30 0 39 20t9 54v478h196v-458q0 -16 -1.5 -42t-8 -55t-20 -58.5t-37.5 -53t-61 -38.5t-90 -15q-68 0 -125 33t-91 89z" />
    <glyph glyph-name="afii10058" unicode="&#x409;" horiz-adv-x="1078" 
d="M672 700v-273h103q38 0 85.5 -6t89.5 -28t71 -64.5t29 -114.5q0 -73 -29 -115.5t-71.5 -64.5t-90 -28t-84.5 -6h-299v532h-140v-276q0 -38 -5.5 -84t-30 -86.5t-75.5 -67.5t-143 -27q-22 0 -40.5 1.5t-41.5 7.5v168q11 -3 21.5 -5t21.5 -2q32 0 51.5 10t29.5 29.5t13 48
t3 65.5v386h532zM756 140q46 0 72 16t26 58t-25.5 57.5t-72.5 15.5h-84v-147h84z" />
    <glyph glyph-name="afii10059" unicode="&#x40a;" horiz-adv-x="1099" 
d="M63 700h196v-273h238v273h196v-273h103q38 0 85.5 -6t89.5 -28t71 -64.5t29 -114.5q0 -73 -29 -115.5t-71.5 -64.5t-90 -28t-84.5 -6h-299v287h-238v-287h-196v700zM777 140q46 0 72 16t26 58t-25.5 57.5t-72.5 15.5h-84v-147h84z" />
    <glyph glyph-name="afii10060" unicode="&#x40b;" horiz-adv-x="777" 
d="M161 532h-154v168h588v-168h-238v-115q27 4 44.5 6t31.5 3t26.5 1h28.5q66 0 109.5 -11.5t71 -31t41.5 -44t19.5 -50.5t5.5 -51.5v-45.5v-193h-196v165q0 21 -1.5 40.5t-12 33.5t-33.5 22.5t-66 8.5q-13 0 -19 -0.5t-11.5 -1.5t-13.5 -2t-25 -3v-263h-196v532z" />
    <glyph glyph-name="afii10061" unicode="&#x40c;" horiz-adv-x="700" 
d="M63 700h196v-294l211 294h230l-266 -339l273 -361h-245l-203 301v-301h-196v700zM394 896h224l-219 -150h-133z" />
    <glyph glyph-name="afii10062" unicode="&#x40e;" horiz-adv-x="686" 
d="M231 700l137 -294l112 294h213l-315 -700h-210l95 193l-263 507h231zM570 850q-14 -31 -37 -52t-51 -34.5t-59.5 -19.5t-62.5 -6t-62.5 6t-59.5 19.5t-51 34.5t-37 52l112 42q14 -36 42.5 -47.5t55.5 -11.5t56 11.5t42 47.5z" />
    <glyph glyph-name="afii10145" unicode="&#x40f;" horiz-adv-x="750" 
d="M63 700h196v-532h232v532h196v-700h-228v-210h-168v210h-228v700z" />
    <glyph glyph-name="afii10017" unicode="&#x410;" horiz-adv-x="722" 
d="M242 700h238l249 -700h-210l-39 121h-238l-39 -121h-210zM281 275h160l-80 258z" />
    <glyph glyph-name="afii10018" unicode="&#x411;" horiz-adv-x="665" 
d="M63 700h517v-168h-321v-105h103q13 0 38.5 -1t56 -6.5t62.5 -18t58.5 -36t43 -59.5t16.5 -89q0 -55 -17 -92t-43 -61.5t-58 -37.5t-63 -18.5t-56 -6.5t-38 -1h-299v700zM343 140q46 0 72 16t26 58t-25.5 57.5t-72.5 15.5h-84v-147h84z" />
    <glyph glyph-name="afii10019" unicode="&#x412;" horiz-adv-x="678" 
d="M402 700q71 0 112.5 -20t63 -48.5t27.5 -59t6 -50.5q0 -28 -9 -51.5t-24 -42t-35 -31.5t-41 -21v-2q17 -4 42.5 -14.5t49 -31t40 -53t16.5 -80.5q0 -37 -13 -72t-40.5 -62.5t-71 -44t-104.5 -16.5h-358v700h339zM341 424q29 0 46.5 6.5t27.5 16.5t13 21.5t3 21.5
q0 28 -19.5 49t-70.5 21h-82v-136h82zM349 140q11 0 29 1.5t35 8.5t29 22t12 42q0 26 -12 40.5t-28.5 21t-34.5 7.5t-30 1h-90v-144h90z" />
    <glyph glyph-name="afii10020" unicode="&#x413;" horiz-adv-x="497" 
d="M63 700h420v-168h-224v-532h-196v700z" />
    <glyph glyph-name="afii10021" unicode="&#x414;" horiz-adv-x="747" 
d="M656 700v-532h84v-308h-168v140h-404v-140h-168v308q24 1 47.5 11t43 29.5t32.5 49t16 70.5q2 17 1.5 33t-0.5 33v306h516zM320 366q0 -31 -2 -60.5t-9.5 -55t-22.5 -46.5t-40 -36h214v364h-140v-166z" />
    <glyph glyph-name="afii10022" unicode="&#x415;" horiz-adv-x="525" 
d="M63 700h420v-168h-224v-98h203v-154h-203v-112h224v-168h-420v700z" />
    <glyph glyph-name="afii10024" unicode="&#x416;" horiz-adv-x="1042" 
d="M423 308l-189 -308h-241l255 357l-234 343h223l186 -304v304h196v-304l186 304h223l-234 -343l255 -357h-241l-189 308v-308h-196v308z" />
    <glyph glyph-name="afii10025" unicode="&#x417;" horiz-adv-x="591" 
d="M43 655q13 7 35 18t52 21.5t67.5 18t81.5 7.5q59 0 108.5 -14.5t85 -40.5t55.5 -62.5t20 -80.5q0 -53 -30.5 -96.5t-84.5 -61.5v-3q21 -7 44 -19t42 -31.5t31.5 -48t12.5 -68.5q0 -50 -21.5 -89.5t-59.5 -67.5t-89.5 -42.5t-110.5 -14.5q-37 0 -69 4.5t-63.5 16t-66 31.5
t-76.5 52l81 130q38 -35 84 -57.5t86 -22.5q32 0 52 8t31 19.5t15.5 25t4.5 24.5q0 31 -25 52t-88 21h-111v140h111q33 0 53.5 7t32 17.5t15 23t3.5 24.5q0 33 -27.5 51.5t-72.5 18.5q-43 0 -76 -13.5t-65 -34.5z" />
    <glyph glyph-name="afii10026" unicode="&#x418;" horiz-adv-x="778" 
d="M252 700v-420l271 420h192v-700h-189v420l-271 -420h-192v700h189z" />
    <glyph glyph-name="afii10027" unicode="&#x419;" horiz-adv-x="778" 
d="M252 700v-420l271 420h192v-700h-189v420l-271 -420h-192v700h189zM599 850q-14 -31 -37 -52t-51 -34.5t-59.5 -19.5t-62.5 -6t-62.5 6t-59.5 19.5t-51 34.5t-37 52l112 42q14 -36 42.5 -47.5t55.5 -11.5t56 11.5t42 47.5z" />
    <glyph glyph-name="afii10028" unicode="&#x41a;" horiz-adv-x="700" 
d="M63 700h196v-294l211 294h230l-266 -339l273 -361h-245l-203 301v-301h-196v700z" />
    <glyph glyph-name="afii10029" unicode="&#x41b;" horiz-adv-x="735" 
d="M672 700v-700h-196v532h-140v-276q0 -38 -5.5 -84t-30 -86.5t-75.5 -67.5t-143 -27q-22 0 -40.5 1.5t-41.5 7.5v168q11 -3 21.5 -5t21.5 -2q32 0 51.5 10t29.5 29.5t13 48t3 65.5v386h532z" />
    <glyph glyph-name="afii10030" unicode="&#x41c;" horiz-adv-x="870" 
d="M116 700h196l123 -427l123 427h196l102 -700h-188l-52 406l-118 -406h-126l-118 406l-52 -406h-188z" />
    <glyph glyph-name="afii10031" unicode="&#x41d;" horiz-adv-x="756" 
d="M63 700h196v-252h238v252h196v-700h-196v280h-238v-280h-196v700z" />
    <glyph glyph-name="afii10032" unicode="&#x41e;" horiz-adv-x="816" 
d="M408 -20q-96 0 -166.5 31.5t-117 83.5t-69.5 118.5t-23 136.5t23 136.5t69.5 118.5t117 83.5t166.5 31.5t167 -31.5t117.5 -83.5t69 -118.5t22.5 -136.5t-22.5 -136.5t-69 -118.5t-117.5 -83.5t-167 -31.5zM408 148q34 0 65.5 12.5t55.5 38t38.5 63t14.5 88.5t-14.5 88.5
t-38.5 63t-55.5 38t-65.5 12.5t-65.5 -12.5t-55.5 -38t-38.5 -63t-14.5 -88.5t14.5 -88.5t38.5 -63t55.5 -38t65.5 -12.5z" />
    <glyph glyph-name="afii10033" unicode="&#x41f;" horiz-adv-x="750" 
d="M687 700v-700h-196v532h-232v-532h-196v700h624z" />
    <glyph glyph-name="afii10034" unicode="&#x420;" horiz-adv-x="641" 
d="M63 700h295q75 0 124 -23t78 -58t41 -76t12 -77t-12 -77.5t-41 -76.5t-78.5 -58t-123.5 -23h-99v-231h-196v700zM259 385h56q33 0 52 8.5t28.5 21t12.5 26.5t3 25q0 13 -3 27t-13.5 26t-29 19.5t-50.5 7.5h-56v-161z" />
    <glyph glyph-name="afii10035" unicode="&#x421;" horiz-adv-x="614" 
d="M579 32q-48 -32 -96 -42t-93 -10q-78 0 -143.5 26.5t-113.5 74.5t-74.5 116.5t-26.5 152.5q0 88 29 156.5t77.5 116t113 72.5t135.5 25q47 0 97 -13t95 -43v-203q-27 32 -68 58t-98 26q-40 0 -73.5 -15t-56.5 -42t-36 -64t-13 -80q0 -40 12 -74.5t35.5 -60t56.5 -40
t75 -14.5q55 0 97 24t69 52v-199z" />
    <glyph glyph-name="afii10036" unicode="&#x422;" horiz-adv-x="518" 
d="M161 532h-154v168h504v-168h-154v-532h-196v532z" />
    <glyph glyph-name="afii10037" unicode="&#x423;" horiz-adv-x="686" 
d="M231 700l137 -294l112 294h213l-315 -700h-210l95 193l-263 507h231z" />
    <glyph glyph-name="afii10038" unicode="&#x424;" horiz-adv-x="920" 
d="M362 98q-45 0 -102 9t-108 38.5t-85.5 85t-34.5 147.5q0 91 34.5 147t85.5 86t108 39.5t102 7.5v77h196v-77q45 2 102 -7.5t108 -39.5t85.5 -86t34.5 -147q0 -92 -34.5 -147.5t-85.5 -85t-108 -38.5t-102 -9v-98h-196v98zM544 238q18 0 43.5 4t49 19t39.5 43t16 74
q0 47 -16 74.5t-39.5 42.5t-49 19t-43.5 4v-280zM376 518q-18 0 -43.5 -4t-49 -19t-39.5 -42.5t-16 -74.5q0 -46 16 -74t39.5 -43t49 -19t43.5 -4v280z" />
    <glyph glyph-name="afii10039" unicode="&#x425;" horiz-adv-x="713" 
d="M249 368l-231 332h235l104 -189l104 189h222l-218 -322l255 -378h-231l-132 231l-140 -231h-224z" />
    <glyph glyph-name="afii10040" unicode="&#x426;" horiz-adv-x="777" 
d="M63 700h196v-532h231v532h196v-532h84v-308h-168v140h-539v700z" />
    <glyph glyph-name="afii10041" unicode="&#x427;" horiz-adv-x="679" 
d="M420 273q-27 -4 -44.5 -6t-31.5 -3t-26 -1h-29q-89 0 -138.5 20.5t-73.5 53.5t-29.5 75t-5.5 85v203h196v-175q0 -20 1.5 -39t11.5 -33.5t32 -23.5t63 -9q12 0 28.5 2t45.5 5v273h196v-700h-196v273z" />
    <glyph glyph-name="afii10042" unicode="&#x428;" horiz-adv-x="1050" 
d="M63 700h196v-532h168v532h196v-532h168v532h196v-700h-924v700z" />
    <glyph glyph-name="afii10043" unicode="&#x429;" horiz-adv-x="1078" 
d="M63 700h196v-532h168v532h196v-532h168v532h196v-532h84v-308h-168v140h-840v700z" />
    <glyph glyph-name="afii10044" unicode="&#x42a;" horiz-adv-x="749" 
d="M147 532h-140v168h336v-273h103q38 0 85.5 -6t89.5 -28t71 -64.5t29 -114.5q0 -73 -29 -115.5t-71.5 -64.5t-90 -28t-84.5 -6h-299v532zM427 140q46 0 72 16t26 58t-25.5 57.5t-72.5 15.5h-84v-147h84z" />
    <glyph glyph-name="afii10045" unicode="&#x42b;" horiz-adv-x="938" 
d="M63 700h196v-273h103q38 0 85.5 -6t89.5 -28t71 -64.5t29 -114.5q0 -73 -29 -115.5t-71.5 -64.5t-90 -28t-84.5 -6h-299v700zM343 140q46 0 72 16t26 58t-25.5 57.5t-72.5 15.5h-84v-147h84zM679 700h196v-700h-196v700z" />
    <glyph glyph-name="afii10046" unicode="&#x42c;" horiz-adv-x="665" 
d="M63 700h196v-273h103q38 0 85.5 -6t89.5 -28t71 -64.5t29 -114.5q0 -73 -29 -115.5t-71.5 -64.5t-90 -28t-84.5 -6h-299v700zM343 140q46 0 72 16t26 58t-25.5 57.5t-72.5 15.5h-84v-147h84z" />
    <glyph glyph-name="afii10047" unicode="&#x42d;" horiz-adv-x="620" 
d="M42 203q38 -34 84 -51.5t97 -17.5q42 0 74 13t54 34t34 48.5t14 57.5h-231v140h224q-5 32 -21 57.5t-40 43.5t-54 28t-63 10q-45 0 -89.5 -16.5t-82.5 -50.5v172q47 25 100 37t98 12q75 0 139 -27t110.5 -75t72.5 -114t26 -144q0 -95 -30 -166.5t-78.5 -119t-111.5 -71
t-129 -23.5q-41 0 -74.5 6t-58.5 14t-41.5 16t-22.5 12v175z" />
    <glyph glyph-name="afii10048" unicode="&#x42e;" horiz-adv-x="1112" 
d="M335 432q8 58 35 110t72.5 91.5t111 63t150.5 23.5q96 0 167 -31.5t117.5 -83.5t69 -118.5t22.5 -136.5q0 -71 -22.5 -137.5t-69 -118.5t-117.5 -83t-167 -31q-72 0 -136.5 21.5t-114.5 60.5t-81.5 94t-37.5 122h-75v-278h-196v700h196v-268h76zM704 148q34 0 65.5 12.5
t55.5 38t38.5 63t14.5 88.5t-14.5 88.5t-38.5 63t-55.5 38t-65.5 12.5t-65.5 -12.5t-55.5 -38t-38.5 -63t-14.5 -88.5t14.5 -88.5t38.5 -63t55.5 -38t65.5 -12.5z" />
    <glyph glyph-name="afii10049" unicode="&#x42f;" horiz-adv-x="644" 
d="M203 263q-34 6 -63.5 22.5t-51.5 42.5t-34 61t-12 78q0 58 16 97.5t41.5 65.5t55.5 40t58 20.5t50 8t31 1.5h287v-700h-196v238h-18l-143 -238h-210zM385 546h-54q-10 0 -27 -2t-33 -10t-28 -25t-12 -47q0 -28 10 -45t25 -25.5t32.5 -11t32.5 -2.5h54v168z" />
    <glyph glyph-name="afii10065" unicode="&#x430;" horiz-adv-x="637" 
d="M413 483h168v-483h-168v57q-26 -33 -65 -54t-93 -21q-46 0 -87 17.5t-71.5 51t-48.5 82t-18 109.5q0 46 12.5 92t40 83t70 60.5t102.5 23.5q51 0 88.5 -17.5t69.5 -59.5v59zM315 126q47 0 76 31t29 85q0 53 -29 84t-76 31q-27 0 -47 -10t-32.5 -26.5t-18.5 -37t-6 -41.5
q0 -22 6 -42.5t19 -37t32.5 -26.5t46.5 -10z" />
    <glyph glyph-name="afii10066" unicode="&#x431;" horiz-adv-x="630" 
d="M184 386q5 7 17 21.5t33 28.5t52.5 25t75.5 11q54 0 97.5 -18t75 -49.5t48.5 -74t17 -90.5q0 -49 -15.5 -95.5t-49 -82.5t-86 -58t-127.5 -22q-71 0 -120 19.5t-81 49.5t-49.5 67t-25.5 71t-9.5 62t-1.5 40q0 120 29.5 194t74 116.5t96 60.5t95.5 27q24 5 43.5 7.5
t34.5 7t24 11.5t11 20h140q-1 -50 -21.5 -81t-48 -49t-57.5 -26t-50 -13q-48 -11 -86.5 -22.5t-67 -30t-46.5 -49t-25 -78.5h3zM318 108q47 0 74 32t27 87t-26.5 87t-74.5 32q-46 0 -74 -32t-28 -87t28 -87t74 -32z" />
    <glyph glyph-name="afii10067" unicode="&#x432;" horiz-adv-x="560" 
d="M372 483q8 0 30.5 -1.5t46.5 -12t43 -33.5t19 -65q0 -10 -2 -26.5t-10 -34t-25 -33.5t-46 -25v-2q14 -3 31.5 -10t34 -21.5t27.5 -37.5t11 -58q0 -45 -20.5 -70t-47 -37t-51.5 -14t-34 -2h-323v483h316zM296 294q6 0 15 1t17 5t13.5 13t5.5 24q0 14 -5.5 22t-13.5 12
t-16.5 5.5t-15.5 1.5h-72v-84h72zM301 105q31 0 43.5 14t12.5 32q0 25 -16.5 36.5t-39.5 11.5h-77v-94h77z" />
    <glyph glyph-name="afii10068" unicode="&#x433;" horiz-adv-x="399" 
d="M56 483h336v-126h-161v-357h-175v483z" />
    <glyph glyph-name="afii10069" unicode="&#x434;" horiz-adv-x="644" 
d="M560 483v-363h70v-260h-154v140h-308v-140h-154v260q33 0 58.5 22t36.5 64q8 27 9 49t1 45v183h441zM392 363h-116v-87q0 -48 -9.5 -84.5t-44.5 -71.5h170v243z" />
    <glyph glyph-name="afii10070" unicode="&#x435;" horiz-adv-x="592" 
d="M558 147q-21 -62 -58.5 -95.5t-77 -49t-74 -18t-50.5 -2.5q-56 0 -105 17t-85 50t-57 81.5t-21 111.5q0 57 18.5 105t53 82t83.5 53t111 19q86 0 139 -31.5t81.5 -77t38 -97t7.5 -92.5h-368q-1 -23 5.5 -44t19.5 -37t33 -25.5t46 -9.5q36 0 60.5 15.5t31.5 44.5h168z
M394 298q-1 19 -7.5 36.5t-19 31t-30 22t-41.5 8.5q-45 0 -70.5 -29.5t-27.5 -68.5h196z" />
    <glyph glyph-name="afii10072" unicode="&#x436;" horiz-adv-x="860" 
d="M346 210l-140 -210h-217l196 252l-168 231h203l126 -203v203h168v-203l126 203h203l-168 -231l196 -252h-217l-140 210v-210h-168v210z" />
    <glyph glyph-name="afii10073" unicode="&#x437;" horiz-adv-x="497" 
d="M38 453q40 21 95.5 34.5t108.5 13.5q28 0 62.5 -5.5t64.5 -20.5t50.5 -41.5t20.5 -68.5q0 -39 -19.5 -69t-52.5 -44v-2q53 -12 77 -46.5t24 -72.5q0 -14 -7 -39t-30.5 -49.5t-68 -42.5t-119.5 -18q-15 0 -38 1.5t-52.5 7.5t-63 17.5t-69.5 31.5l45 114q38 -23 71.5 -34.5
t79.5 -11.5q23 0 37 5t21.5 12.5t10 15.5t2.5 14q0 15 -7.5 23t-19 12t-24 5t-21.5 1h-76v105h86q6 0 16 1t19.5 4.5t16.5 12t7 23.5t-8 24t-19 13.5t-23 5.5t-20 1q-32 0 -67 -11.5t-63 -29.5z" />
    <glyph glyph-name="afii10074" unicode="&#x438;" horiz-adv-x="630" 
d="M231 483v-259l175 259h168v-483h-175v266l-173 -266h-170v483h175z" />
    <glyph glyph-name="afii10075" unicode="&#x439;" horiz-adv-x="624" 
d="M228 483v-259l175 259h168v-483h-175v266l-173 -266h-170v483h175zM326 546q-30 0 -59 6t-55.5 19.5t-47.5 34.5t-35 52l114 42q5 -21 16 -33t23.5 -17.5t24.5 -7t19 -1.5q8 0 19.5 1.5t24 7t23.5 17.5t16 33l114 -42q-13 -31 -34.5 -52t-48 -34.5t-55.5 -19.5t-59 -6z
" />
    <glyph glyph-name="afii10076" unicode="&#x43a;" horiz-adv-x="598" 
d="M56 483h175v-197l146 197h214l-199 -227l217 -256h-221l-157 214v-214h-175v483z" />
    <glyph glyph-name="afii10077" unicode="&#x43b;" horiz-adv-x="623" 
d="M567 0h-175v363h-112v-202q0 -23 -4 -52.5t-21.5 -56t-52 -45t-96.5 -18.5q-22 0 -49.5 4.5t-42.5 6.5v126q13 -4 30 -4q12 0 24 3t22 12t16 25.5t6 44.5v276h455v-483z" />
    <glyph glyph-name="afii10078" unicode="&#x43c;" horiz-adv-x="762" 
d="M91 483h189l101 -287l101 287h189l77 -483h-166l-41 266l-97 -266h-126l-97 266l-41 -266h-166z" />
    <glyph glyph-name="afii10079" unicode="&#x43d;" horiz-adv-x="623" 
d="M56 483h175v-170h161v170h175v-483h-175v193h-161v-193h-175v483z" />
    <glyph glyph-name="afii10080" unicode="&#x43e;" horiz-adv-x="638" 
d="M319 -18q-75 0 -129.5 21t-90 57t-52.5 83t-17 99q0 51 17 98t52.5 82.5t90 57t129.5 21.5t129.5 -21.5t90 -57t52.5 -82.5t17 -98q0 -52 -17 -99t-52.5 -83t-90 -57t-129.5 -21zM319 108q53 0 80.5 37t27.5 97t-27.5 96.5t-80.5 36.5t-80.5 -36.5t-27.5 -96.5t27.5 -97
t80.5 -37z" />
    <glyph glyph-name="afii10081" unicode="&#x43f;" horiz-adv-x="616" 
d="M560 483v-483h-175v363h-154v-363h-175v483h504z" />
    <glyph glyph-name="afii10082" unicode="&#x440;" horiz-adv-x="638" 
d="M224 483v-59q32 40 69 58.5t90 18.5q51 0 92.5 -18.5t71 -52.5t45.5 -82t16 -106q0 -53 -15.5 -100.5t-45 -83t-71 -56t-93.5 -20.5q-43 0 -81 15.5t-71 51.5v-259h-175v693h168zM322 126q47 0 76 31t29 85q0 53 -29 84t-76 31q-28 0 -47.5 -10t-32.5 -26t-19 -37t-6 -42
q0 -22 6 -42.5t19 -37t32.5 -26.5t47.5 -10z" />
    <glyph glyph-name="afii10083" unicode="&#x441;" horiz-adv-x="459" 
d="M429 19q-3 -1 -16 -7t-33.5 -13t-47 -12t-56.5 -5q-53 0 -98 18t-78 51.5t-51.5 81.5t-18.5 109q0 51 15.5 97.5t46 82.5t77 57.5t107.5 21.5q40 0 75.5 -9t77.5 -29v-152q-25 24 -55 37t-60 13q-51 0 -77 -34.5t-26 -85.5q0 -52 29 -84.5t81 -32.5q20 0 47.5 9.5
t60.5 38.5v-153z" />
    <glyph glyph-name="afii10084" unicode="&#x442;" horiz-adv-x="441" 
d="M133 357h-126v126h427v-126h-126v-357h-175v357z" />
    <glyph glyph-name="afii10085" unicode="&#x443;" horiz-adv-x="608" 
d="M192 483l133 -259l113 259h181l-350 -693h-189l147 280l-238 413h203z" />
    <glyph glyph-name="afii10086" unicode="&#x444;" horiz-adv-x="787" 
d="M306 -7q-39 0 -87 9.5t-90 36.5t-70.5 76t-28.5 127t28.5 126.5t70.5 75.5t90 36.5t87 9.5v210h175v-210q39 0 87 -9.5t90 -36.5t70.5 -75.5t28.5 -126.5t-28.5 -127t-70.5 -76t-90 -36.5t-87 -9.5v-203h-175v203zM470 104q22 0 43.5 8t38 24.5t27 42t10.5 59.5
q0 35 -10.5 60t-27 41.5t-38 24.5t-43.5 8v-268zM317 372q-22 0 -43.5 -8t-38 -24.5t-27 -41.5t-10.5 -60q0 -34 10.5 -59.5t27 -42t38 -24.5t43.5 -8v268z" />
    <glyph glyph-name="afii10087" unicode="&#x445;" horiz-adv-x="602" 
d="M205 258l-177 225h214l77 -129l79 129h204l-182 -227l189 -256h-203l-98 158l-103 -158h-212z" />
    <glyph glyph-name="afii10088" unicode="&#x446;" horiz-adv-x="637" 
d="M56 483h175v-363h147v363h175v-363h70v-260h-154v140h-413v483z" />
    <glyph glyph-name="afii10089" unicode="&#x447;" horiz-adv-x="567" 
d="M336 157q-29 -5 -61.5 -6t-53.5 -1q-93 0 -136 34t-43 107v192h168v-153q0 -20 5.5 -32t14.5 -18t21.5 -8t25.5 -2q12 0 26 1t33 6v206h175v-483h-175v157z" />
    <glyph glyph-name="afii10090" unicode="&#x448;" horiz-adv-x="913" 
d="M56 483h175v-363h138v363h175v-363h138v363h175v-483h-801v483z" />
    <glyph glyph-name="afii10091" unicode="&#x449;" horiz-adv-x="941" 
d="M56 483h175v-363h138v363h175v-363h138v363h175v-363h70v-260h-154v140h-717v483z" />
    <glyph glyph-name="afii10092" unicode="&#x44a;" horiz-adv-x="606" 
d="M407 322q48 0 81 -14.5t54 -38t30 -52.5t9 -59q0 -36 -13 -65t-36.5 -50t-55 -32t-69.5 -11h-281v357h-119v126h294v-161h106zM359 112q17 0 27.5 5t16.5 12.5t8 16.5t2 16q0 23 -16 35.5t-38 12.5h-58v-98h58z" />
    <glyph glyph-name="afii10093" unicode="&#x44b;" horiz-adv-x="787" 
d="M337 322q48 0 81 -14.5t54 -38t30 -52.5t9 -59q0 -36 -13 -65t-36.5 -50t-55 -32t-69.5 -11h-281v483h175v-161h106zM289 112q17 0 27.5 5t16.5 12.5t8 16.5t2 16q0 23 -16 35.5t-38 12.5h-58v-98h58zM556 483h175v-483h-175v483z" />
    <glyph glyph-name="afii10094" unicode="&#x44c;" horiz-adv-x="536" 
d="M337 322q48 0 81 -14.5t54 -38t30 -52.5t9 -59q0 -36 -13 -65t-36.5 -50t-55 -32t-69.5 -11h-281v483h175v-161h106zM289 112q17 0 27.5 5t16.5 12.5t8 16.5t2 16q0 23 -16 35.5t-38 12.5h-58v-98h58z" />
    <glyph glyph-name="afii10095" unicode="&#x44d;" horiz-adv-x="492" 
d="M42 147q40 -30 75.5 -38.5t62.5 -8.5q57 0 90 25.5t38 67.5h-203v105h199q-7 37 -40 64t-87 27q-44 0 -78 -18t-54 -34v133q44 19 82.5 25t64.5 6q54 0 103 -17t86 -49.5t59 -80t22 -109.5q0 -50 -16.5 -98t-50 -85t-84.5 -59.5t-119 -22.5q-62 0 -99 10.5t-51 16.5v140z
" />
    <glyph glyph-name="afii10096" unicode="&#x44e;" horiz-adv-x="884" 
d="M286 305q6 28 22.5 62t49 64t83.5 50t126 20t129 -21.5t89.5 -57t52 -82.5t16.5 -98q0 -52 -16.5 -99t-52 -83t-90 -57t-130.5 -21q-75 0 -126.5 20.5t-84.5 51.5t-49 68.5t-21 70.5h-53v-193h-175v483h175v-178h55zM567 108q53 0 79.5 37t26.5 97t-26.5 96.5t-79.5 36.5
t-79.5 -36.5t-26.5 -96.5t26.5 -97t79.5 -37z" />
    <glyph glyph-name="afii10097" unicode="&#x44f;" horiz-adv-x="553" 
d="M154 168q-56 8 -89 50.5t-33 106.5q0 43 15 73t40.5 49t59 27.5t70.5 8.5h280v-483h-175v154h-14l-98 -154h-182zM322 371h-59q-7 0 -18 -1.5t-21 -7t-17 -17t-7 -31.5q0 -29 16.5 -42t46.5 -13h59v112z" />
    <glyph glyph-name="afii10071" unicode="&#x451;" horiz-adv-x="592" 
d="M558 147q-21 -62 -58.5 -95.5t-77 -49t-74 -18t-50.5 -2.5q-56 0 -105 17t-85 50t-57 81.5t-21 111.5q0 57 18.5 105t53 82t83.5 53t111 19q86 0 139 -31.5t81.5 -77t38 -97t7.5 -92.5h-368q-1 -23 5.5 -44t19.5 -37t33 -25.5t46 -9.5q36 0 60.5 15.5t31.5 44.5h168z
M394 298q-1 19 -7.5 36.5t-19 31t-30 22t-41.5 8.5q-45 0 -70.5 -29.5t-27.5 -68.5h196zM113 616q0 33 22.5 55.5t55.5 22.5t55.5 -22.5t22.5 -55.5t-22.5 -55.5t-55.5 -22.5t-55.5 22.5t-22.5 55.5zM323 616q0 33 22.5 55.5t55.5 22.5t55.5 -22.5t22.5 -55.5t-22.5 -55.5
t-55.5 -22.5t-55.5 22.5t-22.5 55.5z" />
    <glyph glyph-name="afii10099" unicode="&#x452;" horiz-adv-x="609" 
d="M56 567h-84v98h84v70h175v-70h210v-98h-210v-140q27 35 66.5 54.5t90.5 19.5q59 0 93 -23t51.5 -57t22.5 -71.5t5 -67.5v-334q0 -23 -4 -52.5t-22 -56t-54.5 -45t-100.5 -18.5q-22 0 -49.5 4.5t-42.5 6.5v126q13 -4 30 -4q12 0 24 3t22 12t16 25.5t6 44.5v272
q0 11 -1 26.5t-7 30t-18.5 24.5t-35.5 10q-17 0 -33.5 -7t-29.5 -21.5t-21 -37t-8 -53.5v-238h-175v567z" />
    <glyph glyph-name="afii10100" unicode="&#x453;" horiz-adv-x="399" 
d="M56 483h336v-126h-161v-357h-175v483zM244 700h224l-199 -161h-133z" />
    <glyph glyph-name="afii10101" unicode="&#x454;" horiz-adv-x="492" 
d="M387 193h-203q5 -39 38 -65t90 -26q25 0 61.5 8t76.5 37v-140q-10 -4 -49 -14.5t-101 -10.5q-68 0 -119 22.5t-84.5 59t-50 84t-16.5 97.5t17.5 96t52 81.5t84.5 57t116 21.5q26 0 64.5 -6t82.5 -25v-133q-20 16 -54 34t-78 18q-54 0 -87 -27t-40 -64h199v-105z" />
    <glyph glyph-name="afii10102" unicode="&#x455;" horiz-adv-x="466" 
d="M70 153q26 -17 61.5 -31t73.5 -14q31 0 41 11.5t10 22.5q0 12 -6 19.5t-15 11.5t-18.5 6t-16.5 3q-79 12 -121 45t-42 104q0 34 11.5 65t35.5 54t61.5 37t89.5 14q59 0 106.5 -12.5t82.5 -29.5l-55 -112q-32 21 -60.5 30t-50.5 9q-19 0 -29.5 -5t-16 -11.5t-6.5 -13.5
t-1 -11q0 -10 3.5 -17.5t12.5 -12.5t25.5 -8.5t43.5 -6.5q10 -1 33.5 -6.5t47.5 -20.5t42 -43.5t18 -75.5q0 -33 -11 -64t-36 -55t-66 -38.5t-101 -14.5t-107 12t-89 38z" />
    <glyph glyph-name="afii10103" unicode="&#x456;" horiz-adv-x="290" 
d="M233 483v-483h-175v483h175zM53 623q0 38 27 65t65 27t65 -27t27 -65t-27 -65t-65 -27t-65 27t-27 65z" />
    <glyph glyph-name="afii10104" unicode="&#x457;" horiz-adv-x="310" 
d="M243 483v-483h-175v483h175zM68 539q-29 0 -48.5 22.5t-19.5 54.5t19.5 54.5t48.5 22.5t48.5 -22.5t19.5 -54.5t-19.5 -54.5t-48.5 -22.5zM242 539q-29 0 -48.5 22.5t-19.5 54.5t19.5 54.5t48.5 22.5t48.5 -22.5t19.5 -54.5t-19.5 -54.5t-48.5 -22.5z" />
    <glyph glyph-name="afii10105" unicode="&#x458;" horiz-adv-x="290" 
d="M233 483v-693h-175v693h175zM53 623q0 38 27 65t65 27t65 -27t27 -65t-27 -65t-65 -27t-65 27t-27 65z" />
    <glyph glyph-name="afii10106" unicode="&#x459;" horiz-adv-x="872" 
d="M567 322h106q48 0 81 -14.5t54 -38t30 -52.5t9 -59q0 -36 -13 -65t-36.5 -50t-55 -32t-69.5 -11h-281v363h-112v-202q0 -23 -4 -52.5t-21.5 -56t-52 -45t-96.5 -18.5q-22 0 -49.5 4.5t-42.5 6.5v126q13 -4 30 -4q12 0 24 3t22 12t16 25.5t6 44.5v276h455v-161zM625 112
q17 0 27.5 5t16.5 12.5t8 16.5t2 16q0 23 -16 35.5t-38 12.5h-58v-98h58z" />
    <glyph glyph-name="afii10107" unicode="&#x45a;" horiz-adv-x="872" 
d="M56 483h175v-161h161v161h175v-161h106q48 0 81 -14.5t54 -38t30 -52.5t9 -59q0 -36 -13 -65t-36.5 -50t-55 -32t-69.5 -11h-281v202h-161v-202h-175v483zM625 112q17 0 27.5 5t16.5 12.5t8 16.5t2 16q0 23 -16 35.5t-38 12.5h-58v-98h58z" />
    <glyph glyph-name="afii10108" unicode="&#x45b;" horiz-adv-x="609" 
d="M56 567h-84v98h84v70h175v-70h210v-98h-210v-140q27 35 66.5 54.5t90.5 19.5q59 0 93 -23t51.5 -57t22.5 -71.5t5 -67.5v-282h-175v266q0 11 -1 26.5t-7 30t-18.5 24.5t-35.5 10q-17 0 -33.5 -7t-29.5 -21.5t-21 -37t-8 -53.5v-238h-175v567z" />
    <glyph glyph-name="afii10109" unicode="&#x45c;" horiz-adv-x="598" 
d="M56 483h175v-197l146 197h214l-199 -227l217 -256h-221l-157 214v-214h-175v483zM314 700h224l-199 -161h-133z" />
    <glyph glyph-name="afii10110" unicode="&#x45e;" horiz-adv-x="608" 
d="M192 483l133 -259l113 259h181l-350 -693h-189l147 280l-238 413h203zM304 546q-30 0 -59 6t-55.5 19.5t-47.5 34.5t-35 52l114 42q5 -21 16 -33t23.5 -17.5t24.5 -7t19 -1.5q8 0 19.5 1.5t24 7t23.5 17.5t16 33l114 -42q-13 -31 -34.5 -52t-48 -34.5t-55.5 -19.5t-59 -6
z" />
    <glyph glyph-name="afii10193" unicode="&#x45f;" horiz-adv-x="616" 
d="M560 0h-175v-170h-154v170h-175v483h175v-363h154v363h175v-483z" />
    <glyph glyph-name="afii10050" unicode="&#x490;" horiz-adv-x="511" 
d="M63 700h280v140h154v-308h-238v-532h-196v700z" />
    <glyph glyph-name="afii10098" unicode="&#x491;" horiz-adv-x="399" 
d="M56 483h231v127h105v-253h-161v-357h-175v483z" />
    <glyph glyph-name="endash" unicode="&#x2013;" horiz-adv-x="624" 
d="M574 323v-100h-524v100h524z" />
    <glyph glyph-name="emdash" unicode="&#x2014;" horiz-adv-x="854" 
d="M804 323v-100h-754v100h754z" />
    <glyph glyph-name="quoteleft" unicode="&#x2018;" horiz-adv-x="336" 
d="M203 392h-175l147 308h133z" />
    <glyph glyph-name="quoteright" unicode="&#x2019;" horiz-adv-x="336" 
d="M133 700h175l-147 -308h-133z" />
    <glyph glyph-name="quotesinglbase" unicode="&#x201a;" horiz-adv-x="322" 
d="M119 168h175l-147 -308h-133z" />
    <glyph glyph-name="quotedblleft" unicode="&#x201c;" horiz-adv-x="567" 
d="M203 392h-175l147 308h133zM434 392h-175l147 308h133z" />
    <glyph glyph-name="quotedblright" unicode="&#x201d;" horiz-adv-x="567" 
d="M133 700h175l-147 -308h-133zM364 700h175l-147 -308h-133z" />
    <glyph glyph-name="quotedblbase" unicode="&#x201e;" horiz-adv-x="567" 
d="M133 168h175l-147 -308h-133zM364 168h175l-147 -308h-133z" />
    <glyph glyph-name="dagger" unicode="&#x2020;" horiz-adv-x="588" 
d="M203 350h-175v161h175v224h182v-224h175v-161h-175v-560h-182v560z" />
    <glyph glyph-name="daggerdbl" unicode="&#x2021;" horiz-adv-x="588" 
d="M203 14h-175v161h175v175h-175v161h175v224h182v-224h175v-161h-175v-175h175v-161h-175v-224h-182v224z" />
    <glyph glyph-name="bullet" unicode="&#x2022;" horiz-adv-x="680" 
d="M160 350q0 38 14 70.5t38.5 57t57.5 38.5t70 14q38 0 70.5 -14t57 -38.5t38.5 -57t14 -70.5q0 -37 -14 -70t-38.5 -57.5t-57 -38.5t-70.5 -14q-37 0 -70 14t-57.5 38.5t-38.5 57.5t-14 70z" />
    <glyph glyph-name="ellipsis" unicode="&#x2026;" horiz-adv-x="990" 
d="M63 84q0 21 8 39.5t22 32.5t32.5 22t39.5 8t39.5 -8t32.5 -22t22 -32.5t8 -39.5t-8 -39.5t-22 -32.5t-32.5 -22t-39.5 -8t-39.5 8t-32.5 22t-22 32.5t-8 39.5zM393 84q0 21 8 39.5t22 32.5t32.5 22t39.5 8t39.5 -8t32.5 -22t22 -32.5t8 -39.5t-8 -39.5t-22 -32.5
t-32.5 -22t-39.5 -8t-39.5 8t-32.5 22t-22 32.5t-8 39.5zM723 84q0 21 8 39.5t22 32.5t32.5 22t39.5 8t39.5 -8t32.5 -22t22 -32.5t8 -39.5t-8 -39.5t-22 -32.5t-32.5 -22t-39.5 -8t-39.5 8t-32.5 22t-22 32.5t-8 39.5z" />
    <glyph glyph-name="perthousand" unicode="&#x2030;" horiz-adv-x="1310" 
d="M623 720h91l-455 -740h-91zM21 528q0 39 15 74t41.5 61.5t61.5 41.5t74 15t74 -15t61.5 -41.5t41.5 -61.5t15 -74t-15 -74t-41.5 -61.5t-61.5 -41.5t-74 -15t-74 15t-61.5 41.5t-41.5 61.5t-15 74zM135 528q0 -33 22.5 -55.5t55.5 -22.5t55.5 22.5t22.5 55.5t-22.5 55.5
t-55.5 22.5t-55.5 -22.5t-22.5 -55.5zM477 172q0 39 15 74t41.5 61.5t61.5 41.5t74 15t74 -15t61.5 -41.5t41.5 -61.5t15 -74t-15 -74t-41.5 -61.5t-61.5 -41.5t-74 -15t-74 15t-61.5 41.5t-41.5 61.5t-15 74zM591 172q0 -33 22.5 -55.5t55.5 -22.5t55.5 22.5t22.5 55.5
t-22.5 55.5t-55.5 22.5t-55.5 -22.5t-22.5 -55.5zM905 172q0 39 15 74t41.5 61.5t61.5 41.5t74 15t74 -15t61.5 -41.5t41.5 -61.5t15 -74t-15 -74t-41.5 -61.5t-61.5 -41.5t-74 -15t-74 15t-61.5 41.5t-41.5 61.5t-15 74zM1019 172q0 -33 22.5 -55.5t55.5 -22.5t55.5 22.5
t22.5 55.5t-22.5 55.5t-55.5 22.5t-55.5 -22.5t-22.5 -55.5z" />
    <glyph glyph-name="guilsinglleft" unicode="&#x2039;" horiz-adv-x="322" 
d="M198 483l96 -59l-126 -172l126 -172l-96 -59l-170 231z" />
    <glyph glyph-name="guilsinglright" unicode="&#x203a;" horiz-adv-x="322" 
d="M124 21l-96 59l126 172l-126 172l96 59l170 -231z" />
    <glyph glyph-name="afii61352" unicode="&#x2116;" horiz-adv-x="1197" 
d="M63 700h206l256 -413v413h189v-700h-203l-259 420v-420h-189v700zM973 147q-37 0 -72 12t-62.5 36t-44.5 61t-17 87t17 87t44.5 61t62.5 36t72 12t72 -12t62.5 -36t44.5 -61t17 -87t-17 -87t-44.5 -61t-62.5 -36t-72 -12zM973 259q32 0 47.5 24.5t15.5 59.5
q0 45 -19.5 64.5t-43.5 19.5t-43.5 -19.5t-19.5 -64.5q0 -35 15.5 -59.5t47.5 -24.5zM812 91h322v-91h-322v91z" />
    <glyph glyph-name="trademark" unicode="&#x2122;" horiz-adv-x="840" 
d="M110 610h-90v90h300v-90h-90v-310h-120v310zM620 700h156l44 -400h-112l-23 272l-54 -272h-104l-54 272l-23 -272h-112l44 400h156l41 -231z" />
    <glyph glyph-name="Accent" horiz-adv-x="2" 
d="M-330 896h224l-219 -150h-133z" />
    <glyph glyph-name="accent" horiz-adv-x="2" 
d="M-282 700h224l-199 -161h-133z" />
    <glyph glyph-name="hyphenminus" horiz-adv-x="420" 
d="M380 350v-154h-340v154h340z" />
  </font>
</defs>
</svg>
